<?xml version='1.0' encoding='utf-8'?>
<mlt LC_NUMERIC="en_US.UTF-8" producer="main_bin" version="7.19.0" root="C:/Halloween">
 <profile frame_rate_num="25" sample_aspect_num="1" display_aspect_den="9" colorspace="709" progressive="1" description="HD 1080p 25 fps" display_aspect_num="16" frame_rate_den="1" width="1920" height="1080" sample_aspect_den="1"/>
 <chain id="chain3" out="00:00:07.000">
  <property name="length">176</property>
  <property name="eof">pause</property>
  <property name="resource">20191031_204745.mp4</property>
  <property name="mlt_service">avformat-novalidate</property>
  <property name="meta.media.nb_streams">2</property>
  <property name="meta.media.0.stream.type">video</property>
  <property name="meta.media.0.stream.frame_rate">29.9106</property>
  <property name="meta.media.0.stream.sample_aspect_ratio">1</property>
  <property name="meta.media.0.codec.width">1920</property>
  <property name="meta.media.0.codec.height">1080</property>
  <property name="meta.media.0.codec.rotate">0</property>
  <property name="meta.media.0.codec.pix_fmt">yuv420p</property>
  <property name="meta.media.0.codec.sample_aspect_ratio">0</property>
  <property name="meta.media.0.codec.colorspace">709</property>
  <property name="meta.media.0.codec.color_trc">1</property>
  <property name="meta.media.0.codec.name">h264</property>
  <property name="meta.media.0.codec.long_name">H.264 / AVC / MPEG-4 AVC / MPEG-4 part 10</property>
  <property name="meta.media.0.codec.bit_rate">16956571</property>
  <property name="meta.attr.0.stream.creation_time.markup">2019-10-31T09:47:53.000000Z</property>
  <property name="meta.attr.0.stream.language.markup">eng</property>
  <property name="meta.attr.0.stream.handler_name.markup">VideoHandle</property>
  <property name="meta.attr.0.stream.vendor_id.markup">[0][0][0][0]</property>
  <property name="meta.media.1.stream.type">audio</property>
  <property name="meta.media.1.codec.sample_fmt">fltp</property>
  <property name="meta.media.1.codec.sample_rate">48000</property>
  <property name="meta.media.1.codec.channels">2</property>
  <property name="meta.media.1.codec.name">aac</property>
  <property name="meta.media.1.codec.long_name">AAC (Advanced Audio Coding)</property>
  <property name="meta.media.1.codec.bit_rate">256001</property>
  <property name="meta.attr.1.stream.creation_time.markup">2019-10-31T09:47:53.000000Z</property>
  <property name="meta.attr.1.stream.language.markup">eng</property>
  <property name="meta.attr.1.stream.handler_name.markup">SoundHandle</property>
  <property name="meta.attr.1.stream.vendor_id.markup">[0][0][0][0]</property>
  <property name="meta.attr.major_brand.markup">mp42</property>
  <property name="meta.attr.minor_version.markup">0</property>
  <property name="meta.attr.compatible_brands.markup">isommp42</property>
  <property name="meta.attr.creation_time.markup">2019-10-31T09:47:53.000000Z</property>
  <property name="seekable">1</property>
  <property name="meta.media.sample_aspect_num">1</property>
  <property name="meta.media.sample_aspect_den">1</property>
  <property name="audio_index">1</property>
  <property name="video_index">0</property>
  <property name="meta.media.frame_rate_num">2700000</property>
  <property name="meta.media.frame_rate_den">90269</property>
  <property name="meta.media.colorspace">709</property>
  <property name="meta.media.color_trc">1</property>
  <property name="meta.media.has_b_frames">0</property>
  <property name="meta.media.width">1920</property>
  <property name="meta.media.height">1080</property>
  <property name="meta.media.color_range">mpeg</property>
  <property name="kdenlive:clipname"/>
  <property name="meta.media.variable_frame_rate">1</property>
  <property name="meta.media.top_field_first">0</property>
  <property name="meta.media.progressive">1</property>
  <property name="kdenlive:clip_type">0</property>
  <property name="kdenlive:folderid">-1</property>
  <property name="kdenlive:id">4</property>
  <property name="kdenlive:file_size">15109321</property>
  <property name="kdenlive:file_hash">0a7f784e8fc60324a419abb18f5bd72c</property>
  <property name="kdenlive:audio_max1">45</property>
 </chain>
 <chain id="chain4" out="00:00:06.360">
  <property name="length">160</property>
  <property name="eof">pause</property>
  <property name="resource">20191031_204838.mp4</property>
  <property name="mlt_service">avformat-novalidate</property>
  <property name="meta.media.nb_streams">2</property>
  <property name="meta.media.0.stream.type">video</property>
  <property name="meta.media.0.stream.frame_rate">29.9188</property>
  <property name="meta.media.0.stream.sample_aspect_ratio">1</property>
  <property name="meta.media.0.codec.width">1920</property>
  <property name="meta.media.0.codec.height">1080</property>
  <property name="meta.media.0.codec.rotate">0</property>
  <property name="meta.media.0.codec.pix_fmt">yuv420p</property>
  <property name="meta.media.0.codec.sample_aspect_ratio">0</property>
  <property name="meta.media.0.codec.colorspace">709</property>
  <property name="meta.media.0.codec.color_trc">1</property>
  <property name="meta.media.0.codec.name">h264</property>
  <property name="meta.media.0.codec.long_name">H.264 / AVC / MPEG-4 AVC / MPEG-4 part 10</property>
  <property name="meta.media.0.codec.bit_rate">17043918</property>
  <property name="meta.attr.0.stream.creation_time.markup">2019-10-31T09:48:46.000000Z</property>
  <property name="meta.attr.0.stream.language.markup">eng</property>
  <property name="meta.attr.0.stream.handler_name.markup">VideoHandle</property>
  <property name="meta.attr.0.stream.vendor_id.markup">[0][0][0][0]</property>
  <property name="meta.media.1.stream.type">audio</property>
  <property name="meta.media.1.codec.sample_fmt">fltp</property>
  <property name="meta.media.1.codec.sample_rate">48000</property>
  <property name="meta.media.1.codec.channels">2</property>
  <property name="meta.media.1.codec.name">aac</property>
  <property name="meta.media.1.codec.long_name">AAC (Advanced Audio Coding)</property>
  <property name="meta.media.1.codec.bit_rate">256045</property>
  <property name="meta.attr.1.stream.creation_time.markup">2019-10-31T09:48:46.000000Z</property>
  <property name="meta.attr.1.stream.language.markup">eng</property>
  <property name="meta.attr.1.stream.handler_name.markup">SoundHandle</property>
  <property name="meta.attr.1.stream.vendor_id.markup">[0][0][0][0]</property>
  <property name="meta.attr.major_brand.markup">mp42</property>
  <property name="meta.attr.minor_version.markup">0</property>
  <property name="meta.attr.compatible_brands.markup">isommp42</property>
  <property name="meta.attr.creation_time.markup">2019-10-31T09:48:46.000000Z</property>
  <property name="seekable">1</property>
  <property name="meta.media.sample_aspect_num">1</property>
  <property name="meta.media.sample_aspect_den">1</property>
  <property name="audio_index">1</property>
  <property name="video_index">0</property>
  <property name="meta.media.frame_rate_num">4297500</property>
  <property name="meta.media.frame_rate_den">143639</property>
  <property name="meta.media.colorspace">709</property>
  <property name="meta.media.color_trc">1</property>
  <property name="meta.media.has_b_frames">0</property>
  <property name="meta.media.width">1920</property>
  <property name="meta.media.height">1080</property>
  <property name="meta.media.color_range">mpeg</property>
  <property name="kdenlive:clipname"/>
  <property name="meta.media.variable_frame_rate">1</property>
  <property name="meta.media.top_field_first">0</property>
  <property name="meta.media.progressive">1</property>
  <property name="kdenlive:clip_type">0</property>
  <property name="kdenlive:folderid">-1</property>
  <property name="kdenlive:id">5</property>
  <property name="kdenlive:file_size">13808869</property>
  <property name="kdenlive:file_hash">aaee72b1745bb8f69abdd4aa413c6ae5</property>
  <property name="kdenlive:audio_max1">17</property>
  <property name="kdenlive:zone_in">0</property>
  <property name="kdenlive:zone_out">71</property>
 </chain>
 <chain id="chain5" out="00:00:07.840">
  <property name="length">197</property>
  <property name="eof">pause</property>
  <property name="resource">20191101_195436.mp4</property>
  <property name="mlt_service">avformat-novalidate</property>
  <property name="meta.media.nb_streams">2</property>
  <property name="meta.media.0.stream.type">video</property>
  <property name="meta.media.0.stream.frame_rate">29.9927</property>
  <property name="meta.media.0.stream.sample_aspect_ratio">1</property>
  <property name="meta.media.0.codec.width">1920</property>
  <property name="meta.media.0.codec.height">1080</property>
  <property name="meta.media.0.codec.rotate">0</property>
  <property name="meta.media.0.codec.pix_fmt">yuv420p</property>
  <property name="meta.media.0.codec.sample_aspect_ratio">0</property>
  <property name="meta.media.0.codec.colorspace">709</property>
  <property name="meta.media.0.codec.color_trc">1</property>
  <property name="meta.media.0.codec.name">h264</property>
  <property name="meta.media.0.codec.long_name">H.264 / AVC / MPEG-4 AVC / MPEG-4 part 10</property>
  <property name="meta.media.0.codec.bit_rate">17004717</property>
  <property name="meta.attr.0.stream.creation_time.markup">2019-11-01T08:54:45.000000Z</property>
  <property name="meta.attr.0.stream.language.markup">eng</property>
  <property name="meta.attr.0.stream.handler_name.markup">VideoHandle</property>
  <property name="meta.attr.0.stream.vendor_id.markup">[0][0][0][0]</property>
  <property name="meta.media.1.stream.type">audio</property>
  <property name="meta.media.1.codec.sample_fmt">fltp</property>
  <property name="meta.media.1.codec.sample_rate">48000</property>
  <property name="meta.media.1.codec.channels">2</property>
  <property name="meta.media.1.codec.name">aac</property>
  <property name="meta.media.1.codec.long_name">AAC (Advanced Audio Coding)</property>
  <property name="meta.media.1.codec.bit_rate">256068</property>
  <property name="meta.attr.1.stream.creation_time.markup">2019-11-01T08:54:45.000000Z</property>
  <property name="meta.attr.1.stream.language.markup">eng</property>
  <property name="meta.attr.1.stream.handler_name.markup">SoundHandle</property>
  <property name="meta.attr.1.stream.vendor_id.markup">[0][0][0][0]</property>
  <property name="meta.attr.major_brand.markup">mp42</property>
  <property name="meta.attr.minor_version.markup">0</property>
  <property name="meta.attr.compatible_brands.markup">isommp42</property>
  <property name="meta.attr.creation_time.markup">2019-11-01T08:54:45.000000Z</property>
  <property name="seekable">1</property>
  <property name="meta.media.sample_aspect_num">1</property>
  <property name="meta.media.sample_aspect_den">1</property>
  <property name="audio_index">1</property>
  <property name="video_index">0</property>
  <property name="meta.media.frame_rate_num">21240000</property>
  <property name="meta.media.frame_rate_den">708173</property>
  <property name="meta.media.colorspace">709</property>
  <property name="meta.media.color_trc">1</property>
  <property name="meta.media.has_b_frames">0</property>
  <property name="meta.media.width">1920</property>
  <property name="meta.media.height">1080</property>
  <property name="meta.media.color_range">mpeg</property>
  <property name="kdenlive:clipname"/>
  <property name="meta.media.variable_frame_rate">1</property>
  <property name="meta.media.top_field_first">0</property>
  <property name="meta.media.progressive">1</property>
  <property name="kdenlive:clip_type">0</property>
  <property name="kdenlive:folderid">-1</property>
  <property name="kdenlive:id">6</property>
  <property name="kdenlive:file_size">16981239</property>
  <property name="kdenlive:file_hash">4aa76bfb567f67447869ea58de358f89</property>
  <property name="kdenlive:audio_max1">116</property>
 </chain>
 <chain id="chain6" out="00:00:47.040">
  <property name="length">1177</property>
  <property name="eof">pause</property>
  <property name="resource">20191101_214238.mp4</property>
  <property name="mlt_service">avformat-novalidate</property>
  <property name="meta.media.nb_streams">2</property>
  <property name="meta.media.0.stream.type">video</property>
  <property name="meta.media.0.stream.frame_rate">29.852</property>
  <property name="meta.media.0.stream.sample_aspect_ratio">1</property>
  <property name="meta.media.0.codec.width">1920</property>
  <property name="meta.media.0.codec.height">1080</property>
  <property name="meta.media.0.codec.rotate">0</property>
  <property name="meta.media.0.codec.pix_fmt">yuv420p</property>
  <property name="meta.media.0.codec.sample_aspect_ratio">0</property>
  <property name="meta.media.0.codec.colorspace">709</property>
  <property name="meta.media.0.codec.color_trc">1</property>
  <property name="meta.media.0.codec.name">h264</property>
  <property name="meta.media.0.codec.long_name">H.264 / AVC / MPEG-4 AVC / MPEG-4 part 10</property>
  <property name="meta.media.0.codec.bit_rate">16918719</property>
  <property name="meta.attr.0.stream.creation_time.markup">2019-11-01T10:43:27.000000Z</property>
  <property name="meta.attr.0.stream.language.markup">eng</property>
  <property name="meta.attr.0.stream.handler_name.markup">VideoHandle</property>
  <property name="meta.attr.0.stream.vendor_id.markup">[0][0][0][0]</property>
  <property name="meta.media.1.stream.type">audio</property>
  <property name="meta.media.1.codec.sample_fmt">fltp</property>
  <property name="meta.media.1.codec.sample_rate">48000</property>
  <property name="meta.media.1.codec.channels">2</property>
  <property name="meta.media.1.codec.name">aac</property>
  <property name="meta.media.1.codec.long_name">AAC (Advanced Audio Coding)</property>
  <property name="meta.media.1.codec.bit_rate">256019</property>
  <property name="meta.attr.1.stream.creation_time.markup">2019-11-01T10:43:27.000000Z</property>
  <property name="meta.attr.1.stream.language.markup">eng</property>
  <property name="meta.attr.1.stream.handler_name.markup">SoundHandle</property>
  <property name="meta.attr.1.stream.vendor_id.markup">[0][0][0][0]</property>
  <property name="meta.attr.major_brand.markup">mp42</property>
  <property name="meta.attr.minor_version.markup">0</property>
  <property name="meta.attr.compatible_brands.markup">isommp42</property>
  <property name="meta.attr.creation_time.markup">2019-11-01T10:43:27.000000Z</property>
  <property name="seekable">1</property>
  <property name="meta.media.sample_aspect_num">1</property>
  <property name="meta.media.sample_aspect_den">1</property>
  <property name="audio_index">1</property>
  <property name="video_index">0</property>
  <property name="meta.media.frame_rate_num">126540000</property>
  <property name="meta.media.frame_rate_den">4238909</property>
  <property name="meta.media.colorspace">709</property>
  <property name="meta.media.color_trc">1</property>
  <property name="meta.media.has_b_frames">0</property>
  <property name="meta.media.width">1920</property>
  <property name="meta.media.height">1080</property>
  <property name="meta.media.color_range">mpeg</property>
  <property name="kdenlive:clipname"/>
  <property name="meta.media.variable_frame_rate">1</property>
  <property name="meta.media.top_field_first">0</property>
  <property name="meta.media.progressive">1</property>
  <property name="kdenlive:clip_type">0</property>
  <property name="kdenlive:folderid">-1</property>
  <property name="kdenlive:id">7</property>
  <property name="kdenlive:file_size">101138158</property>
  <property name="kdenlive:file_hash">b39463e5f78e98a74f2323af466f877c</property>
  <property name="kdenlive:audio_max1">162</property>
  <property name="kdenlive:zone_in">899</property>
  <property name="kdenlive:zone_out">977</property>
 </chain>
 <chain id="chain11" out="00:00:05.520">
  <property name="length">139</property>
  <property name="eof">pause</property>
  <property name="resource">20191102_220640.mp4</property>
  <property name="mlt_service">avformat-novalidate</property>
  <property name="meta.media.nb_streams">2</property>
  <property name="meta.media.0.stream.type">video</property>
  <property name="meta.media.0.stream.frame_rate">30.0266</property>
  <property name="meta.media.0.stream.sample_aspect_ratio">1</property>
  <property name="meta.media.0.codec.width">1920</property>
  <property name="meta.media.0.codec.height">1080</property>
  <property name="meta.media.0.codec.rotate">0</property>
  <property name="meta.media.0.codec.pix_fmt">yuv420p</property>
  <property name="meta.media.0.codec.sample_aspect_ratio">0</property>
  <property name="meta.media.0.codec.colorspace">709</property>
  <property name="meta.media.0.codec.color_trc">1</property>
  <property name="meta.media.0.codec.name">h264</property>
  <property name="meta.media.0.codec.long_name">H.264 / AVC / MPEG-4 AVC / MPEG-4 part 10</property>
  <property name="meta.media.0.codec.bit_rate">17082104</property>
  <property name="meta.attr.0.stream.creation_time.markup">2019-11-02T11:06:47.000000Z</property>
  <property name="meta.attr.0.stream.language.markup">eng</property>
  <property name="meta.attr.0.stream.handler_name.markup">VideoHandle</property>
  <property name="meta.attr.0.stream.vendor_id.markup">[0][0][0][0]</property>
  <property name="meta.media.1.stream.type">audio</property>
  <property name="meta.media.1.codec.sample_fmt">fltp</property>
  <property name="meta.media.1.codec.sample_rate">48000</property>
  <property name="meta.media.1.codec.channels">2</property>
  <property name="meta.media.1.codec.name">aac</property>
  <property name="meta.media.1.codec.long_name">AAC (Advanced Audio Coding)</property>
  <property name="meta.media.1.codec.bit_rate">256193</property>
  <property name="meta.attr.1.stream.creation_time.markup">2019-11-02T11:06:47.000000Z</property>
  <property name="meta.attr.1.stream.language.markup">eng</property>
  <property name="meta.attr.1.stream.handler_name.markup">SoundHandle</property>
  <property name="meta.attr.1.stream.vendor_id.markup">[0][0][0][0]</property>
  <property name="meta.attr.major_brand.markup">mp42</property>
  <property name="meta.attr.minor_version.markup">0</property>
  <property name="meta.attr.compatible_brands.markup">isommp42</property>
  <property name="meta.attr.creation_time.markup">2019-11-02T11:06:47.000000Z</property>
  <property name="seekable">1</property>
  <property name="meta.media.sample_aspect_num">1</property>
  <property name="meta.media.sample_aspect_den">1</property>
  <property name="audio_index">1</property>
  <property name="video_index">0</property>
  <property name="meta.media.frame_rate_num">1252500</property>
  <property name="meta.media.frame_rate_den">41713</property>
  <property name="meta.media.colorspace">709</property>
  <property name="meta.media.color_trc">1</property>
  <property name="meta.media.has_b_frames">0</property>
  <property name="meta.media.width">1920</property>
  <property name="meta.media.height">1080</property>
  <property name="meta.media.color_range">mpeg</property>
  <property name="kdenlive:clipname"/>
  <property name="meta.media.variable_frame_rate">1</property>
  <property name="meta.media.top_field_first">0</property>
  <property name="meta.media.progressive">1</property>
  <property name="kdenlive:clip_type">0</property>
  <property name="kdenlive:folderid">-1</property>
  <property name="kdenlive:id">8</property>
  <property name="kdenlive:file_size">12057411</property>
  <property name="kdenlive:file_hash">3deb4730077134a88446b65d7eaf23e4</property>
  <property name="kdenlive:audio_max1">155</property>
 </chain>
 <chain id="chain13" out="00:00:20.960">
  <property name="length">525</property>
  <property name="eof">pause</property>
  <property name="resource">20191102_220802.mp4</property>
  <property name="mlt_service">avformat-novalidate</property>
  <property name="meta.media.nb_streams">2</property>
  <property name="meta.media.0.stream.type">video</property>
  <property name="meta.media.0.stream.frame_rate">30.0286</property>
  <property name="meta.media.0.stream.sample_aspect_ratio">1</property>
  <property name="meta.media.0.codec.width">1920</property>
  <property name="meta.media.0.codec.height">1080</property>
  <property name="meta.media.0.codec.rotate">0</property>
  <property name="meta.media.0.codec.pix_fmt">yuv420p</property>
  <property name="meta.media.0.codec.sample_aspect_ratio">0</property>
  <property name="meta.media.0.codec.colorspace">709</property>
  <property name="meta.media.0.codec.color_trc">1</property>
  <property name="meta.media.0.codec.name">h264</property>
  <property name="meta.media.0.codec.long_name">H.264 / AVC / MPEG-4 AVC / MPEG-4 part 10</property>
  <property name="meta.media.0.codec.bit_rate">17014781</property>
  <property name="meta.attr.0.stream.creation_time.markup">2019-11-02T11:08:24.000000Z</property>
  <property name="meta.attr.0.stream.language.markup">eng</property>
  <property name="meta.attr.0.stream.handler_name.markup">VideoHandle</property>
  <property name="meta.attr.0.stream.vendor_id.markup">[0][0][0][0]</property>
  <property name="meta.media.1.stream.type">audio</property>
  <property name="meta.media.1.codec.sample_fmt">fltp</property>
  <property name="meta.media.1.codec.sample_rate">48000</property>
  <property name="meta.media.1.codec.channels">2</property>
  <property name="meta.media.1.codec.name">aac</property>
  <property name="meta.media.1.codec.long_name">AAC (Advanced Audio Coding)</property>
  <property name="meta.media.1.codec.bit_rate">255967</property>
  <property name="meta.attr.1.stream.creation_time.markup">2019-11-02T11:08:24.000000Z</property>
  <property name="meta.attr.1.stream.language.markup">eng</property>
  <property name="meta.attr.1.stream.handler_name.markup">SoundHandle</property>
  <property name="meta.attr.1.stream.vendor_id.markup">[0][0][0][0]</property>
  <property name="meta.attr.major_brand.markup">mp42</property>
  <property name="meta.attr.minor_version.markup">0</property>
  <property name="meta.attr.compatible_brands.markup">isommp42</property>
  <property name="meta.attr.creation_time.markup">2019-11-02T11:08:24.000000Z</property>
  <property name="seekable">1</property>
  <property name="meta.media.sample_aspect_num">1</property>
  <property name="meta.media.sample_aspect_den">1</property>
  <property name="audio_index">1</property>
  <property name="video_index">0</property>
  <property name="meta.media.frame_rate_num">28350000</property>
  <property name="meta.media.frame_rate_den">944101</property>
  <property name="meta.media.colorspace">709</property>
  <property name="meta.media.color_trc">1</property>
  <property name="meta.media.has_b_frames">0</property>
  <property name="meta.media.width">1920</property>
  <property name="meta.media.height">1080</property>
  <property name="meta.media.color_range">mpeg</property>
  <property name="kdenlive:clipname"/>
  <property name="meta.media.variable_frame_rate">1</property>
  <property name="meta.media.top_field_first">0</property>
  <property name="meta.media.progressive">1</property>
  <property name="kdenlive:clip_type">0</property>
  <property name="kdenlive:folderid">-1</property>
  <property name="kdenlive:id">9</property>
  <property name="kdenlive:file_size">45303850</property>
  <property name="kdenlive:file_hash">8e10cd253cabf9fc3076087c91d05783</property>
  <property name="kdenlive:audio_max1">159</property>
  <property name="kdenlive:zone_in">68</property>
  <property name="kdenlive:zone_out">524</property>
 </chain>
 <chain id="chain12" out="00:00:36.040">
  <property name="length">902</property>
  <property name="eof">pause</property>
  <property name="resource">20191102_220836.mp4</property>
  <property name="mlt_service">avformat-novalidate</property>
  <property name="meta.media.nb_streams">2</property>
  <property name="meta.media.0.stream.type">video</property>
  <property name="meta.media.0.stream.frame_rate">30.0203</property>
  <property name="meta.media.0.stream.sample_aspect_ratio">1</property>
  <property name="meta.media.0.codec.width">1920</property>
  <property name="meta.media.0.codec.height">1080</property>
  <property name="meta.media.0.codec.rotate">0</property>
  <property name="meta.media.0.codec.pix_fmt">yuv420p</property>
  <property name="meta.media.0.codec.sample_aspect_ratio">0</property>
  <property name="meta.media.0.codec.colorspace">709</property>
  <property name="meta.media.0.codec.color_trc">1</property>
  <property name="meta.media.0.codec.name">h264</property>
  <property name="meta.media.0.codec.long_name">H.264 / AVC / MPEG-4 AVC / MPEG-4 part 10</property>
  <property name="meta.media.0.codec.bit_rate">17026358</property>
  <property name="meta.attr.0.stream.creation_time.markup">2019-11-02T11:09:13.000000Z</property>
  <property name="meta.attr.0.stream.language.markup">eng</property>
  <property name="meta.attr.0.stream.handler_name.markup">VideoHandle</property>
  <property name="meta.attr.0.stream.vendor_id.markup">[0][0][0][0]</property>
  <property name="meta.media.1.stream.type">audio</property>
  <property name="meta.media.1.codec.sample_fmt">fltp</property>
  <property name="meta.media.1.codec.sample_rate">48000</property>
  <property name="meta.media.1.codec.channels">2</property>
  <property name="meta.media.1.codec.name">aac</property>
  <property name="meta.media.1.codec.long_name">AAC (Advanced Audio Coding)</property>
  <property name="meta.media.1.codec.bit_rate">256032</property>
  <property name="meta.attr.1.stream.creation_time.markup">2019-11-02T11:09:13.000000Z</property>
  <property name="meta.attr.1.stream.language.markup">eng</property>
  <property name="meta.attr.1.stream.handler_name.markup">SoundHandle</property>
  <property name="meta.attr.1.stream.vendor_id.markup">[0][0][0][0]</property>
  <property name="meta.attr.major_brand.markup">mp42</property>
  <property name="meta.attr.minor_version.markup">0</property>
  <property name="meta.attr.compatible_brands.markup">isommp42</property>
  <property name="meta.attr.creation_time.markup">2019-11-02T11:09:13.000000Z</property>
  <property name="seekable">1</property>
  <property name="meta.media.sample_aspect_num">1</property>
  <property name="meta.media.sample_aspect_den">1</property>
  <property name="audio_index">1</property>
  <property name="video_index">0</property>
  <property name="meta.media.frame_rate_num">243675</property>
  <property name="meta.media.frame_rate_den">8117</property>
  <property name="meta.media.colorspace">709</property>
  <property name="meta.media.color_trc">1</property>
  <property name="meta.media.has_b_frames">0</property>
  <property name="meta.media.width">1920</property>
  <property name="meta.media.height">1080</property>
  <property name="meta.media.color_range">mpeg</property>
  <property name="kdenlive:clipname"/>
  <property name="meta.media.variable_frame_rate">1</property>
  <property name="meta.media.top_field_first">0</property>
  <property name="meta.media.progressive">1</property>
  <property name="kdenlive:clip_type">0</property>
  <property name="kdenlive:folderid">-1</property>
  <property name="kdenlive:id">10</property>
  <property name="kdenlive:file_size">77952787</property>
  <property name="kdenlive:file_hash">9d8d78de9888bd57c6f5be654a63e21d</property>
  <property name="kdenlive:audio_max1">174</property>
 </chain>
 <chain id="chain7" out="00:00:46.320">
  <property name="length">1159</property>
  <property name="eof">pause</property>
  <property name="resource">Ambler.mp3</property>
  <property name="mlt_service">avformat</property>
  <property name="meta.media.nb_streams">1</property>
  <property name="meta.media.0.stream.type">audio</property>
  <property name="meta.media.0.codec.sample_fmt">fltp</property>
  <property name="meta.media.0.codec.sample_rate">44100</property>
  <property name="meta.media.0.codec.channels">2</property>
  <property name="meta.media.0.codec.name">mp3float</property>
  <property name="meta.media.0.codec.long_name">MP3 (MPEG audio layer 3)</property>
  <property name="meta.media.0.codec.bit_rate">280953</property>
  <property name="meta.attr.title.markup">Ambler</property>
  <property name="meta.attr.artist.markup">Kevin MacLeod</property>
  <property name="meta.attr.album.markup">Royalty Free</property>
  <property name="meta.attr.TT1.markup">Incompetech Game Pack 1</property>
  <property name="meta.attr.iTunSMPB.markup"> 00000000 00000210 00000B0F 00000000001F21E1 00000000 001C282A 00000000 00000000 00000000 00000000 00000000 00000000</property>
  <property name="meta.attr.TBP.markup">83</property>
  <property name="meta.attr.genre.markup">Video Game</property>
  <property name="meta.attr.comment.markup">ISRC: USUAN1300019</property>
  <property name="meta.attr.iTunPGAP.markup">0</property>
  <property name="meta.attr.encoded_by.markup">iTunes 11.0.1</property>
  <property name="meta.attr.iTunNORM.markup"> 00000C44 00000ED4 000084E3 000050D5 000083D6 00003A0F 00007BA6 00007BA6 0000004E 00000153</property>
  <property name="meta.attr.date.markup">2013</property>
  <property name="seekable">1</property>
  <property name="audio_index">0</property>
  <property name="video_index">-1</property>
  <property name="kdenlive:clipname"/>
  <property name="kdenlive:clip_type">1</property>
  <property name="kdenlive:folderid">-1</property>
  <property name="kdenlive:id">11</property>
  <property name="kdenlive:file_size">1629722</property>
  <property name="kdenlive:file_hash">4a69df1370c8662545324b2b8ad6feb0</property>
  <property name="kdenlive:audio_max0">231</property>
 </chain>
 <chain id="chain8" out="00:01:50.880">
  <property name="length">2773</property>
  <property name="eof">pause</property>
  <property name="resource">Anxiety.mp3</property>
  <property name="mlt_service">avformat-novalidate</property>
  <property name="meta.media.nb_streams">2</property>
  <property name="meta.media.0.stream.type">audio</property>
  <property name="meta.media.0.codec.sample_fmt">fltp</property>
  <property name="meta.media.0.codec.sample_rate">44100</property>
  <property name="meta.media.0.codec.channels">2</property>
  <property name="meta.media.0.codec.name">mp3float</property>
  <property name="meta.media.0.codec.long_name">MP3 (MPEG audio layer 3)</property>
  <property name="meta.media.0.codec.bit_rate">317298</property>
  <property name="meta.media.1.stream.type">video</property>
  <property name="meta.media.1.stream.frame_rate">90000</property>
  <property name="meta.media.1.stream.sample_aspect_ratio">0</property>
  <property name="meta.media.1.codec.width">400</property>
  <property name="meta.media.1.codec.height">400</property>
  <property name="meta.media.1.codec.rotate">0</property>
  <property name="meta.media.1.codec.pix_fmt">yuvj444p</property>
  <property name="meta.media.1.codec.sample_aspect_ratio">1</property>
  <property name="meta.media.1.codec.colorspace">601</property>
  <property name="meta.media.1.codec.name">mjpeg</property>
  <property name="meta.media.1.codec.long_name">MJPEG (Motion JPEG)</property>
  <property name="meta.media.1.codec.bit_rate">0</property>
  <property name="meta.attr.1.stream.comment.markup">Other</property>
  <property name="meta.attr.title.markup">Anxiety</property>
  <property name="meta.attr.artist.markup">Kevin MacLeod</property>
  <property name="meta.attr.album.markup">Scoring: Horror Themes</property>
  <property name="meta.attr.genre.markup">Horror</property>
  <property name="meta.attr.comment.markup">incompetech.com</property>
  <property name="meta.attr.iTunPGAP.markup">0</property>
  <property name="meta.attr.encoded_by.markup">iTunes v7.0.0.70</property>
  <property name="meta.attr.iTunNORM.markup"> 00000015 00000010 00000135 000000FB 00009239 0000A7C1 00005E01 00003BFE 00009287 0000A139</property>
  <property name="meta.attr.iTunSMPB.markup"> 00000000 00000210 00000A64 00000000004A920C 00000000 0043062F 00000000 00000000 00000000 00000000 00000000 00000000</property>
  <property name="meta.attr.TCM.markup">Kevin MacLeod</property>
  <property name="meta.attr.date.markup">2005</property>
  <property name="seekable">1</property>
  <property name="meta.media.sample_aspect_num">72</property>
  <property name="meta.media.sample_aspect_den">72</property>
  <property name="audio_index">0</property>
  <property name="video_index">1</property>
  <property name="meta.media.frame_rate_num">90000</property>
  <property name="meta.media.frame_rate_den">1</property>
  <property name="meta.media.colorspace">601</property>
  <property name="meta.media.color_trc">2</property>
  <property name="meta.media.has_b_frames">0</property>
  <property name="meta.media.width">400</property>
  <property name="meta.media.height">400</property>
  <property name="meta.media.color_range">full</property>
  <property name="kdenlive:clipname"/>
  <property name="meta.media.top_field_first">0</property>
  <property name="meta.media.progressive">1</property>
  <property name="kdenlive:clip_type">0</property>
  <property name="kdenlive:folderid">-1</property>
  <property name="kdenlive:id">12</property>
  <property name="kdenlive:file_size">4506292</property>
  <property name="kdenlive:file_hash">043790ba275ca9478a5432a093dd60b1</property>
  <property name="kdenlive:audio_max0">227</property>
 </chain>
 <chain id="chain42" out="00:00:31.280">
  <property name="length">783</property>
  <property name="eof">pause</property>
  <property name="resource">Creepy Closing Door Sound - Front Door Sound Effect [8u7my5BfVgw].webm</property>
  <property name="mlt_service">avformat</property>
  <property name="meta.media.nb_streams">1</property>
  <property name="meta.media.0.stream.type">audio</property>
  <property name="meta.media.0.codec.sample_fmt">fltp</property>
  <property name="meta.media.0.codec.sample_rate">48000</property>
  <property name="meta.media.0.codec.channels">2</property>
  <property name="meta.media.0.codec.name">opus</property>
  <property name="meta.media.0.codec.long_name">Opus</property>
  <property name="meta.media.0.codec.bit_rate">0</property>
  <property name="meta.attr.0.stream.language.markup">eng</property>
  <property name="meta.attr.encoder.markup">google</property>
  <property name="seekable">1</property>
  <property name="audio_index">0</property>
  <property name="video_index">-1</property>
  <property name="kdenlive:clipname"/>
  <property name="kdenlive:clip_type">1</property>
  <property name="kdenlive:proxy">-</property>
  <property name="kdenlive:originalurl">Creepy Closing Door Sound - Front Door Sound Effect [8u7my5BfVgw].webm</property>
  <property name="kdenlive:id">13</property>
  <property name="kdenlive:file_size">535905</property>
  <property name="kdenlive:file_hash">bf90861be430609fdad2c2191c7e286d</property>
  <property name="kdenlive:folderid">-1</property>
  <property name="kdenlive:audio_max0">256</property>
 </chain>
 <chain id="chain10" out="00:03:58.640">
  <property name="length">5967</property>
  <property name="eof">pause</property>
  <property name="resource">Darkest Child.mp3</property>
  <property name="mlt_service">avformat</property>
  <property name="meta.media.nb_streams">1</property>
  <property name="meta.media.0.stream.type">audio</property>
  <property name="meta.media.0.codec.sample_fmt">fltp</property>
  <property name="meta.media.0.codec.sample_rate">44100</property>
  <property name="meta.media.0.codec.channels">2</property>
  <property name="meta.media.0.codec.name">mp3float</property>
  <property name="meta.media.0.codec.long_name">MP3 (MPEG audio layer 3)</property>
  <property name="meta.media.0.codec.bit_rate">287880</property>
  <property name="meta.attr.TSS.markup">Logic Pro 9.1.3</property>
  <property name="meta.attr.iTunNORM.markup"> 000008AE 00000407 000034CE 00001D2E 0002CE43 00021DF0 00007E86 00006BA7 0001A87D 00014949</property>
  <property name="meta.attr.iTunSMPB.markup"> 00000000 00000210 00000B0F 0000000000A08F61 00000000 00918D3A 00000000 00000000 00000000 00000000 00000000 00000000</property>
  <property name="meta.attr.title.markup">Darkest Child</property>
  <property name="meta.attr.artist.markup">Kevin MacLeod</property>
  <property name="meta.attr.TCM.markup">Kevin MacLeod</property>
  <property name="meta.attr.album.markup">Royalty Free</property>
  <property name="meta.attr.date.markup">2011</property>
  <property name="seekable">1</property>
  <property name="audio_index">0</property>
  <property name="video_index">-1</property>
  <property name="kdenlive:clipname"/>
  <property name="kdenlive:clip_type">1</property>
  <property name="kdenlive:folderid">-1</property>
  <property name="kdenlive:id">14</property>
  <property name="kdenlive:file_size">8593021</property>
  <property name="kdenlive:file_hash">520ae13106923a932f73431bcde91fd7</property>
  <property name="kdenlive:audio_max0">217</property>
 </chain>
 <chain id="chain26" out="00:00:02.920">
  <property name="length">74</property>
  <property name="eof">pause</property>
  <property name="resource">Ding - Sound Effect (HD) [GVAF07-2Xic].webm</property>
  <property name="mlt_service">avformat</property>
  <property name="meta.media.nb_streams">1</property>
  <property name="meta.media.0.stream.type">audio</property>
  <property name="meta.media.0.codec.sample_fmt">fltp</property>
  <property name="meta.media.0.codec.sample_rate">48000</property>
  <property name="meta.media.0.codec.channels">2</property>
  <property name="meta.media.0.codec.name">opus</property>
  <property name="meta.media.0.codec.long_name">Opus</property>
  <property name="meta.media.0.codec.bit_rate">0</property>
  <property name="meta.attr.0.stream.language.markup">eng</property>
  <property name="meta.attr.encoder.markup">google/video-file</property>
  <property name="seekable">1</property>
  <property name="audio_index">0</property>
  <property name="video_index">-1</property>
  <property name="kdenlive:clipname"/>
  <property name="kdenlive:clip_type">1</property>
  <property name="kdenlive:proxy">-</property>
  <property name="kdenlive:originalurl">Ding - Sound Effect (HD) [GVAF07-2Xic].webm</property>
  <property name="kdenlive:id">15</property>
  <property name="kdenlive:file_size">45699</property>
  <property name="kdenlive:file_hash">45ad106d76f25fc112076902a9d950a0</property>
  <property name="kdenlive:folderid">-1</property>
  <property name="kdenlive:audio_max0">178</property>
 </chain>
 <producer id="producer4" in="00:00:00.000" out="00:00:04.960">
  <property name="length">00:00:05.000</property>
  <property name="eof">pause</property>
  <property name="resource">download1.png</property>
  <property name="ttl">25</property>
  <property name="aspect_ratio">1</property>
  <property name="meta.media.progressive">1</property>
  <property name="seekable">1</property>
  <property name="format">1</property>
  <property name="meta.media.width">225</property>
  <property name="meta.media.height">225</property>
  <property name="mlt_service">qimage</property>
  <property name="progressive">1</property>
  <property name="kdenlive:clipname"/>
  <property name="kdenlive:duration">00:00:05:00</property>
  <property name="kdenlive:folderid">-1</property>
  <property name="kdenlive:id">16</property>
  <property name="kdenlive:clip_type">2</property>
  <property name="kdenlive:file_size">1182</property>
  <property name="kdenlive:file_hash">5420ea91533d46284c9ee0cdd5900ec8</property>
 </producer>
 <chain id="chain15" out="00:01:05.960">
  <property name="length">1650</property>
  <property name="eof">pause</property>
  <property name="resource">Halloween Pumpkin green screen - free use [meotS5WHfD8].webm</property>
  <property name="mlt_service">avformat-novalidate</property>
  <property name="meta.media.nb_streams">2</property>
  <property name="meta.media.0.stream.type">video</property>
  <property name="meta.media.0.stream.frame_rate">29.97</property>
  <property name="meta.media.0.stream.sample_aspect_ratio">1</property>
  <property name="meta.media.0.codec.width">1920</property>
  <property name="meta.media.0.codec.height">1080</property>
  <property name="meta.media.0.codec.rotate">0</property>
  <property name="meta.media.0.codec.pix_fmt">yuv420p</property>
  <property name="meta.media.0.codec.sample_aspect_ratio">0</property>
  <property name="meta.media.0.codec.colorspace">709</property>
  <property name="meta.media.0.codec.color_trc">1</property>
  <property name="meta.media.0.codec.name">vp9</property>
  <property name="meta.media.0.codec.long_name">Google VP9</property>
  <property name="meta.media.0.codec.bit_rate">0</property>
  <property name="meta.attr.0.stream.language.markup">eng</property>
  <property name="meta.attr.0.stream.DURATION.markup">00:01:05.932000000</property>
  <property name="meta.media.1.stream.type">audio</property>
  <property name="meta.media.1.codec.sample_fmt">fltp</property>
  <property name="meta.media.1.codec.sample_rate">48000</property>
  <property name="meta.media.1.codec.channels">2</property>
  <property name="meta.media.1.codec.name">opus</property>
  <property name="meta.media.1.codec.long_name">Opus</property>
  <property name="meta.media.1.codec.bit_rate">0</property>
  <property name="meta.attr.1.stream.language.markup">eng</property>
  <property name="meta.attr.1.stream.DURATION.markup">00:01:06.008000000</property>
  <property name="meta.attr.ENCODER.markup">Lavf60.9.100</property>
  <property name="seekable">1</property>
  <property name="meta.media.sample_aspect_num">1</property>
  <property name="meta.media.sample_aspect_den">1</property>
  <property name="audio_index">1</property>
  <property name="video_index">0</property>
  <property name="meta.media.frame_rate_num">30000</property>
  <property name="meta.media.frame_rate_den">1001</property>
  <property name="meta.media.colorspace">709</property>
  <property name="meta.media.color_trc">1</property>
  <property name="meta.media.has_b_frames">0</property>
  <property name="meta.media.width">1920</property>
  <property name="meta.media.height">1080</property>
  <property name="meta.media.color_range">mpeg</property>
  <property name="kdenlive:clipname"/>
  <property name="meta.media.top_field_first">0</property>
  <property name="meta.media.progressive">1</property>
  <property name="kdenlive:clip_type">0</property>
  <property name="kdenlive:folderid">-1</property>
  <property name="kdenlive:id">17</property>
  <property name="kdenlive:file_size">4646169</property>
  <property name="kdenlive:file_hash">568c007e55f6090726143e31f347d1d8</property>
  <property name="kdenlive:audio_max1">197</property>
  <property name="kdenlive:zone_in">209</property>
  <property name="kdenlive:zone_out">1434</property>
 </chain>
 <chain id="chain17" out="00:05:01.960">
  <property name="length">7550</property>
  <property name="eof">pause</property>
  <property name="resource">Happy Bee.mp3</property>
  <property name="mlt_service">avformat</property>
  <property name="meta.media.nb_streams">1</property>
  <property name="meta.media.0.stream.type">audio</property>
  <property name="meta.media.0.codec.sample_fmt">fltp</property>
  <property name="meta.media.0.codec.sample_rate">44100</property>
  <property name="meta.media.0.codec.channels">2</property>
  <property name="meta.media.0.codec.name">mp3float</property>
  <property name="meta.media.0.codec.long_name">MP3 (MPEG audio layer 3)</property>
  <property name="meta.media.0.codec.bit_rate">285819</property>
  <property name="meta.attr.title.markup">Happy Bee</property>
  <property name="meta.attr.artist.markup">Kevin MacLeod</property>
  <property name="meta.attr.TCM.markup">Kevin MacLeod</property>
  <property name="meta.attr.album.markup">Royalty Free</property>
  <property name="meta.attr.iTunSMPB.markup"> 00000000 00000210 00000956 0000000000CB2D1A 00000000 00B8331A 00000000 00000000 00000000 00000000 00000000 00000000</property>
  <property name="meta.attr.TBP.markup">122</property>
  <property name="meta.attr.genre.markup">Rock</property>
  <property name="meta.attr.iTunPGAP.markup">0</property>
  <property name="meta.attr.encoded_by.markup">iTunes 11.0.1</property>
  <property name="meta.attr.iTunNORM.markup"> 000008E3 00001DFD 00005BB3 00015ADE 0002D153 00035078 00007FFF 00007FFF 000001D6 000002C1</property>
  <property name="meta.attr.date.markup">2013</property>
  <property name="seekable">1</property>
  <property name="audio_index">0</property>
  <property name="video_index">-1</property>
  <property name="kdenlive:clipname"/>
  <property name="kdenlive:clip_type">1</property>
  <property name="kdenlive:folderid">-1</property>
  <property name="kdenlive:id">18</property>
  <property name="kdenlive:file_size">10791945</property>
  <property name="kdenlive:file_hash">6ceab29a973028bc0e41817e84ba2148</property>
  <property name="kdenlive:audio_max0">241</property>
 </chain>
 <chain id="chain16" out="00:00:53.840">
  <property name="length">1347</property>
  <property name="eof">pause</property>
  <property name="resource">Happy Boy End Theme.mp3</property>
  <property name="mlt_service">avformat</property>
  <property name="meta.media.nb_streams">1</property>
  <property name="meta.media.0.stream.type">audio</property>
  <property name="meta.media.0.codec.sample_fmt">fltp</property>
  <property name="meta.media.0.codec.sample_rate">44100</property>
  <property name="meta.media.0.codec.channels">2</property>
  <property name="meta.media.0.codec.name">mp3float</property>
  <property name="meta.media.0.codec.long_name">MP3 (MPEG audio layer 3)</property>
  <property name="meta.media.0.codec.bit_rate">272212</property>
  <property name="meta.attr.TSS.markup">Logic Pro 8.0.2</property>
  <property name="meta.attr.iTunNORM.markup"> 000002C9 000002BE 00001591 0000147B 00004B82 00009287 00007AA8 00008264 0000A2C1 0000A2A7</property>
  <property name="meta.attr.iTunSMPB.markup"> 00000000 00000210 00000962 000000000024380E 00000000 0020C3C2 00000000 00000000 00000000 00000000 00000000 00000000</property>
  <property name="meta.attr.genre.markup">Soundtrack</property>
  <property name="meta.attr.album.markup">Royalty Free</property>
  <property name="meta.attr.TKE.markup">C</property>
  <property name="meta.attr.TBP.markup">134</property>
  <property name="meta.attr.title.markup">Happy Boy End Theme</property>
  <property name="meta.attr.artist.markup">Kevin MacLeod</property>
  <property name="meta.attr.TCM.markup">Kevin MacLeod</property>
  <property name="meta.attr.date.markup">2009-11-28 04:17</property>
  <property name="seekable">1</property>
  <property name="audio_index">0</property>
  <property name="video_index">-1</property>
  <property name="kdenlive:clipname"/>
  <property name="kdenlive:clip_type">1</property>
  <property name="kdenlive:folderid">-1</property>
  <property name="kdenlive:id">19</property>
  <property name="kdenlive:file_size">1837802</property>
  <property name="kdenlive:file_hash">0dd1bb36176f65cf61a71d7054f02f54</property>
  <property name="kdenlive:audio_max0">227</property>
  <property name="kdenlive:zone_in">84</property>
  <property name="kdenlive:zone_out">1346</property>
 </chain>
 <chain id="chain18" out="00:00:27.920">
  <property name="length">699</property>
  <property name="eof">pause</property>
  <property name="resource">Horror Sound Effect - Creaking Door Open.mp3</property>
  <property name="mlt_service">avformat</property>
  <property name="meta.media.nb_streams">1</property>
  <property name="meta.media.0.stream.type">audio</property>
  <property name="meta.media.0.codec.sample_fmt">fltp</property>
  <property name="meta.media.0.codec.sample_rate">44100</property>
  <property name="meta.media.0.codec.channels">2</property>
  <property name="meta.media.0.codec.name">mp3float</property>
  <property name="meta.media.0.codec.long_name">MP3 (MPEG audio layer 3)</property>
  <property name="meta.media.0.codec.bit_rate">293232</property>
  <property name="meta.attr.major_brand.markup">mp42</property>
  <property name="meta.attr.minor_version.markup">0</property>
  <property name="meta.attr.compatible_brands.markup">isommp42</property>
  <property name="meta.attr.encoder.markup">Lavf58.27.103</property>
  <property name="seekable">1</property>
  <property name="audio_index">0</property>
  <property name="video_index">-1</property>
  <property name="kdenlive:clipname"/>
  <property name="kdenlive:clip_type">1</property>
  <property name="kdenlive:folderid">-1</property>
  <property name="kdenlive:id">20</property>
  <property name="kdenlive:file_size">1026390</property>
  <property name="kdenlive:file_hash">5d9af876862db66a93e4b346a254cac0</property>
  <property name="kdenlive:audio_max0">178</property>
  <property name="kdenlive:zone_in">67</property>
  <property name="kdenlive:zone_out">698</property>
 </chain>
 <chain id="chain19" out="00:00:15.280">
  <property name="length">383</property>
  <property name="eof">pause</property>
  <property name="resource">KnockHalloween.m4a</property>
  <property name="mlt_service">avformat</property>
  <property name="meta.media.nb_streams">1</property>
  <property name="meta.media.0.stream.type">audio</property>
  <property name="meta.media.0.codec.sample_fmt">fltp</property>
  <property name="meta.media.0.codec.sample_rate">48000</property>
  <property name="meta.media.0.codec.channels">1</property>
  <property name="meta.media.0.codec.name">aac</property>
  <property name="meta.media.0.codec.long_name">AAC (Advanced Audio Coding)</property>
  <property name="meta.media.0.codec.bit_rate">255999</property>
  <property name="meta.attr.0.stream.creation_time.markup">2019-10-31T09:29:30.000000Z</property>
  <property name="meta.attr.0.stream.language.markup">eng</property>
  <property name="meta.attr.0.stream.handler_name.markup">SoundHandle</property>
  <property name="meta.attr.0.stream.vendor_id.markup">[0][0][0][0]</property>
  <property name="meta.attr.major_brand.markup">3gp4</property>
  <property name="meta.attr.minor_version.markup">0</property>
  <property name="meta.attr.compatible_brands.markup">isom3gp4</property>
  <property name="meta.attr.creation_time.markup">2019-10-31T09:29:30.000000Z</property>
  <property name="meta.attr.com.android.version.markup">9</property>
  <property name="seekable">1</property>
  <property name="audio_index">0</property>
  <property name="video_index">-1</property>
  <property name="kdenlive:clipname"/>
  <property name="kdenlive:clip_type">1</property>
  <property name="kdenlive:folderid">-1</property>
  <property name="kdenlive:id">21</property>
  <property name="kdenlive:file_size">526199</property>
  <property name="kdenlive:file_hash">05357b379d4b1b1d5bf3687136566790</property>
  <property name="kdenlive:audio_max0">201</property>
  <property name="kdenlive:zone_in">144</property>
  <property name="kdenlive:zone_out">382</property>
 </chain>
 <chain id="chain21" out="00:00:03.000">
  <property name="length">76</property>
  <property name="eof">pause</property>
  <property name="resource">Record Scratch - Sound Effect (HD).mp3</property>
  <property name="mlt_service">avformat</property>
  <property name="meta.media.nb_streams">1</property>
  <property name="meta.media.0.stream.type">audio</property>
  <property name="meta.media.0.codec.sample_fmt">fltp</property>
  <property name="meta.media.0.codec.sample_rate">44100</property>
  <property name="meta.media.0.codec.channels">2</property>
  <property name="meta.media.0.codec.name">mp3float</property>
  <property name="meta.media.0.codec.long_name">MP3 (MPEG audio layer 3)</property>
  <property name="meta.media.0.codec.bit_rate">142278</property>
  <property name="meta.attr.major_brand.markup">mp42</property>
  <property name="meta.attr.minor_version.markup">0</property>
  <property name="meta.attr.compatible_brands.markup">isommp42</property>
  <property name="meta.attr.encoder.markup">Lavf57.19.100</property>
  <property name="seekable">1</property>
  <property name="audio_index">0</property>
  <property name="video_index">-1</property>
  <property name="kdenlive:clipname"/>
  <property name="kdenlive:clip_type">1</property>
  <property name="kdenlive:folderid">-1</property>
  <property name="kdenlive:id">22</property>
  <property name="kdenlive:file_size">54494</property>
  <property name="kdenlive:file_hash">b1b926b2f6f27e00a1be13534e85be06</property>
  <property name="kdenlive:audio_max0">256</property>
  <property name="kdenlive:zone_in">11</property>
  <property name="kdenlive:zone_out">75</property>
 </chain>
 <chain id="chain22" out="00:04:22.440">
  <property name="length">6562</property>
  <property name="eof">pause</property>
  <property name="resource">Right Behind You.mp3</property>
  <property name="mlt_service">avformat</property>
  <property name="meta.media.nb_streams">1</property>
  <property name="meta.media.0.stream.type">audio</property>
  <property name="meta.media.0.codec.sample_fmt">fltp</property>
  <property name="meta.media.0.codec.sample_rate">48000</property>
  <property name="meta.media.0.codec.channels">2</property>
  <property name="meta.media.0.codec.name">mp3float</property>
  <property name="meta.media.0.codec.long_name">MP3 (MPEG audio layer 3)</property>
  <property name="meta.media.0.codec.bit_rate">287830</property>
  <property name="meta.attr.iTunPGAP.markup">0</property>
  <property name="meta.attr.encoded_by.markup">iTunes 9.1.1</property>
  <property name="meta.attr.iTunNORM.markup"> 000002C7 0000030D 00004D11 000059CE 00029F70 0002A060 00007486 00007EDE 00039A80 00029F88</property>
  <property name="meta.attr.iTunSMPB.markup"> 00000000 00000210 000009F0 0000000000C03000 00000000 00A01400 00000000 00000000 00000000 00000000 00000000 00000000</property>
  <property name="meta.attr.title.markup">Right Behind You</property>
  <property name="meta.attr.artist.markup">Kevin MacLeod</property>
  <property name="meta.attr.TCM.markup">Kevin MacLeod</property>
  <property name="meta.attr.album.markup">Royalty Free</property>
  <property name="meta.attr.date.markup">2010</property>
  <property name="seekable">1</property>
  <property name="audio_index">0</property>
  <property name="video_index">-1</property>
  <property name="kdenlive:clipname"/>
  <property name="kdenlive:clip_type">1</property>
  <property name="kdenlive:folderid">-1</property>
  <property name="kdenlive:id">23</property>
  <property name="kdenlive:file_size">9445243</property>
  <property name="kdenlive:file_hash">d3c8ae1e7c451b5e070d6dfe7e0e10d3</property>
  <property name="kdenlive:audio_max0">209</property>
  <property name="kdenlive:zone_in">30</property>
  <property name="kdenlive:zone_out">466</property>
 </chain>
 <chain id="chain41" out="00:03:26.920">
  <property name="length">5174</property>
  <property name="eof">pause</property>
  <property name="resource">Sad Emotional Piano Music - Gaming Background Music (HD) [i3MJ5loj0Bg].webm</property>
  <property name="mlt_service">avformat</property>
  <property name="meta.media.nb_streams">1</property>
  <property name="meta.media.0.stream.type">audio</property>
  <property name="meta.media.0.codec.sample_fmt">fltp</property>
  <property name="meta.media.0.codec.sample_rate">48000</property>
  <property name="meta.media.0.codec.channels">2</property>
  <property name="meta.media.0.codec.name">opus</property>
  <property name="meta.media.0.codec.long_name">Opus</property>
  <property name="meta.media.0.codec.bit_rate">0</property>
  <property name="meta.attr.0.stream.language.markup">eng</property>
  <property name="meta.attr.encoder.markup">google/video-file</property>
  <property name="seekable">1</property>
  <property name="audio_index">0</property>
  <property name="video_index">-1</property>
  <property name="kdenlive:clipname"/>
  <property name="kdenlive:clip_type">1</property>
  <property name="kdenlive:proxy">-</property>
  <property name="kdenlive:originalurl">Sad Emotional Piano Music - Gaming Background Music (HD) [i3MJ5loj0Bg].webm</property>
  <property name="kdenlive:id">24</property>
  <property name="kdenlive:file_size">3800449</property>
  <property name="kdenlive:file_hash">bb3c214777e09a8d462ef4865545470a</property>
  <property name="kdenlive:folderid">-1</property>
  <property name="kdenlive:audio_max0">210</property>
 </chain>
 <producer id="producer13" in="00:00:00.000" out="00:00:04.960">
  <property name="length">00:00:05.000</property>
  <property name="eof">pause</property>
  <property name="resource">Slaid47.svg</property>
  <property name="ttl">25</property>
  <property name="aspect_ratio">1</property>
  <property name="meta.media.progressive">1</property>
  <property name="seekable">1</property>
  <property name="format">1</property>
  <property name="meta.media.width">1280</property>
  <property name="meta.media.height">720</property>
  <property name="mlt_service">qimage</property>
  <property name="progressive">1</property>
  <property name="kdenlive:clipname">Slaid47.svg</property>
  <property name="kdenlive:duration">00:00:05.000</property>
  <property name="kdenlive:folderid">-1</property>
  <property name="kdenlive:id">25</property>
  <property name="kdenlive:clip_type">2</property>
  <property name="kdenlive:file_size">16704</property>
  <property name="kdenlive:originalurl">Slaid47.svg</property>
  <property name="kdenlive:proxy">-</property>
  <property name="kdenlive:file_hash">b750dac851fcd96c6f6a07192dbf38fe</property>
 </producer>
 <chain id="chain24" out="00:00:14.960">
  <property name="length">375</property>
  <property name="eof">pause</property>
  <property name="resource">Slender Mans Static Noise.ogg</property>
  <property name="mlt_service">avformat</property>
  <property name="meta.media.nb_streams">1</property>
  <property name="meta.media.0.stream.type">audio</property>
  <property name="meta.media.0.codec.sample_fmt">fltp</property>
  <property name="meta.media.0.codec.sample_rate">48000</property>
  <property name="meta.media.0.codec.channels">2</property>
  <property name="meta.media.0.codec.name">opus</property>
  <property name="meta.media.0.codec.long_name">Opus</property>
  <property name="meta.media.0.codec.bit_rate">0</property>
  <property name="seekable">1</property>
  <property name="audio_index">0</property>
  <property name="video_index">-1</property>
  <property name="kdenlive:clipname"/>
  <property name="kdenlive:clip_type">1</property>
  <property name="kdenlive:folderid">-1</property>
  <property name="kdenlive:id">26</property>
  <property name="kdenlive:file_size">118444</property>
  <property name="kdenlive:file_hash">63816bef7831a7977dec3d119b7bd5ee</property>
  <property name="kdenlive:audio_max0">203</property>
  <property name="kdenlive:zone_in">0</property>
  <property name="kdenlive:zone_out">16</property>
 </chain>
 <chain id="chain25" out="00:00:10.480">
  <property name="length">263</property>
  <property name="eof">pause</property>
  <property name="resource">Sound effects ｜ Crickets at night [eaj8W6nPKUg].webm</property>
  <property name="mlt_service">avformat</property>
  <property name="meta.media.nb_streams">1</property>
  <property name="meta.media.0.stream.type">audio</property>
  <property name="meta.media.0.codec.sample_fmt">fltp</property>
  <property name="meta.media.0.codec.sample_rate">48000</property>
  <property name="meta.media.0.codec.channels">2</property>
  <property name="meta.media.0.codec.name">opus</property>
  <property name="meta.media.0.codec.long_name">Opus</property>
  <property name="meta.media.0.codec.bit_rate">0</property>
  <property name="meta.attr.0.stream.language.markup">eng</property>
  <property name="meta.attr.encoder.markup">google</property>
  <property name="seekable">1</property>
  <property name="audio_index">0</property>
  <property name="video_index">-1</property>
  <property name="kdenlive:clipname"/>
  <property name="kdenlive:clip_type">1</property>
  <property name="kdenlive:proxy">-</property>
  <property name="kdenlive:originalurl">Sound effects ｜ Crickets at night [eaj8W6nPKUg].webm</property>
  <property name="kdenlive:id">27</property>
  <property name="kdenlive:file_size">169008</property>
  <property name="kdenlive:file_hash">588e36cb26f9ebeff189f8ed867ceb88</property>
  <property name="kdenlive:folderid">-1</property>
  <property name="kdenlive:audio_max0">127</property>
 </chain>
 <chain id="chain27" out="00:00:39.760">
  <property name="length">995</property>
  <property name="eof">pause</property>
  <property name="resource">Spooky Scary Skeletons Green Screen with song [9X-fSQJyr4E].webm</property>
  <property name="mlt_service">avformat-novalidate</property>
  <property name="meta.media.nb_streams">1</property>
  <property name="meta.media.0.stream.type">video</property>
  <property name="meta.media.0.stream.frame_rate">29.97</property>
  <property name="meta.media.0.stream.sample_aspect_ratio">1</property>
  <property name="meta.media.0.codec.width">1280</property>
  <property name="meta.media.0.codec.height">720</property>
  <property name="meta.media.0.codec.rotate">0</property>
  <property name="meta.media.0.codec.pix_fmt">yuv420p</property>
  <property name="meta.media.0.codec.sample_aspect_ratio">0</property>
  <property name="meta.media.0.codec.colorspace">709</property>
  <property name="meta.media.0.codec.color_trc">1</property>
  <property name="meta.media.0.codec.name">vp9</property>
  <property name="meta.media.0.codec.long_name">Google VP9</property>
  <property name="meta.media.0.codec.bit_rate">0</property>
  <property name="meta.attr.0.stream.language.markup">eng</property>
  <property name="meta.attr.encoder.markup">google/video-file</property>
  <property name="seekable">1</property>
  <property name="meta.media.sample_aspect_num">1</property>
  <property name="meta.media.sample_aspect_den">1</property>
  <property name="audio_index">-1</property>
  <property name="video_index">0</property>
  <property name="meta.media.frame_rate_num">30000</property>
  <property name="meta.media.frame_rate_den">1001</property>
  <property name="meta.media.colorspace">709</property>
  <property name="meta.media.color_trc">1</property>
  <property name="meta.media.has_b_frames">0</property>
  <property name="meta.media.width">1280</property>
  <property name="meta.media.height">720</property>
  <property name="meta.media.color_range">mpeg</property>
  <property name="kdenlive:clipname"/>
  <property name="meta.media.top_field_first">0</property>
  <property name="meta.media.progressive">1</property>
  <property name="kdenlive:clip_type">2</property>
  <property name="kdenlive:folderid">-1</property>
  <property name="kdenlive:id">28</property>
  <property name="kdenlive:file_size">4187134</property>
  <property name="kdenlive:file_hash">752b9895a55acb64d001aad2ceade411</property>
 </chain>
 <chain id="chain28" out="00:00:07.000">
  <property name="length">176</property>
  <property name="eof">pause</property>
  <property name="resource">Thunder   Sound effect.mp3</property>
  <property name="mlt_service">avformat</property>
  <property name="meta.media.nb_streams">1</property>
  <property name="meta.media.0.stream.type">audio</property>
  <property name="meta.media.0.codec.sample_fmt">fltp</property>
  <property name="meta.media.0.codec.sample_rate">44100</property>
  <property name="meta.media.0.codec.channels">2</property>
  <property name="meta.media.0.codec.name">mp3float</property>
  <property name="meta.media.0.codec.long_name">MP3 (MPEG audio layer 3)</property>
  <property name="meta.media.0.codec.bit_rate">299573</property>
  <property name="meta.attr.major_brand.markup">mp42</property>
  <property name="meta.attr.minor_version.markup">0</property>
  <property name="meta.attr.compatible_brands.markup">isommp42</property>
  <property name="meta.attr.encoder.markup">Lavf58.27.103</property>
  <property name="seekable">1</property>
  <property name="audio_index">0</property>
  <property name="video_index">-1</property>
  <property name="kdenlive:clipname"/>
  <property name="kdenlive:clip_type">1</property>
  <property name="kdenlive:folderid">-1</property>
  <property name="kdenlive:id">29</property>
  <property name="kdenlive:file_size">264251</property>
  <property name="kdenlive:file_hash">729509cbbf1e067f46d22914575abc27</property>
  <property name="kdenlive:audio_max0">237</property>
  <property name="kdenlive:zone_in">15</property>
  <property name="kdenlive:zone_out">24</property>
 </chain>
 <producer id="producer6" in="00:00:00.000" out="00:00:04.960">
  <property name="length">00:00:05.000</property>
  <property name="eof">pause</property>
  <property name="resource">Tips2.png</property>
  <property name="ttl">25</property>
  <property name="aspect_ratio">1</property>
  <property name="meta.media.progressive">1</property>
  <property name="seekable">1</property>
  <property name="format">1</property>
  <property name="meta.media.width">1920</property>
  <property name="meta.media.height">1080</property>
  <property name="mlt_service">qimage</property>
  <property name="progressive">1</property>
  <property name="kdenlive:clipname"/>
  <property name="kdenlive:duration">00:00:05:00</property>
  <property name="kdenlive:folderid">-1</property>
  <property name="kdenlive:id">30</property>
  <property name="kdenlive:clip_type">2</property>
  <property name="kdenlive:file_size">42138</property>
  <property name="kdenlive:file_hash">04a21cb7040992229816a77335232c45</property>
 </producer>
 <chain id="chain29" out="00:00:45.200">
  <property name="length">1131</property>
  <property name="eof">pause</property>
  <property name="resource">VID_20191031_203651.mp4</property>
  <property name="mlt_service">avformat-novalidate</property>
  <property name="meta.media.nb_streams">2</property>
  <property name="meta.media.0.stream.type">video</property>
  <property name="meta.media.0.stream.frame_rate">30.0074</property>
  <property name="meta.media.0.stream.sample_aspect_ratio">0</property>
  <property name="meta.media.0.codec.width">1920</property>
  <property name="meta.media.0.codec.height">1080</property>
  <property name="meta.media.0.codec.rotate">0</property>
  <property name="meta.media.0.codec.pix_fmt">yuvj422p</property>
  <property name="meta.media.0.codec.sample_aspect_ratio">0</property>
  <property name="meta.media.0.codec.colorspace">601</property>
  <property name="meta.media.0.codec.name">mjpeg</property>
  <property name="meta.media.0.codec.long_name">MJPEG (Motion JPEG)</property>
  <property name="meta.media.0.codec.bit_rate">23766661</property>
  <property name="meta.attr.0.stream.language.markup">eng</property>
  <property name="meta.attr.0.stream.handler_name.markup">VideoHandler</property>
  <property name="meta.attr.0.stream.vendor_id.markup">FFMP</property>
  <property name="meta.attr.0.stream.encoder.markup">mjpeg</property>
  <property name="meta.media.1.stream.type">audio</property>
  <property name="meta.media.1.codec.sample_fmt">fltp</property>
  <property name="meta.media.1.codec.sample_rate">48000</property>
  <property name="meta.media.1.codec.channels">2</property>
  <property name="meta.media.1.codec.name">aac</property>
  <property name="meta.media.1.codec.long_name">AAC (Advanced Audio Coding)</property>
  <property name="meta.media.1.codec.bit_rate">153912</property>
  <property name="meta.attr.1.stream.language.markup">eng</property>
  <property name="meta.attr.1.stream.handler_name.markup">SoundHandler</property>
  <property name="meta.attr.1.stream.vendor_id.markup">[0][0][0][0]</property>
  <property name="meta.attr.major_brand.markup">qt  </property>
  <property name="meta.attr.minor_version.markup">512</property>
  <property name="meta.attr.compatible_brands.markup">qt  </property>
  <property name="meta.attr.encoder.markup">Lavf55.33.100</property>
  <property name="seekable">1</property>
  <property name="meta.media.sample_aspect_num">1</property>
  <property name="meta.media.sample_aspect_den">1</property>
  <property name="audio_index">1</property>
  <property name="video_index">0</property>
  <property name="meta.media.frame_rate_num">1705586773</property>
  <property name="meta.media.frame_rate_den">56838887</property>
  <property name="meta.media.colorspace">601</property>
  <property name="meta.media.color_trc">2</property>
  <property name="meta.media.has_b_frames">0</property>
  <property name="meta.media.width">1920</property>
  <property name="meta.media.height">1080</property>
  <property name="meta.media.color_range">full</property>
  <property name="kdenlive:clipname"/>
  <property name="meta.media.variable_frame_rate">1</property>
  <property name="meta.media.top_field_first">0</property>
  <property name="meta.media.progressive">1</property>
  <property name="kdenlive:clip_type">0</property>
  <property name="kdenlive:folderid">-1</property>
  <property name="kdenlive:id">31</property>
  <property name="kdenlive:file_size">135157261</property>
  <property name="kdenlive:file_hash">f97bcdb4130cda1db9261b30c6f1d74d</property>
  <property name="kdenlive:audio_max1">210</property>
  <property name="kdenlive:zone_in">241</property>
  <property name="kdenlive:zone_out">421</property>
 </chain>
 <chain id="chain30" out="00:00:09.280">
  <property name="length">233</property>
  <property name="eof">pause</property>
  <property name="resource">VID_20191101_203536.mp4</property>
  <property name="mlt_service">avformat-novalidate</property>
  <property name="meta.media.nb_streams">1</property>
  <property name="meta.media.0.stream.type">video</property>
  <property name="meta.media.0.stream.frame_rate">30.0725</property>
  <property name="meta.media.0.stream.sample_aspect_ratio">0</property>
  <property name="meta.media.0.codec.width">1920</property>
  <property name="meta.media.0.codec.height">1080</property>
  <property name="meta.media.0.codec.rotate">0</property>
  <property name="meta.media.0.codec.pix_fmt">yuvj422p</property>
  <property name="meta.media.0.codec.sample_aspect_ratio">0</property>
  <property name="meta.media.0.codec.colorspace">601</property>
  <property name="meta.media.0.codec.name">mjpeg</property>
  <property name="meta.media.0.codec.long_name">MJPEG (Motion JPEG)</property>
  <property name="meta.media.0.codec.bit_rate">22157475</property>
  <property name="meta.attr.0.stream.language.markup">eng</property>
  <property name="meta.attr.0.stream.handler_name.markup">VideoHandler</property>
  <property name="meta.attr.0.stream.vendor_id.markup">FFMP</property>
  <property name="meta.attr.0.stream.encoder.markup">mjpeg</property>
  <property name="meta.media.1.stream.type">audio</property>
  <property name="meta.media.1.codec.sample_fmt">fltp</property>
  <property name="meta.media.1.codec.sample_rate">48000</property>
  <property name="meta.media.1.codec.channels">2</property>
  <property name="meta.media.1.codec.name">aac</property>
  <property name="meta.media.1.codec.long_name">AAC (Advanced Audio Coding)</property>
  <property name="meta.media.1.codec.bit_rate">148152</property>
  <property name="meta.attr.1.stream.language.markup">eng</property>
  <property name="meta.attr.1.stream.handler_name.markup">SoundHandler</property>
  <property name="meta.attr.1.stream.vendor_id.markup">[0][0][0][0]</property>
  <property name="meta.attr.major_brand.markup">qt  </property>
  <property name="meta.attr.minor_version.markup">512</property>
  <property name="meta.attr.compatible_brands.markup">qt  </property>
  <property name="meta.attr.encoder.markup">Lavf55.33.100</property>
  <property name="seekable">1</property>
  <property name="meta.media.sample_aspect_num">1</property>
  <property name="meta.media.sample_aspect_den">1</property>
  <property name="audio_index">1</property>
  <property name="video_index">0</property>
  <property name="meta.media.frame_rate_num">400000000</property>
  <property name="meta.media.frame_rate_den">13301183</property>
  <property name="meta.media.colorspace">601</property>
  <property name="meta.media.color_trc">2</property>
  <property name="meta.media.has_b_frames">0</property>
  <property name="meta.media.width">1920</property>
  <property name="meta.media.height">1080</property>
  <property name="meta.media.color_range">full</property>
  <property name="kdenlive:clipname"/>
  <property name="meta.media.variable_frame_rate">1</property>
  <property name="meta.media.top_field_first">0</property>
  <property name="meta.media.progressive">1</property>
  <property name="kdenlive:clip_type">0</property>
  <property name="kdenlive:folderid">-1</property>
  <property name="kdenlive:id">32</property>
  <property name="kdenlive:file_size">25790151</property>
  <property name="kdenlive:audio_max1">203</property>
  <property name="kdenlive:zone_in">49</property>
  <property name="kdenlive:zone_out">232</property>
  <property name="kdenlive:file_hash">51c07d4af1589d4f0885eae132709a45</property>
 </chain>
 <chain id="chain31" out="00:00:32.000">
  <property name="length">801</property>
  <property name="eof">pause</property>
  <property name="resource">VID_20191101_210246.mp4</property>
  <property name="mlt_service">avformat-novalidate</property>
  <property name="meta.media.nb_streams">2</property>
  <property name="meta.media.0.stream.type">video</property>
  <property name="meta.media.0.stream.frame_rate">29.9684</property>
  <property name="meta.media.0.stream.sample_aspect_ratio">0</property>
  <property name="meta.media.0.codec.width">1920</property>
  <property name="meta.media.0.codec.height">1080</property>
  <property name="meta.media.0.codec.rotate">0</property>
  <property name="meta.media.0.codec.pix_fmt">yuvj422p</property>
  <property name="meta.media.0.codec.sample_aspect_ratio">0</property>
  <property name="meta.media.0.codec.colorspace">601</property>
  <property name="meta.media.0.codec.name">mjpeg</property>
  <property name="meta.media.0.codec.long_name">MJPEG (Motion JPEG)</property>
  <property name="meta.media.0.codec.bit_rate">19917422</property>
  <property name="meta.attr.0.stream.language.markup">eng</property>
  <property name="meta.attr.0.stream.handler_name.markup">VideoHandler</property>
  <property name="meta.attr.0.stream.vendor_id.markup">FFMP</property>
  <property name="meta.attr.0.stream.encoder.markup">mjpeg</property>
  <property name="meta.media.1.stream.type">audio</property>
  <property name="meta.media.1.codec.sample_fmt">fltp</property>
  <property name="meta.media.1.codec.sample_rate">48000</property>
  <property name="meta.media.1.codec.channels">2</property>
  <property name="meta.media.1.codec.name">aac</property>
  <property name="meta.media.1.codec.long_name">AAC (Advanced Audio Coding)</property>
  <property name="meta.media.1.codec.bit_rate">151187</property>
  <property name="meta.attr.1.stream.language.markup">eng</property>
  <property name="meta.attr.1.stream.handler_name.markup">SoundHandler</property>
  <property name="meta.attr.1.stream.vendor_id.markup">[0][0][0][0]</property>
  <property name="meta.attr.major_brand.markup">qt  </property>
  <property name="meta.attr.minor_version.markup">512</property>
  <property name="meta.attr.compatible_brands.markup">qt  </property>
  <property name="meta.attr.encoder.markup">Lavf55.33.100</property>
  <property name="seekable">1</property>
  <property name="meta.media.sample_aspect_num">1</property>
  <property name="meta.media.sample_aspect_den">1</property>
  <property name="audio_index">1</property>
  <property name="video_index">0</property>
  <property name="meta.media.frame_rate_num">1848086143</property>
  <property name="meta.media.frame_rate_den">61667751</property>
  <property name="meta.media.colorspace">601</property>
  <property name="meta.media.color_trc">2</property>
  <property name="meta.media.has_b_frames">0</property>
  <property name="meta.media.width">1920</property>
  <property name="meta.media.height">1080</property>
  <property name="meta.media.color_range">full</property>
  <property name="kdenlive:clipname"/>
  <property name="meta.media.variable_frame_rate">1</property>
  <property name="meta.media.top_field_first">0</property>
  <property name="meta.media.progressive">1</property>
  <property name="kdenlive:clip_type">0</property>
  <property name="kdenlive:folderid">-1</property>
  <property name="kdenlive:id">33</property>
  <property name="kdenlive:file_size">80387669</property>
  <property name="kdenlive:file_hash">443c6b99bb61deec91e853ecd119f206</property>
  <property name="kdenlive:audio_max1">231</property>
  <property name="kdenlive:zone_in">728</property>
  <property name="kdenlive:zone_out">765</property>
 </chain>
 <chain id="chain32" out="00:00:58.720">
  <property name="length">1469</property>
  <property name="eof">pause</property>
  <property name="resource">VID_20191101_213103.mp4</property>
  <property name="mlt_service">avformat-novalidate</property>
  <property name="meta.media.nb_streams">2</property>
  <property name="meta.media.0.stream.type">video</property>
  <property name="meta.media.0.stream.frame_rate">29.9852</property>
  <property name="meta.media.0.stream.sample_aspect_ratio">0</property>
  <property name="meta.media.0.codec.width">1920</property>
  <property name="meta.media.0.codec.height">1080</property>
  <property name="meta.media.0.codec.rotate">0</property>
  <property name="meta.media.0.codec.pix_fmt">yuvj422p</property>
  <property name="meta.media.0.codec.sample_aspect_ratio">0</property>
  <property name="meta.media.0.codec.colorspace">601</property>
  <property name="meta.media.0.codec.name">mjpeg</property>
  <property name="meta.media.0.codec.long_name">MJPEG (Motion JPEG)</property>
  <property name="meta.media.0.codec.bit_rate">21176004</property>
  <property name="meta.attr.0.stream.language.markup">eng</property>
  <property name="meta.attr.0.stream.handler_name.markup">VideoHandler</property>
  <property name="meta.attr.0.stream.vendor_id.markup">FFMP</property>
  <property name="meta.attr.0.stream.encoder.markup">mjpeg</property>
  <property name="meta.media.1.stream.type">audio</property>
  <property name="meta.media.1.codec.sample_fmt">fltp</property>
  <property name="meta.media.1.codec.sample_rate">48000</property>
  <property name="meta.media.1.codec.channels">2</property>
  <property name="meta.media.1.codec.name">aac</property>
  <property name="meta.media.1.codec.long_name">AAC (Advanced Audio Coding)</property>
  <property name="meta.media.1.codec.bit_rate">146410</property>
  <property name="meta.attr.1.stream.language.markup">eng</property>
  <property name="meta.attr.1.stream.handler_name.markup">SoundHandler</property>
  <property name="meta.attr.1.stream.vendor_id.markup">[0][0][0][0]</property>
  <property name="meta.attr.major_brand.markup">qt  </property>
  <property name="meta.attr.minor_version.markup">512</property>
  <property name="meta.attr.compatible_brands.markup">qt  </property>
  <property name="meta.attr.encoder.markup">Lavf55.33.100</property>
  <property name="seekable">1</property>
  <property name="meta.media.sample_aspect_num">1</property>
  <property name="meta.media.sample_aspect_den">1</property>
  <property name="audio_index">1</property>
  <property name="video_index">0</property>
  <property name="meta.media.frame_rate_num">999384231</property>
  <property name="meta.media.frame_rate_den">33329264</property>
  <property name="meta.media.colorspace">601</property>
  <property name="meta.media.color_trc">2</property>
  <property name="meta.media.has_b_frames">0</property>
  <property name="meta.media.width">1920</property>
  <property name="meta.media.height">1080</property>
  <property name="meta.media.color_range">full</property>
  <property name="kdenlive:clipname"/>
  <property name="meta.media.variable_frame_rate">1</property>
  <property name="meta.media.top_field_first">0</property>
  <property name="meta.media.progressive">1</property>
  <property name="kdenlive:clip_type">0</property>
  <property name="kdenlive:folderid">-1</property>
  <property name="kdenlive:id">34</property>
  <property name="kdenlive:file_size">156580942</property>
  <property name="kdenlive:file_hash">6f0f1130b4923e6443e656d123cf84bb</property>
  <property name="kdenlive:audio_max1">220</property>
  <property name="kdenlive:zone_in">743</property>
  <property name="kdenlive:zone_out">827</property>
 </chain>
 <chain id="chain33" out="00:00:07.360">
  <property name="length">185</property>
  <property name="eof">pause</property>
  <property name="resource">VID_20191102_195019.mp4</property>
  <property name="mlt_service">avformat-novalidate</property>
  <property name="meta.media.nb_streams">2</property>
  <property name="meta.media.0.stream.type">video</property>
  <property name="meta.media.0.stream.frame_rate">30.1221</property>
  <property name="meta.media.0.stream.sample_aspect_ratio">0</property>
  <property name="meta.media.0.codec.width">1920</property>
  <property name="meta.media.0.codec.height">1080</property>
  <property name="meta.media.0.codec.rotate">0</property>
  <property name="meta.media.0.codec.pix_fmt">yuvj422p</property>
  <property name="meta.media.0.codec.sample_aspect_ratio">0</property>
  <property name="meta.media.0.codec.colorspace">601</property>
  <property name="meta.media.0.codec.name">mjpeg</property>
  <property name="meta.media.0.codec.long_name">MJPEG (Motion JPEG)</property>
  <property name="meta.media.0.codec.bit_rate">24885162</property>
  <property name="meta.attr.0.stream.language.markup">eng</property>
  <property name="meta.attr.0.stream.handler_name.markup">VideoHandler</property>
  <property name="meta.attr.0.stream.vendor_id.markup">FFMP</property>
  <property name="meta.attr.0.stream.encoder.markup">mjpeg</property>
  <property name="meta.media.1.stream.type">audio</property>
  <property name="meta.media.1.codec.sample_fmt">fltp</property>
  <property name="meta.media.1.codec.sample_rate">48000</property>
  <property name="meta.media.1.codec.channels">2</property>
  <property name="meta.media.1.codec.name">aac</property>
  <property name="meta.media.1.codec.long_name">AAC (Advanced Audio Coding)</property>
  <property name="meta.media.1.codec.bit_rate">149707</property>
  <property name="meta.attr.1.stream.language.markup">eng</property>
  <property name="meta.attr.1.stream.handler_name.markup">SoundHandler</property>
  <property name="meta.attr.1.stream.vendor_id.markup">[0][0][0][0]</property>
  <property name="meta.attr.major_brand.markup">qt  </property>
  <property name="meta.attr.minor_version.markup">512</property>
  <property name="meta.attr.compatible_brands.markup">qt  </property>
  <property name="meta.attr.encoder.markup">Lavf55.33.100</property>
  <property name="seekable">1</property>
  <property name="meta.media.sample_aspect_num">1</property>
  <property name="meta.media.sample_aspect_den">1</property>
  <property name="audio_index">1</property>
  <property name="video_index">0</property>
  <property name="meta.media.frame_rate_num">740000000</property>
  <property name="meta.media.frame_rate_den">24566641</property>
  <property name="meta.media.colorspace">601</property>
  <property name="meta.media.color_trc">2</property>
  <property name="meta.media.has_b_frames">0</property>
  <property name="meta.media.width">1920</property>
  <property name="meta.media.height">1080</property>
  <property name="meta.media.color_range">full</property>
  <property name="kdenlive:clipname"/>
  <property name="meta.media.top_field_first">0</property>
  <property name="meta.media.progressive">1</property>
  <property name="kdenlive:clip_type">0</property>
  <property name="kdenlive:folderid">-1</property>
  <property name="kdenlive:id">35</property>
  <property name="kdenlive:file_size">23071294</property>
  <property name="kdenlive:file_hash">9fe6ce0da87b1b01cd224ca8d8c4db2c</property>
  <property name="kdenlive:audio_max1">183</property>
 </chain>
 <chain id="chain34" out="00:00:13.880">
  <property name="length">348</property>
  <property name="eof">pause</property>
  <property name="resource">VID_20191102_205118.mp4</property>
  <property name="mlt_service">avformat-novalidate</property>
  <property name="meta.media.nb_streams">2</property>
  <property name="meta.media.0.stream.type">video</property>
  <property name="meta.media.0.stream.frame_rate">30.0046</property>
  <property name="meta.media.0.stream.sample_aspect_ratio">0</property>
  <property name="meta.media.0.codec.width">1920</property>
  <property name="meta.media.0.codec.height">1080</property>
  <property name="meta.media.0.codec.rotate">0</property>
  <property name="meta.media.0.codec.pix_fmt">yuvj422p</property>
  <property name="meta.media.0.codec.sample_aspect_ratio">0</property>
  <property name="meta.media.0.codec.colorspace">601</property>
  <property name="meta.media.0.codec.name">mjpeg</property>
  <property name="meta.media.0.codec.long_name">MJPEG (Motion JPEG)</property>
  <property name="meta.media.0.codec.bit_rate">25211036</property>
  <property name="meta.attr.0.stream.language.markup">eng</property>
  <property name="meta.attr.0.stream.handler_name.markup">VideoHandler</property>
  <property name="meta.attr.0.stream.vendor_id.markup">FFMP</property>
  <property name="meta.attr.0.stream.encoder.markup">mjpeg</property>
  <property name="meta.media.1.stream.type">audio</property>
  <property name="meta.media.1.codec.sample_fmt">fltp</property>
  <property name="meta.media.1.codec.sample_rate">48000</property>
  <property name="meta.media.1.codec.channels">2</property>
  <property name="meta.media.1.codec.name">aac</property>
  <property name="meta.media.1.codec.long_name">AAC (Advanced Audio Coding)</property>
  <property name="meta.media.1.codec.bit_rate">159416</property>
  <property name="meta.attr.1.stream.language.markup">eng</property>
  <property name="meta.attr.1.stream.handler_name.markup">SoundHandler</property>
  <property name="meta.attr.1.stream.vendor_id.markup">[0][0][0][0]</property>
  <property name="meta.attr.major_brand.markup">qt  </property>
  <property name="meta.attr.minor_version.markup">512</property>
  <property name="meta.attr.compatible_brands.markup">qt  </property>
  <property name="meta.attr.encoder.markup">Lavf55.33.100</property>
  <property name="seekable">1</property>
  <property name="meta.media.sample_aspect_num">1</property>
  <property name="meta.media.sample_aspect_den">1</property>
  <property name="audio_index">1</property>
  <property name="video_index">0</property>
  <property name="meta.media.frame_rate_num">1042500000</property>
  <property name="meta.media.frame_rate_den">34744717</property>
  <property name="meta.media.colorspace">601</property>
  <property name="meta.media.color_trc">2</property>
  <property name="meta.media.has_b_frames">0</property>
  <property name="meta.media.width">1920</property>
  <property name="meta.media.height">1080</property>
  <property name="meta.media.color_range">full</property>
  <property name="kdenlive:clipname"/>
  <property name="meta.media.variable_frame_rate">1</property>
  <property name="meta.media.top_field_first">0</property>
  <property name="meta.media.progressive">1</property>
  <property name="kdenlive:clip_type">0</property>
  <property name="kdenlive:folderid">-1</property>
  <property name="kdenlive:id">36</property>
  <property name="kdenlive:file_size">44088231</property>
  <property name="kdenlive:file_hash">76db4dc164a40582568d03bdc5c3d6b9</property>
  <property name="kdenlive:audio_max1">211</property>
 </chain>
 <chain id="chain35" out="00:00:30.920">
  <property name="length">774</property>
  <property name="eof">pause</property>
  <property name="resource">VID_20191102_205743.mp4</property>
  <property name="mlt_service">avformat-novalidate</property>
  <property name="meta.media.nb_streams">2</property>
  <property name="meta.media.0.stream.type">video</property>
  <property name="meta.media.0.stream.frame_rate">29.9014</property>
  <property name="meta.media.0.stream.sample_aspect_ratio">0</property>
  <property name="meta.media.0.codec.width">1920</property>
  <property name="meta.media.0.codec.height">1080</property>
  <property name="meta.media.0.codec.rotate">0</property>
  <property name="meta.media.0.codec.pix_fmt">yuvj422p</property>
  <property name="meta.media.0.codec.sample_aspect_ratio">0</property>
  <property name="meta.media.0.codec.colorspace">601</property>
  <property name="meta.media.0.codec.name">mjpeg</property>
  <property name="meta.media.0.codec.long_name">MJPEG (Motion JPEG)</property>
  <property name="meta.media.0.codec.bit_rate">22424224</property>
  <property name="meta.attr.0.stream.language.markup">eng</property>
  <property name="meta.attr.0.stream.handler_name.markup">VideoHandler</property>
  <property name="meta.attr.0.stream.vendor_id.markup">FFMP</property>
  <property name="meta.attr.0.stream.encoder.markup">mjpeg</property>
  <property name="meta.media.1.stream.type">audio</property>
  <property name="meta.media.1.codec.sample_fmt">fltp</property>
  <property name="meta.media.1.codec.sample_rate">48000</property>
  <property name="meta.media.1.codec.channels">2</property>
  <property name="meta.media.1.codec.name">aac</property>
  <property name="meta.media.1.codec.long_name">AAC (Advanced Audio Coding)</property>
  <property name="meta.media.1.codec.bit_rate">158316</property>
  <property name="meta.attr.1.stream.language.markup">eng</property>
  <property name="meta.attr.1.stream.handler_name.markup">SoundHandler</property>
  <property name="meta.attr.1.stream.vendor_id.markup">[0][0][0][0]</property>
  <property name="meta.attr.major_brand.markup">qt  </property>
  <property name="meta.attr.minor_version.markup">512</property>
  <property name="meta.attr.compatible_brands.markup">qt  </property>
  <property name="meta.attr.encoder.markup">Lavf55.33.100</property>
  <property name="seekable">1</property>
  <property name="meta.media.sample_aspect_num">1</property>
  <property name="meta.media.sample_aspect_den">1</property>
  <property name="audio_index">1</property>
  <property name="video_index">0</property>
  <property name="meta.media.frame_rate_num">1852000000</property>
  <property name="meta.media.frame_rate_den">61936977</property>
  <property name="meta.media.colorspace">601</property>
  <property name="meta.media.color_trc">2</property>
  <property name="meta.media.has_b_frames">0</property>
  <property name="meta.media.width">1920</property>
  <property name="meta.media.height">1080</property>
  <property name="meta.media.color_range">full</property>
  <property name="kdenlive:clipname"/>
  <property name="meta.media.variable_frame_rate">1</property>
  <property name="meta.media.top_field_first">0</property>
  <property name="meta.media.progressive">1</property>
  <property name="kdenlive:clip_type">0</property>
  <property name="kdenlive:folderid">-1</property>
  <property name="kdenlive:id">37</property>
  <property name="kdenlive:file_size">87446744</property>
  <property name="kdenlive:file_hash">c05884c50037cd61db00df2ee5a3abbd</property>
  <property name="kdenlive:audio_max1">183</property>
  <property name="kdenlive:zone_in">47</property>
  <property name="kdenlive:zone_out">773</property>
 </chain>
 <chain id="chain36" out="00:00:18.120">
  <property name="length">454</property>
  <property name="eof">pause</property>
  <property name="resource">VID_20191102_205935.mp4</property>
  <property name="mlt_service">avformat-novalidate</property>
  <property name="meta.media.nb_streams">2</property>
  <property name="meta.media.0.stream.type">video</property>
  <property name="meta.media.0.stream.frame_rate">29.9568</property>
  <property name="meta.media.0.stream.sample_aspect_ratio">0</property>
  <property name="meta.media.0.codec.width">1920</property>
  <property name="meta.media.0.codec.height">1080</property>
  <property name="meta.media.0.codec.rotate">0</property>
  <property name="meta.media.0.codec.pix_fmt">yuvj422p</property>
  <property name="meta.media.0.codec.sample_aspect_ratio">0</property>
  <property name="meta.media.0.codec.colorspace">601</property>
  <property name="meta.media.0.codec.name">mjpeg</property>
  <property name="meta.media.0.codec.long_name">MJPEG (Motion JPEG)</property>
  <property name="meta.media.0.codec.bit_rate">23341594</property>
  <property name="meta.attr.0.stream.language.markup">eng</property>
  <property name="meta.attr.0.stream.handler_name.markup">VideoHandler</property>
  <property name="meta.attr.0.stream.vendor_id.markup">FFMP</property>
  <property name="meta.attr.0.stream.encoder.markup">mjpeg</property>
  <property name="meta.media.1.stream.type">audio</property>
  <property name="meta.media.1.codec.sample_fmt">fltp</property>
  <property name="meta.media.1.codec.sample_rate">48000</property>
  <property name="meta.media.1.codec.channels">2</property>
  <property name="meta.media.1.codec.name">aac</property>
  <property name="meta.media.1.codec.long_name">AAC (Advanced Audio Coding)</property>
  <property name="meta.media.1.codec.bit_rate">162687</property>
  <property name="meta.attr.1.stream.language.markup">eng</property>
  <property name="meta.attr.1.stream.handler_name.markup">SoundHandler</property>
  <property name="meta.attr.1.stream.vendor_id.markup">[0][0][0][0]</property>
  <property name="meta.attr.major_brand.markup">qt  </property>
  <property name="meta.attr.minor_version.markup">512</property>
  <property name="meta.attr.compatible_brands.markup">qt  </property>
  <property name="meta.attr.encoder.markup">Lavf55.33.100</property>
  <property name="seekable">1</property>
  <property name="meta.media.sample_aspect_num">1</property>
  <property name="meta.media.sample_aspect_den">1</property>
  <property name="audio_index">1</property>
  <property name="video_index">0</property>
  <property name="meta.media.frame_rate_num">680000000</property>
  <property name="meta.media.frame_rate_den">22699373</property>
  <property name="meta.media.colorspace">601</property>
  <property name="meta.media.color_trc">2</property>
  <property name="meta.media.has_b_frames">0</property>
  <property name="meta.media.width">1920</property>
  <property name="meta.media.height">1080</property>
  <property name="meta.media.color_range">full</property>
  <property name="kdenlive:clipname"/>
  <property name="meta.media.variable_frame_rate">1</property>
  <property name="meta.media.top_field_first">0</property>
  <property name="meta.media.progressive">1</property>
  <property name="kdenlive:clip_type">0</property>
  <property name="kdenlive:folderid">-1</property>
  <property name="kdenlive:id">38</property>
  <property name="kdenlive:file_size">53370415</property>
  <property name="kdenlive:file_hash">80731cd810cb4ebfcf0a336ebc7c5e52</property>
  <property name="kdenlive:audio_max1">190</property>
  <property name="kdenlive:zone_in">217</property>
  <property name="kdenlive:zone_out">453</property>
 </chain>
 <chain id="chain37" out="00:00:45.400">
  <property name="length">1136</property>
  <property name="eof">pause</property>
  <property name="resource">VID_20191102_210718.mp4</property>
  <property name="mlt_service">avformat-novalidate</property>
  <property name="meta.media.nb_streams">2</property>
  <property name="meta.media.0.stream.type">video</property>
  <property name="meta.media.0.stream.frame_rate">30.0143</property>
  <property name="meta.media.0.stream.sample_aspect_ratio">0</property>
  <property name="meta.media.0.codec.width">1920</property>
  <property name="meta.media.0.codec.height">1080</property>
  <property name="meta.media.0.codec.rotate">0</property>
  <property name="meta.media.0.codec.pix_fmt">yuvj422p</property>
  <property name="meta.media.0.codec.sample_aspect_ratio">0</property>
  <property name="meta.media.0.codec.colorspace">601</property>
  <property name="meta.media.0.codec.name">mjpeg</property>
  <property name="meta.media.0.codec.long_name">MJPEG (Motion JPEG)</property>
  <property name="meta.media.0.codec.bit_rate">21646816</property>
  <property name="meta.attr.0.stream.language.markup">eng</property>
  <property name="meta.attr.0.stream.handler_name.markup">VideoHandler</property>
  <property name="meta.attr.0.stream.vendor_id.markup">FFMP</property>
  <property name="meta.attr.0.stream.encoder.markup">mjpeg</property>
  <property name="meta.media.1.stream.type">audio</property>
  <property name="meta.media.1.codec.sample_fmt">fltp</property>
  <property name="meta.media.1.codec.sample_rate">48000</property>
  <property name="meta.media.1.codec.channels">2</property>
  <property name="meta.media.1.codec.name">aac</property>
  <property name="meta.media.1.codec.long_name">AAC (Advanced Audio Coding)</property>
  <property name="meta.media.1.codec.bit_rate">158466</property>
  <property name="meta.attr.1.stream.language.markup">eng</property>
  <property name="meta.attr.1.stream.handler_name.markup">SoundHandler</property>
  <property name="meta.attr.1.stream.vendor_id.markup">[0][0][0][0]</property>
  <property name="meta.attr.major_brand.markup">qt  </property>
  <property name="meta.attr.minor_version.markup">512</property>
  <property name="meta.attr.compatible_brands.markup">qt  </property>
  <property name="meta.attr.encoder.markup">Lavf55.33.100</property>
  <property name="seekable">1</property>
  <property name="meta.media.sample_aspect_num">1</property>
  <property name="meta.media.sample_aspect_den">1</property>
  <property name="audio_index">1</property>
  <property name="video_index">0</property>
  <property name="meta.media.frame_rate_num">2061812418</property>
  <property name="meta.media.frame_rate_den">68694413</property>
  <property name="meta.media.colorspace">601</property>
  <property name="meta.media.color_trc">2</property>
  <property name="meta.media.has_b_frames">0</property>
  <property name="meta.media.width">1920</property>
  <property name="meta.media.height">1080</property>
  <property name="meta.media.color_range">full</property>
  <property name="kdenlive:clipname"/>
  <property name="meta.media.variable_frame_rate">1</property>
  <property name="meta.media.top_field_first">0</property>
  <property name="meta.media.progressive">1</property>
  <property name="kdenlive:clip_type">0</property>
  <property name="kdenlive:folderid">-1</property>
  <property name="kdenlive:id">39</property>
  <property name="kdenlive:file_size">123816168</property>
  <property name="kdenlive:file_hash">f29e5454e70186c3ca281eb66b1d65b3</property>
  <property name="kdenlive:audio_max1">221</property>
  <property name="kdenlive:zone_in">797</property>
  <property name="kdenlive:zone_out">1073</property>
 </chain>
 <chain id="chain38" out="00:00:09.360">
  <property name="length">235</property>
  <property name="eof">pause</property>
  <property name="resource">VID_20191102_212448.mp4</property>
  <property name="mlt_service">avformat-novalidate</property>
  <property name="meta.media.nb_streams">2</property>
  <property name="meta.media.0.stream.type">video</property>
  <property name="meta.media.0.stream.frame_rate">30.0779</property>
  <property name="meta.media.0.stream.sample_aspect_ratio">0</property>
  <property name="meta.media.0.codec.width">1920</property>
  <property name="meta.media.0.codec.height">1080</property>
  <property name="meta.media.0.codec.rotate">0</property>
  <property name="meta.media.0.codec.pix_fmt">yuvj422p</property>
  <property name="meta.media.0.codec.sample_aspect_ratio">0</property>
  <property name="meta.media.0.codec.colorspace">601</property>
  <property name="meta.media.0.codec.name">mjpeg</property>
  <property name="meta.media.0.codec.long_name">MJPEG (Motion JPEG)</property>
  <property name="meta.media.0.codec.bit_rate">21067169</property>
  <property name="meta.attr.0.stream.language.markup">eng</property>
  <property name="meta.attr.0.stream.handler_name.markup">VideoHandler</property>
  <property name="meta.attr.0.stream.vendor_id.markup">FFMP</property>
  <property name="meta.attr.0.stream.encoder.markup">mjpeg</property>
  <property name="meta.media.1.stream.type">audio</property>
  <property name="meta.media.1.codec.sample_fmt">fltp</property>
  <property name="meta.media.1.codec.sample_rate">48000</property>
  <property name="meta.media.1.codec.channels">2</property>
  <property name="meta.media.1.codec.name">aac</property>
  <property name="meta.media.1.codec.long_name">AAC (Advanced Audio Coding)</property>
  <property name="meta.media.1.codec.bit_rate">146659</property>
  <property name="meta.attr.1.stream.language.markup">eng</property>
  <property name="meta.attr.1.stream.handler_name.markup">SoundHandler</property>
  <property name="meta.attr.1.stream.vendor_id.markup">[0][0][0][0]</property>
  <property name="meta.attr.major_brand.markup">qt  </property>
  <property name="meta.attr.minor_version.markup">512</property>
  <property name="meta.attr.compatible_brands.markup">qt  </property>
  <property name="meta.attr.encoder.markup">Lavf55.33.100</property>
  <property name="seekable">1</property>
  <property name="meta.media.sample_aspect_num">1</property>
  <property name="meta.media.sample_aspect_den">1</property>
  <property name="audio_index">1</property>
  <property name="video_index">0</property>
  <property name="meta.media.frame_rate_num">2050982995</property>
  <property name="meta.media.frame_rate_den">68189076</property>
  <property name="meta.media.colorspace">601</property>
  <property name="meta.media.color_trc">2</property>
  <property name="meta.media.has_b_frames">0</property>
  <property name="meta.media.width">1920</property>
  <property name="meta.media.height">1080</property>
  <property name="meta.media.color_range">full</property>
  <property name="kdenlive:clipname"/>
  <property name="meta.media.variable_frame_rate">1</property>
  <property name="meta.media.top_field_first">0</property>
  <property name="meta.media.progressive">1</property>
  <property name="kdenlive:clip_type">0</property>
  <property name="kdenlive:folderid">-1</property>
  <property name="kdenlive:id">40</property>
  <property name="kdenlive:file_size">24871448</property>
  <property name="kdenlive:file_hash">98d2bd72918388b8e7feb43f58e1949c</property>
  <property name="kdenlive:audio_max1">254</property>
 </chain>
 <chain id="chain39" out="00:00:04.960">
  <property name="length">125</property>
  <property name="eof">pause</property>
  <property name="resource">Web Element Circle 03.webm</property>
  <property name="mlt_service">avformat-novalidate</property>
  <property name="meta.media.nb_streams">1</property>
  <property name="meta.media.0.stream.type">video</property>
  <property name="meta.media.0.stream.frame_rate">25</property>
  <property name="meta.media.0.stream.sample_aspect_ratio">1</property>
  <property name="meta.media.0.codec.width">1000</property>
  <property name="meta.media.0.codec.height">1000</property>
  <property name="meta.media.0.codec.rotate">0</property>
  <property name="meta.media.0.codec.pix_fmt">yuv420p</property>
  <property name="meta.media.0.codec.sample_aspect_ratio">0</property>
  <property name="meta.media.0.codec.colorspace">709</property>
  <property name="meta.media.0.codec.name">vp8</property>
  <property name="meta.media.0.codec.long_name">On2 VP8</property>
  <property name="meta.media.0.codec.bit_rate">0</property>
  <property name="meta.attr.0.stream.language.markup">eng</property>
  <property name="meta.attr.0.stream.alpha_mode.markup">1</property>
  <property name="meta.attr.title.markup">Filmora</property>
  <property name="meta.attr.encoder.markup">Lavf55.36.101</property>
  <property name="seekable">1</property>
  <property name="meta.media.sample_aspect_num">1</property>
  <property name="meta.media.sample_aspect_den">1</property>
  <property name="audio_index">-1</property>
  <property name="video_index">0</property>
  <property name="meta.media.frame_rate_num">25</property>
  <property name="meta.media.frame_rate_den">1</property>
  <property name="meta.media.colorspace">709</property>
  <property name="meta.media.color_trc">2</property>
  <property name="meta.media.has_b_frames">0</property>
  <property name="meta.media.width">1000</property>
  <property name="meta.media.height">1000</property>
  <property name="meta.media.color_range">mpeg</property>
  <property name="kdenlive:clipname"/>
  <property name="meta.media.top_field_first">0</property>
  <property name="meta.media.progressive">1</property>
  <property name="kdenlive:clip_type">2</property>
  <property name="kdenlive:folderid">-1</property>
  <property name="kdenlive:id">41</property>
  <property name="kdenlive:file_size">137116</property>
  <property name="kdenlive:file_hash">bc712ea9a583b1919164c6f62fd36d2f</property>
 </chain>
 <producer id="producer1" in="00:00:00.000" out="00:00:04.960">
  <property name="length">00:00:05.000</property>
  <property name="eof">pause</property>
  <property name="resource">0x000000ff</property>
  <property name="aspect_ratio">1</property>
  <property name="mlt_service">color</property>
  <property name="kdenlive:clipname">Must</property>
  <property name="kdenlive:duration">00:00:05:00</property>
  <property name="kdenlive:folderid">2</property>
  <property name="kdenlive:id">42</property>
  <property name="mlt_image_format">rgb</property>
  <property name="kdenlive:clip_type">2</property>
  <property name="kdenlive:file_hash">9196813120dc5c505072516b15baf414</property>
 </producer>
 <producer id="producer16" in="00:00:00.000" out="00:00:06.200">
  <property name="length">156</property>
  <property name="eof">pause</property>
  <property name="resource"/>
  <property name="meta.media.progressive">1</property>
  <property name="aspect_ratio">1</property>
  <property name="seekable">1</property>
  <property name="mlt_service">kdenlivetitle</property>
  <property name="progressive">1</property>
  <property name="kdenlive:duration">00:00:02.200</property>
  <property name="kdenlive:clipname">31 OKTOOBRIL 2019, SEE ON...</property>
  <property name="xmldata">&lt;kdenlivetitle duration="55" LC_NUMERIC="C" width="1920" height="1080" out="54">&#xd;&#xd;&#xd;
 &lt;item type="QGraphicsTextItem" z-index="0">&#xd;&#xd;&#xd;
  &lt;position x="147" y="459">&#xd;&#xd;&#xd;
   &lt;transform>1,0,0,0,1,0,0,0,1&lt;/transform>&#xd;&#xd;&#xd;
  &lt;/position>&#xd;&#xd;&#xd;
  &lt;content line-spacing="0" shadow="0;#64000000;3;3;3" font-underline="0" box-height="150" font-outline-color="0,0,0,255" font="MS Shell Dlg 2" letter-spacing="0" font-pixel-size="124" font-italic="0" typewriter="1;2;1;0;0" alignment="1" font-weight="50" font-outline="5" box-width="1763" font-color="255,255,255,255">31 OKTOOBRIL 2019, SEE ON...&lt;/content>&#xd;&#xd;&#xd;
 &lt;/item>&#xd;&#xd;&#xd;
 &lt;startviewport rect="0,0,1920,1080"/>&#xd;&#xd;&#xd;
 &lt;endviewport rect="0,0,1920,1080"/>&#xd;&#xd;&#xd;
 &lt;background color="0,0,0,0"/>&#xd;&#xd;&#xd;
&lt;/kdenlivetitle>&#xd;&#xd;&#xd;
</property>
  <property name="kdenlive:folderid">2</property>
  <property name="kdenlive:id">43</property>
  <property name="kdenlive:clip_type">2</property>
  <property name="kdenlive:file_hash">31344fc166355c64b411c4872a12d2d0</property>
  <property name="force_reload">0</property>
  <property name="meta.media.width">1920</property>
  <property name="meta.media.height">1080</property>
 </producer>
 <producer id="producer2" in="00:00:00.000" out="00:00:04.960">
  <property name="length">125</property>
  <property name="eof">pause</property>
  <property name="resource"/>
  <property name="meta.media.progressive">1</property>
  <property name="aspect_ratio">1</property>
  <property name="seekable">1</property>
  <property name="mlt_service">kdenlivetitle</property>
  <property name="kdenlive:duration">00:00:05:00</property>
  <property name="progressive">1</property>
  <property name="kdenlive:clipname">OLGE VALMIS ERILISE 31 OKTOOBER </property>
  <property name="xmldata">&lt;kdenlivetitle duration="125" LC_NUMERIC="C" width="1920" height="1080" out="124">&#xd;
 &lt;item type="QGraphicsTextItem" z-index="0">&#xd;
  &lt;position x="144" y="473">&#xd;
   &lt;transform>1,0,0,0,1,0,0,0,1&lt;/transform>&#xd;
  &lt;/position>&#xd;
  &lt;content line-spacing="0" shadow="0;#64000000;3;3;3" font-underline="0" box-height="116" font-outline-color="0,0,0,255" font="MS Shell Dlg 2" letter-spacing="0" font-pixel-size="96" font-italic="0" typewriter="0;2;1;0;0" alignment="1" font-weight="50" font-outline="5" box-width="1642" font-color="255,255,255,255">OLGE VALMIS ERILISE 31 OKTOOBER &lt;/content>&#xd;
 &lt;/item>&#xd;
 &lt;startviewport rect="0,0,1920,1080"/>&#xd;
 &lt;endviewport rect="0,0,1920,1080"/>&#xd;
 &lt;background color="0,0,0,0"/>&#xd;
&lt;/kdenlivetitle>&#xd;
</property>
  <property name="kdenlive:folderid">2</property>
  <property name="kdenlive:id">44</property>
  <property name="kdenlive:clip_type">2</property>
  <property name="kdenlive:file_hash">cf0ee1b328135d0bdfe81a5348e57481</property>
  <property name="force_reload">0</property>
  <property name="meta.media.width">1920</property>
  <property name="meta.media.height">1080</property>
 </producer>
 <producer id="producer3" in="00:00:00.000" out="00:00:04.960">
  <property name="length">125</property>
  <property name="eof">pause</property>
  <property name="resource"/>
  <property name="meta.media.progressive">1</property>
  <property name="aspect_ratio">1</property>
  <property name="seekable">1</property>
  <property name="mlt_service">kdenlivetitle</property>
  <property name="progressive">1</property>
  <property name="kdenlive:duration">00:00:01.000</property>
  <property name="kdenlive:clipname">3...</property>
  <property name="xmldata">&lt;kdenlivetitle duration="25" LC_NUMERIC="C" width="1920" height="1080" out="24">&#xd;&#xd;&#xd;&#xd;&#xd;&#xd;&#xd;&#xd;&#xd;
 &lt;item type="QGraphicsTextItem" z-index="0">&#xd;&#xd;&#xd;&#xd;&#xd;&#xd;&#xd;&#xd;&#xd;
  &lt;position x="1920" y="346">&#xd;&#xd;&#xd;&#xd;&#xd;&#xd;&#xd;&#xd;&#xd;
   &lt;transform zoom="100">1,0,0,0,1,0,0,0,1&lt;/transform>&#xd;&#xd;&#xd;&#xd;&#xd;&#xd;&#xd;&#xd;&#xd;
  &lt;/position>&#xd;&#xd;&#xd;&#xd;&#xd;&#xd;&#xd;&#xd;&#xd;
  &lt;content line-spacing="0" shadow="0;#64000000;3;3;3" font-underline="0" box-height="362" font-outline-color="0,0,0,255" font="MS Shell Dlg 2" letter-spacing="0" font-pixel-size="300" font-italic="0" typewriter="0;2;1;0;0" alignment="1" font-weight="50" font-outline="5" box-width="437" font-color="255,255,255,255">3...&lt;/content>&#xd;&#xd;&#xd;&#xd;&#xd;&#xd;&#xd;&#xd;&#xd;
 &lt;/item>&#xd;&#xd;&#xd;&#xd;&#xd;&#xd;&#xd;&#xd;&#xd;
 &lt;startviewport rect="0,0,1920,1080"/>&#xd;&#xd;&#xd;&#xd;&#xd;&#xd;&#xd;&#xd;&#xd;
 &lt;endviewport rect="2350,0,1920,1080"/>&#xd;&#xd;&#xd;&#xd;&#xd;&#xd;&#xd;&#xd;&#xd;
 &lt;background color="0,0,0,0"/>&#xd;&#xd;&#xd;&#xd;&#xd;&#xd;&#xd;&#xd;&#xd;
&lt;/kdenlivetitle>&#xd;&#xd;&#xd;&#xd;&#xd;&#xd;&#xd;&#xd;&#xd;
</property>
  <property name="kdenlive:folderid">-1</property>
  <property name="kdenlive:id">45</property>
  <property name="kdenlive:clip_type">2</property>
  <property name="kdenlive:file_hash">f54331011d1e73ef797b2ff0ce547a5b</property>
  <property name="force_reload">0</property>
  <property name="meta.media.width">1920</property>
  <property name="meta.media.height">1080</property>
 </producer>
 <producer id="producer7" in="00:00:00.000" out="00:00:04.960">
  <property name="length">125</property>
  <property name="eof">pause</property>
  <property name="resource"/>
  <property name="meta.media.progressive">1</property>
  <property name="aspect_ratio">1</property>
  <property name="seekable">1</property>
  <property name="mlt_service">kdenlivetitle</property>
  <property name="progressive">1</property>
  <property name="kdenlive:duration">00:00:01.000</property>
  <property name="kdenlive:clipname">2...</property>
  <property name="xmldata">&lt;kdenlivetitle duration="25" LC_NUMERIC="C" width="1920" height="1080" out="24">&#xd;&#xd;&#xd;&#xd;&#xd;&#xd;&#xd;
 &lt;item type="QGraphicsTextItem" z-index="0">&#xd;&#xd;&#xd;&#xd;&#xd;&#xd;&#xd;
  &lt;position x="741" y="359">&#xd;&#xd;&#xd;&#xd;&#xd;&#xd;&#xd;
   &lt;transform>1,0,0,0,1,0,0,0,1&lt;/transform>&#xd;&#xd;&#xd;&#xd;&#xd;&#xd;&#xd;
  &lt;/position>&#xd;&#xd;&#xd;&#xd;&#xd;&#xd;&#xd;
  &lt;content line-spacing="0" shadow="0;#64000000;3;3;3" font-underline="0" box-height="362" font-outline-color="0,0,0,255" font="MS Shell Dlg 2" letter-spacing="0" font-pixel-size="300" font-italic="0" typewriter="0;2;1;0;0" alignment="1" font-weight="50" font-outline="5" box-width="437" font-color="255,255,255,255">2...&lt;/content>&#xd;&#xd;&#xd;&#xd;&#xd;&#xd;&#xd;
 &lt;/item>&#xd;&#xd;&#xd;&#xd;&#xd;&#xd;&#xd;
 &lt;startviewport rect="0,-665,1920,1080"/>&#xd;&#xd;&#xd;&#xd;&#xd;&#xd;&#xd;
 &lt;endviewport rect="0,700,1920,1080"/>&#xd;&#xd;&#xd;&#xd;&#xd;&#xd;&#xd;
 &lt;background color="0,0,0,0"/>&#xd;&#xd;&#xd;&#xd;&#xd;&#xd;&#xd;
&lt;/kdenlivetitle>&#xd;&#xd;&#xd;&#xd;&#xd;&#xd;&#xd;
</property>
  <property name="kdenlive:folderid">2</property>
  <property name="kdenlive:id">46</property>
  <property name="kdenlive:clip_type">2</property>
  <property name="kdenlive:file_hash">b1f11fc0a16911327124795ba729d974</property>
  <property name="force_reload">0</property>
  <property name="meta.media.width">1920</property>
  <property name="meta.media.height">1080</property>
 </producer>
 <producer id="producer8" in="00:00:00.000" out="00:00:04.960">
  <property name="length">125</property>
  <property name="eof">pause</property>
  <property name="resource"/>
  <property name="meta.media.progressive">1</property>
  <property name="aspect_ratio">1</property>
  <property name="seekable">1</property>
  <property name="mlt_service">kdenlivetitle</property>
  <property name="progressive">1</property>
  <property name="kdenlive:duration">00:00:01.000</property>
  <property name="kdenlive:clipname">1...</property>
  <property name="xmldata">&lt;kdenlivetitle duration="25" LC_NUMERIC="C" width="1920" height="1080" out="24">&#xd;&#xd;&#xd;&#xd;&#xd;&#xd;&#xd;
 &lt;item type="QGraphicsTextItem" z-index="0">&#xd;&#xd;&#xd;&#xd;&#xd;&#xd;&#xd;
  &lt;position x="741" y="359">&#xd;&#xd;&#xd;&#xd;&#xd;&#xd;&#xd;
   &lt;transform>1,0,0,0,1,0,0,0,1&lt;/transform>&#xd;&#xd;&#xd;&#xd;&#xd;&#xd;&#xd;
  &lt;/position>&#xd;&#xd;&#xd;&#xd;&#xd;&#xd;&#xd;
  &lt;content line-spacing="0" shadow="0;#64000000;3;3;3" font-underline="0" box-height="362" font-outline-color="0,0,0,255" font="MS Shell Dlg 2" letter-spacing="0" font-pixel-size="300" font-italic="0" typewriter="0;2;1;0;0" alignment="1" font-weight="50" font-outline="5" box-width="437" font-color="255,255,255,255">1...&lt;/content>&#xd;&#xd;&#xd;&#xd;&#xd;&#xd;&#xd;
 &lt;/item>&#xd;&#xd;&#xd;&#xd;&#xd;&#xd;&#xd;
 &lt;startviewport rect="1163.33,0,1920,1080"/>&#xd;&#xd;&#xd;&#xd;&#xd;&#xd;&#xd;
 &lt;endviewport rect="-1173,0,1920,1080"/>&#xd;&#xd;&#xd;&#xd;&#xd;&#xd;&#xd;
 &lt;background color="0,0,0,0"/>&#xd;&#xd;&#xd;&#xd;&#xd;&#xd;&#xd;
&lt;/kdenlivetitle>&#xd;&#xd;&#xd;&#xd;&#xd;&#xd;&#xd;
</property>
  <property name="kdenlive:folderid">2</property>
  <property name="kdenlive:id">47</property>
  <property name="kdenlive:clip_type">2</property>
  <property name="kdenlive:file_hash">0280acefacc0634e8c8a3a6857bd786c</property>
  <property name="force_reload">0</property>
  <property name="meta.media.width">1920</property>
  <property name="meta.media.height">1080</property>
 </producer>
 <producer id="producer9" in="00:00:00.000" out="00:00:04.960">
  <property name="length">00:00:05.000</property>
  <property name="eof">pause</property>
  <property name="resource">0xffffffff</property>
  <property name="aspect_ratio">1</property>
  <property name="mlt_service">color</property>
  <property name="kdenlive:clipname">Värviklipp</property>
  <property name="kdenlive:duration">00:00:05:00</property>
  <property name="kdenlive:folderid">2</property>
  <property name="kdenlive:id">48</property>
  <property name="mlt_image_format">rgb</property>
  <property name="kdenlive:clip_type">2</property>
  <property name="kdenlive:file_hash">039b56a692cd66eefeea44a17539e5a2</property>
 </producer>
 <producer id="producer10" in="00:00:00.000" out="00:00:04.960">
  <property name="length">125</property>
  <property name="eof">pause</property>
  <property name="resource"/>
  <property name="meta.media.progressive">1</property>
  <property name="aspect_ratio">1</property>
  <property name="seekable">1</property>
  <property name="mlt_service">kdenlivetitle</property>
  <property name="progressive">1</property>
  <property name="kdenlive:duration">00:00:05:00</property>
  <property name="kdenlive:clipname">THE HALLOWEE...</property>
  <property name="xmldata">&lt;kdenlivetitle duration="125" LC_NUMERIC="C" width="1920" height="1080" out="124">&#xd;&#xd;&#xd;
 &lt;item type="QGraphicsTextItem" z-index="0">&#xd;&#xd;&#xd;
  &lt;position x="255" y="467">&#xd;&#xd;&#xd;
   &lt;transform>1,0,0,0,1,0,0,0,1&lt;/transform>&#xd;&#xd;&#xd;
  &lt;/position>&#xd;&#xd;&#xd;
  &lt;content line-spacing="0" shadow="0;#64000000;3;3;3" font-underline="0" box-height="145" font="MS Shell Dlg 2" letter-spacing="0" font-pixel-size="120" font-italic="1" typewriter="0;2;1;0;0" alignment="1" font-weight="50" gradient="#ffffb300;#ffffff00;0;100;90" box-width="1409" font-color="0,0,0,255">HALLOWEENI VÄIKE FILM&lt;/content>&#xd;&#xd;&#xd;
 &lt;/item>&#xd;&#xd;&#xd;
 &lt;startviewport rect="0,0,1920,1080"/>&#xd;&#xd;&#xd;
 &lt;endviewport rect="0,0,1920,1080"/>&#xd;&#xd;&#xd;
 &lt;background color="0,0,0,0"/>&#xd;&#xd;&#xd;
&lt;/kdenlivetitle>&#xd;&#xd;&#xd;
</property>
  <property name="kdenlive:folderid">2</property>
  <property name="kdenlive:id">49</property>
  <property name="kdenlive:clip_type">2</property>
  <property name="kdenlive:file_hash">fa32b1e58e0babfb0d8cf30b727631bb</property>
  <property name="force_reload">0</property>
  <property name="meta.media.width">1920</property>
  <property name="meta.media.height">1080</property>
 </producer>
 <producer id="producer11" in="00:00:00.000" out="00:00:07.360">
  <property name="length">185</property>
  <property name="eof">pause</property>
  <property name="resource"/>
  <property name="meta.media.progressive">1</property>
  <property name="aspect_ratio">1</property>
  <property name="seekable">1</property>
  <property name="mlt_service">kdenlivetitle</property>
  <property name="progressive">1</property>
  <property name="kdenlive:duration">00:00:05:00</property>
  <property name="kdenlive:clipname">TEGI MARTIN EESMAA</property>
  <property name="xmldata">&lt;kdenlivetitle duration="125" LC_NUMERIC="C" width="1920" height="1080" out="124">&#xd;&#xd;&#xd;
 &lt;item type="QGraphicsTextItem" z-index="0">&#xd;&#xd;&#xd;
  &lt;position x="355" y="467">&#xd;&#xd;&#xd;
   &lt;transform>1,0,0,0,1,0,0,0,1&lt;/transform>&#xd;&#xd;&#xd;
  &lt;/position>&#xd;&#xd;&#xd;
  &lt;content line-spacing="0" shadow="0;#64000000;3;3;3" font-underline="0" box-height="145" font="MS Shell Dlg 2" letter-spacing="0" font-pixel-size="120" font-italic="0" typewriter="0;2;1;0;0" alignment="1" font-weight="50" gradient="#ffffb300;#ffffff00;0;100;90" box-width="1209" font-color="0,0,0,255">TEGI MARTIN EESMAA&lt;/content>&#xd;&#xd;&#xd;
 &lt;/item>&#xd;&#xd;&#xd;
 &lt;startviewport rect="0,0,1920,1080"/>&#xd;&#xd;&#xd;
 &lt;endviewport rect="0,0,1920,1080"/>&#xd;&#xd;&#xd;
 &lt;background color="0,0,0,0"/>&#xd;&#xd;&#xd;
&lt;/kdenlivetitle>&#xd;&#xd;&#xd;
</property>
  <property name="kdenlive:folderid">2</property>
  <property name="kdenlive:id">50</property>
  <property name="kdenlive:clip_type">2</property>
  <property name="kdenlive:file_hash">3dc142cc499532e417b9998fd12a6832</property>
  <property name="force_reload">0</property>
  <property name="meta.media.width">1920</property>
  <property name="meta.media.height">1080</property>
 </producer>
 <producer id="producer12" in="00:00:00.000" out="00:00:04.960">
  <property name="length">00:00:05.000</property>
  <property name="eof">pause</property>
  <property name="resource">VID_20191031_203651-f000000.png</property>
  <property name="ttl">25</property>
  <property name="aspect_ratio">1</property>
  <property name="meta.media.progressive">1</property>
  <property name="seekable">1</property>
  <property name="format">2</property>
  <property name="meta.media.width">1920</property>
  <property name="meta.media.height">1080</property>
  <property name="mlt_service">qimage</property>
  <property name="progressive">1</property>
  <property name="kdenlive:clipname"/>
  <property name="kdenlive:duration">00:00:05:00</property>
  <property name="kdenlive:folderid">-1</property>
  <property name="kdenlive:id">51</property>
  <property name="kdenlive:clip_type">2</property>
  <property name="kdenlive:file_size">1158192</property>
  <property name="kdenlive:file_hash">0067f32d5198495912bf81e8da757e20</property>
 </producer>
 <producer id="producer23" in="00:00:00.000" out="00:00:04.960">
  <property name="length">125</property>
  <property name="eof">pause</property>
  <property name="resource"/>
  <property name="meta.media.progressive">1</property>
  <property name="aspect_ratio">1</property>
  <property name="seekable">1</property>
  <property name="mlt_service">kdenlivetitle</property>
  <property name="kdenlive:duration">00:00:05:00</property>
  <property name="progressive">1</property>
  <property name="kdenlive:clipname">MÕNE MINUTID HILJEM...</property>
  <property name="xmldata">&lt;kdenlivetitle duration="125" LC_NUMERIC="C" width="1920" height="1080" out="124">&#xd;&#xd;&#xd;
 &lt;item type="QGraphicsTextItem" z-index="0">&#xd;&#xd;&#xd;
  &lt;position x="272" y="467">&#xd;&#xd;&#xd;
   &lt;transform>1,0,0,0,1,0,0,0,1&lt;/transform>&#xd;&#xd;&#xd;
  &lt;/position>&#xd;&#xd;&#xd;
  &lt;content line-spacing="0" shadow="0;#64000000;3;3;3" font-underline="0" box-height="145" font="MS Shell Dlg 2" letter-spacing="0" font-pixel-size="120" font-italic="0" typewriter="0;2;1;0;0" alignment="1" font-weight="50" gradient="#ffff0004;#ff0000ff;0;100;90" box-width="1395" font-color="0,0,0,255">MÕNE MINUTID HILJEM...&lt;/content>&#xd;&#xd;&#xd;
 &lt;/item>&#xd;&#xd;&#xd;
 &lt;startviewport rect="0,0,1920,1080"/>&#xd;&#xd;&#xd;
 &lt;endviewport rect="0,0,1920,1080"/>&#xd;&#xd;&#xd;
 &lt;background color="0,0,0,0"/>&#xd;&#xd;&#xd;
&lt;/kdenlivetitle>&#xd;&#xd;&#xd;
</property>
  <property name="kdenlive:folderid">-1</property>
  <property name="kdenlive:id">52</property>
  <property name="kdenlive:clip_type">2</property>
  <property name="kdenlive:file_hash">063dd8518655ef46a31dd4591d37f31e</property>
  <property name="force_reload">0</property>
  <property name="meta.media.width">1920</property>
  <property name="meta.media.height">1080</property>
 </producer>
 <producer id="producer24" in="00:00:00.000" out="00:00:09.960">
  <property name="length">250</property>
  <property name="eof">pause</property>
  <property name="resource"/>
  <property name="meta.media.progressive">1</property>
  <property name="aspect_ratio">1</property>
  <property name="seekable">1</property>
  <property name="mlt_service">kdenlivetitle</property>
  <property name="progressive">1</property>
  <property name="kdenlive:duration">00:00:10:00</property>
  <property name="kdenlive:clipname">Cast Martin ...</property>
  <property name="xmldata">&lt;kdenlivetitle duration="250" LC_NUMERIC="C" width="1920" height="1080" out="249">&#xd;&#xd;&#xd;
 &lt;item type="QGraphicsTextItem" z-index="0">&#xd;&#xd;&#xd;
  &lt;position x="-229" y="50">&#xd;&#xd;&#xd;
   &lt;transform>1,0,0,0,1,0,0,0,1&lt;/transform>&#xd;&#xd;&#xd;
  &lt;/position>&#xd;&#xd;&#xd;
  &lt;content line-spacing="0" shadow="0;#64000000;3;3;3" font-underline="0" box-height="2175" font="MS Shell Dlg 2" letter-spacing="0" font-pixel-size="120" font-italic="0" typewriter="0;2;1;0;0" alignment="1" font-weight="50" box-width="2094" font-color="255,255,255,255">                           Tegelased&#xd;&#xd;&#xd;
          Martin Eesmaa    Martin Eesmaa&#xd;&#xd;&#xd;
          Martin Eesmaa    Halloween Kid&#xd;&#xd;&#xd;
          Kirjutatud Martin Eesmaa&#xd;&#xd;&#xd;
          Rešižöör Martin Eesmaa&#xd;&#xd;&#xd;
          Muudetud Martin Eesmaa&#xd;&#xd;&#xd;
          Hääl Martin Eesmaa&#xd;&#xd;&#xd;
          Kaamera Martin Eesmaa&#xd;&#xd;&#xd;
          Muusika Kevin Macleod&#xd;&#xd;&#xd;
&#xd;&#xd;&#xd;
&#xd;&#xd;&#xd;
&#xd;&#xd;&#xd;
                          Lõpp&#xd;&#xd;&#xd;
&#xd;&#xd;&#xd;
          CC-BY-SA 2023 Martin Eesmaa&lt;/content>&#xd;&#xd;&#xd;
 &lt;/item>&#xd;&#xd;&#xd;
 &lt;startviewport rect="0,-1129,1920,1080"/>&#xd;&#xd;&#xd;
 &lt;endviewport rect="0,2250,1920,1080"/>&#xd;&#xd;&#xd;
 &lt;background color="0,0,0,0"/>&#xd;&#xd;&#xd;
&lt;/kdenlivetitle>&#xd;&#xd;&#xd;
</property>
  <property name="kdenlive:folderid">-1</property>
  <property name="kdenlive:id">53</property>
  <property name="kdenlive:clip_type">2</property>
  <property name="kdenlive:file_hash">e5b06b8f2701878811aa80cd0fba7005</property>
  <property name="force_reload">0</property>
  <property name="meta.media.width">1920</property>
  <property name="meta.media.height">1080</property>
 </producer>
 <producer id="producer22" in="00:00:00.000" out="00:00:04.960">
  <property name="length">125</property>
  <property name="eof">pause</property>
  <property name="resource"/>
  <property name="meta.media.progressive">1</property>
  <property name="aspect_ratio">1</property>
  <property name="seekable">1</property>
  <property name="mlt_service">kdenlivetitle</property>
  <property name="progressive">1</property>
  <property name="kdenlive:duration">00:00:05:00</property>
  <property name="kdenlive:clipname">1 komm = 1 meeldib</property>
  <property name="xmldata">&lt;kdenlivetitle duration="125" LC_NUMERIC="C" width="1920" height="1080" out="124">&#xd;
 &lt;item type="QGraphicsTextItem" z-index="0">&#xd;
  &lt;position x="266" y="845">&#xd;
   &lt;transform>1,0,0,0,1,0,0,0,1&lt;/transform>&#xd;
  &lt;/position>&#xd;
  &lt;content line-spacing="0" shadow="0;#64000000;3;0;3" font-underline="0" box-height="181" font-outline-color="0,0,0,255" font="MS Shell Dlg 2" letter-spacing="0" font-pixel-size="150" font-italic="0" typewriter="0;2;1;0;0" alignment="1" font-weight="50" gradient="#ff0000ff;#ff00ffff;0;100;90" font-outline="5" box-width="1387" font-color="0,0,0,255">1 komm = 1 meeldib&lt;/content>&#xd;
 &lt;/item>&#xd;
 &lt;startviewport rect="0,0,1920,1080"/>&#xd;
 &lt;endviewport rect="0,0,1920,1080"/>&#xd;
 &lt;background color="0,0,0,0"/>&#xd;
&lt;/kdenlivetitle>&#xd;
</property>
  <property name="kdenlive:folderid">-1</property>
  <property name="kdenlive:id">54</property>
  <property name="kdenlive:clip_type">2</property>
  <property name="kdenlive:file_hash">a1339103c2454de6e0dbec63ae3faa7c</property>
  <property name="force_reload">0</property>
  <property name="meta.media.width">1920</property>
  <property name="meta.media.height">1080</property>
 </producer>
 <chain id="chain69" out="00:00:05.040">
  <property name="length">127</property>
  <property name="eof">pause</property>
  <property name="resource">muuusintro_kdenlive.mkv</property>
  <property name="mlt_service">avformat-novalidate</property>
  <property name="meta.media.nb_streams">2</property>
  <property name="meta.media.0.stream.type">video</property>
  <property name="meta.media.0.stream.frame_rate">25</property>
  <property name="meta.media.0.stream.sample_aspect_ratio">1</property>
  <property name="meta.media.0.codec.width">1920</property>
  <property name="meta.media.0.codec.height">1080</property>
  <property name="meta.media.0.codec.rotate">0</property>
  <property name="meta.media.0.codec.pix_fmt">yuv420p</property>
  <property name="meta.media.0.codec.sample_aspect_ratio">1</property>
  <property name="meta.media.0.codec.colorspace">709</property>
  <property name="meta.media.0.codec.color_trc">1</property>
  <property name="meta.media.0.codec.name">h264</property>
  <property name="meta.media.0.codec.long_name">H.264 / AVC / MPEG-4 AVC / MPEG-4 part 10</property>
  <property name="meta.media.0.codec.bit_rate">0</property>
  <property name="meta.media.1.stream.type">audio</property>
  <property name="meta.media.1.codec.sample_fmt">s16</property>
  <property name="meta.media.1.codec.sample_rate">48000</property>
  <property name="meta.media.1.codec.channels">2</property>
  <property name="meta.media.1.codec.name">flac</property>
  <property name="meta.media.1.codec.long_name">FLAC (Free Lossless Audio Codec)</property>
  <property name="meta.media.1.codec.bit_rate">0</property>
  <property name="seekable">1</property>
  <property name="meta.media.sample_aspect_num">1</property>
  <property name="meta.media.sample_aspect_den">1</property>
  <property name="audio_index">1</property>
  <property name="video_index">0</property>
  <property name="meta.media.frame_rate_num">25</property>
  <property name="meta.media.frame_rate_den">1</property>
  <property name="meta.media.colorspace">709</property>
  <property name="meta.media.color_trc">1</property>
  <property name="meta.media.has_b_frames">0</property>
  <property name="meta.media.width">1920</property>
  <property name="meta.media.height">1080</property>
  <property name="meta.media.color_range">mpeg</property>
  <property name="kdenlive:clipname"/>
  <property name="meta.media.top_field_first">0</property>
  <property name="meta.media.progressive">1</property>
  <property name="kdenlive:clip_type">0</property>
  <property name="kdenlive:folderid">-1</property>
  <property name="kdenlive:id">55</property>
  <property name="kdenlive:file_size">7951294</property>
  <property name="kdenlive:file_hash">27c4d0b2b47eaeb319731f4628f15fbb</property>
  <property name="kdenlive:audio_max1">238</property>
  <property name="kdenlive:zone_in">0</property>
  <property name="kdenlive:zone_out">125</property>
 </chain>
 <chain id="chain94" out="00:00:07.280">
  <property name="length">183</property>
  <property name="eof">pause</property>
  <property name="resource">EESTIKEELHAALED/Hääl-75.flac</property>
  <property name="mlt_service">avformat</property>
  <property name="meta.media.nb_streams">1</property>
  <property name="meta.media.0.stream.type">audio</property>
  <property name="meta.media.0.codec.sample_fmt">s16</property>
  <property name="meta.media.0.codec.sample_rate">48000</property>
  <property name="meta.media.0.codec.channels">1</property>
  <property name="meta.media.0.codec.name">flac</property>
  <property name="meta.media.0.codec.long_name">FLAC (Free Lossless Audio Codec)</property>
  <property name="meta.media.0.codec.bit_rate">0</property>
  <property name="seekable">1</property>
  <property name="audio_index">0</property>
  <property name="video_index">-1</property>
  <property name="kdenlive:clipname"/>
  <property name="kdenlive:clip_type">1</property>
  <property name="kdenlive:folderid">-1</property>
  <property name="kdenlive:id">56</property>
  <property name="kdenlive:file_size">223726</property>
  <property name="kdenlive:audio_max0">133</property>
  <property name="kdenlive:zone_in">63</property>
  <property name="kdenlive:zone_out">183</property>
  <property name="kdenlive:file_hash">312abc972b2440ef26bfd555f17c56da</property>
 </chain>
 <chain id="chain97" out="00:00:04.360">
  <property name="length">110</property>
  <property name="eof">pause</property>
  <property name="resource">EESTIKEELHAALED/Hääl-76.flac</property>
  <property name="mlt_service">avformat</property>
  <property name="meta.media.nb_streams">1</property>
  <property name="meta.media.0.stream.type">audio</property>
  <property name="meta.media.0.codec.sample_fmt">s16</property>
  <property name="meta.media.0.codec.sample_rate">48000</property>
  <property name="meta.media.0.codec.channels">1</property>
  <property name="meta.media.0.codec.name">flac</property>
  <property name="meta.media.0.codec.long_name">FLAC (Free Lossless Audio Codec)</property>
  <property name="meta.media.0.codec.bit_rate">0</property>
  <property name="seekable">1</property>
  <property name="audio_index">0</property>
  <property name="video_index">-1</property>
  <property name="kdenlive:clipname"/>
  <property name="kdenlive:clip_type">1</property>
  <property name="kdenlive:folderid">-1</property>
  <property name="kdenlive:id">57</property>
  <property name="kdenlive:file_size">135186</property>
  <property name="kdenlive:audio_max0">133</property>
  <property name="kdenlive:zone_in">52</property>
  <property name="kdenlive:zone_out">64</property>
  <property name="kdenlive:file_hash">86c1b61b9181e445861e886fc001f62c</property>
 </chain>
 <chain id="chain92" out="00:00:03.800">
  <property name="length">96</property>
  <property name="eof">pause</property>
  <property name="resource">EESTIKEELHAALED/Hääl-77.flac</property>
  <property name="mlt_service">avformat</property>
  <property name="meta.media.nb_streams">1</property>
  <property name="meta.media.0.stream.type">audio</property>
  <property name="meta.media.0.codec.sample_fmt">s16</property>
  <property name="meta.media.0.codec.sample_rate">48000</property>
  <property name="meta.media.0.codec.channels">1</property>
  <property name="meta.media.0.codec.name">flac</property>
  <property name="meta.media.0.codec.long_name">FLAC (Free Lossless Audio Codec)</property>
  <property name="meta.media.0.codec.bit_rate">0</property>
  <property name="seekable">1</property>
  <property name="audio_index">0</property>
  <property name="video_index">-1</property>
  <property name="kdenlive:clipname"/>
  <property name="kdenlive:clip_type">1</property>
  <property name="kdenlive:folderid">-1</property>
  <property name="kdenlive:id">58</property>
  <property name="kdenlive:file_size">124435</property>
  <property name="kdenlive:audio_max0">166</property>
  <property name="kdenlive:zone_in">43</property>
  <property name="kdenlive:zone_out">74</property>
  <property name="kdenlive:file_hash">dc8fd0a1ff44e283cc76097af9e6c3e3</property>
 </chain>
 <chain id="chain88" out="00:00:09.800">
  <property name="length">246</property>
  <property name="eof">pause</property>
  <property name="resource">EESTIKEELHAALED/Hääl-78.flac</property>
  <property name="mlt_service">avformat</property>
  <property name="meta.media.nb_streams">1</property>
  <property name="meta.media.0.stream.type">audio</property>
  <property name="meta.media.0.codec.sample_fmt">s16</property>
  <property name="meta.media.0.codec.sample_rate">48000</property>
  <property name="meta.media.0.codec.channels">1</property>
  <property name="meta.media.0.codec.name">flac</property>
  <property name="meta.media.0.codec.long_name">FLAC (Free Lossless Audio Codec)</property>
  <property name="meta.media.0.codec.bit_rate">0</property>
  <property name="seekable">1</property>
  <property name="audio_index">0</property>
  <property name="video_index">-1</property>
  <property name="kdenlive:clipname"/>
  <property name="kdenlive:clip_type">1</property>
  <property name="kdenlive:folderid">-1</property>
  <property name="kdenlive:id">59</property>
  <property name="kdenlive:file_size">303787</property>
  <property name="kdenlive:audio_max0">142</property>
  <property name="kdenlive:zone_in">122</property>
  <property name="kdenlive:zone_out">149</property>
  <property name="kdenlive:file_hash">630536ae4066c991676bb13540417ebd</property>
 </chain>
 <chain id="chain95" out="00:00:04.320">
  <property name="length">109</property>
  <property name="eof">pause</property>
  <property name="resource">EESTIKEELHAALED/Hääl-80.flac</property>
  <property name="mlt_service">avformat</property>
  <property name="meta.media.nb_streams">1</property>
  <property name="meta.media.0.stream.type">audio</property>
  <property name="meta.media.0.codec.sample_fmt">s16</property>
  <property name="meta.media.0.codec.sample_rate">48000</property>
  <property name="meta.media.0.codec.channels">1</property>
  <property name="meta.media.0.codec.name">flac</property>
  <property name="meta.media.0.codec.long_name">FLAC (Free Lossless Audio Codec)</property>
  <property name="meta.media.0.codec.bit_rate">0</property>
  <property name="seekable">1</property>
  <property name="audio_index">0</property>
  <property name="video_index">-1</property>
  <property name="kdenlive:clipname"/>
  <property name="kdenlive:clip_type">1</property>
  <property name="kdenlive:folderid">-1</property>
  <property name="kdenlive:id">60</property>
  <property name="kdenlive:file_size">146700</property>
  <property name="kdenlive:audio_max0">149</property>
  <property name="kdenlive:zone_in">45</property>
  <property name="kdenlive:zone_out">79</property>
  <property name="kdenlive:file_hash">5a1c7aa68b94445ee3e95d269d805739</property>
 </chain>
 <chain id="chain98" out="00:00:06.080">
  <property name="length">153</property>
  <property name="eof">pause</property>
  <property name="resource">EESTIKEELHAALED/Hääl-81.flac</property>
  <property name="mlt_service">avformat</property>
  <property name="meta.media.nb_streams">1</property>
  <property name="meta.media.0.stream.type">audio</property>
  <property name="meta.media.0.codec.sample_fmt">s16</property>
  <property name="meta.media.0.codec.sample_rate">48000</property>
  <property name="meta.media.0.codec.channels">1</property>
  <property name="meta.media.0.codec.name">flac</property>
  <property name="meta.media.0.codec.long_name">FLAC (Free Lossless Audio Codec)</property>
  <property name="meta.media.0.codec.bit_rate">0</property>
  <property name="seekable">1</property>
  <property name="audio_index">0</property>
  <property name="video_index">-1</property>
  <property name="kdenlive:clipname"/>
  <property name="kdenlive:clip_type">1</property>
  <property name="kdenlive:folderid">-1</property>
  <property name="kdenlive:id">61</property>
  <property name="kdenlive:file_size">219241</property>
  <property name="kdenlive:audio_max0">148</property>
  <property name="kdenlive:zone_in">55</property>
  <property name="kdenlive:zone_out">132</property>
  <property name="kdenlive:file_hash">d37c6a7fcc0bb5aad839b5db9d847788</property>
 </chain>
 <chain id="chain96" out="00:00:04.760">
  <property name="length">120</property>
  <property name="eof">pause</property>
  <property name="resource">EESTIKEELHAALED/Hääl-82.flac</property>
  <property name="mlt_service">avformat</property>
  <property name="meta.media.nb_streams">1</property>
  <property name="meta.media.0.stream.type">audio</property>
  <property name="meta.media.0.codec.sample_fmt">s16</property>
  <property name="meta.media.0.codec.sample_rate">48000</property>
  <property name="meta.media.0.codec.channels">1</property>
  <property name="meta.media.0.codec.name">flac</property>
  <property name="meta.media.0.codec.long_name">FLAC (Free Lossless Audio Codec)</property>
  <property name="meta.media.0.codec.bit_rate">0</property>
  <property name="seekable">1</property>
  <property name="audio_index">0</property>
  <property name="video_index">-1</property>
  <property name="kdenlive:clipname"/>
  <property name="kdenlive:clip_type">1</property>
  <property name="kdenlive:folderid">-1</property>
  <property name="kdenlive:id">62</property>
  <property name="kdenlive:file_size">151863</property>
  <property name="kdenlive:audio_max0">148</property>
  <property name="kdenlive:zone_in">82</property>
  <property name="kdenlive:zone_out">106</property>
  <property name="kdenlive:file_hash">1daddea533182cc4855444a0c53069db</property>
 </chain>
 <chain id="chain89" out="00:00:11.560">
  <property name="length">290</property>
  <property name="eof">pause</property>
  <property name="resource">EESTIKEELHAALED/Hääl-83.flac</property>
  <property name="mlt_service">avformat</property>
  <property name="meta.media.nb_streams">1</property>
  <property name="meta.media.0.stream.type">audio</property>
  <property name="meta.media.0.codec.sample_fmt">s16</property>
  <property name="meta.media.0.codec.sample_rate">48000</property>
  <property name="meta.media.0.codec.channels">1</property>
  <property name="meta.media.0.codec.name">flac</property>
  <property name="meta.media.0.codec.long_name">FLAC (Free Lossless Audio Codec)</property>
  <property name="meta.media.0.codec.bit_rate">0</property>
  <property name="seekable">1</property>
  <property name="audio_index">0</property>
  <property name="video_index">-1</property>
  <property name="kdenlive:clipname"/>
  <property name="kdenlive:clip_type">1</property>
  <property name="kdenlive:folderid">-1</property>
  <property name="kdenlive:id">63</property>
  <property name="kdenlive:file_size">386607</property>
  <property name="kdenlive:audio_max0">144</property>
  <property name="kdenlive:zone_in">74</property>
  <property name="kdenlive:zone_out">164</property>
  <property name="kdenlive:file_hash">63abacd2ceb11fa83a125758c014449a</property>
 </chain>
 <chain id="chain90" out="00:00:03.920">
  <property name="length">99</property>
  <property name="eof">pause</property>
  <property name="resource">EESTIKEELHAALED/Hääl-84.flac</property>
  <property name="mlt_service">avformat</property>
  <property name="meta.media.nb_streams">1</property>
  <property name="meta.media.0.stream.type">audio</property>
  <property name="meta.media.0.codec.sample_fmt">s16</property>
  <property name="meta.media.0.codec.sample_rate">48000</property>
  <property name="meta.media.0.codec.channels">1</property>
  <property name="meta.media.0.codec.name">flac</property>
  <property name="meta.media.0.codec.long_name">FLAC (Free Lossless Audio Codec)</property>
  <property name="meta.media.0.codec.bit_rate">0</property>
  <property name="seekable">1</property>
  <property name="audio_index">0</property>
  <property name="video_index">-1</property>
  <property name="kdenlive:clipname"/>
  <property name="kdenlive:clip_type">1</property>
  <property name="kdenlive:folderid">-1</property>
  <property name="kdenlive:id">64</property>
  <property name="kdenlive:file_size">136512</property>
  <property name="kdenlive:audio_max0">146</property>
  <property name="kdenlive:zone_in">41</property>
  <property name="kdenlive:zone_out">78</property>
  <property name="kdenlive:file_hash">1eb21865f9496b1fcaaa374c792442cd</property>
 </chain>
 <chain id="chain91" out="00:01:14.800">
  <property name="length">1871</property>
  <property name="eof">pause</property>
  <property name="resource">EESTIKEELHAALED/Hääl-87.flac</property>
  <property name="mlt_service">avformat</property>
  <property name="meta.media.nb_streams">1</property>
  <property name="meta.media.0.stream.type">audio</property>
  <property name="meta.media.0.codec.sample_fmt">s16</property>
  <property name="meta.media.0.codec.sample_rate">48000</property>
  <property name="meta.media.0.codec.channels">1</property>
  <property name="meta.media.0.codec.name">flac</property>
  <property name="meta.media.0.codec.long_name">FLAC (Free Lossless Audio Codec)</property>
  <property name="meta.media.0.codec.bit_rate">0</property>
  <property name="seekable">1</property>
  <property name="audio_index">0</property>
  <property name="video_index">-1</property>
  <property name="kdenlive:clipname"/>
  <property name="kdenlive:clip_type">1</property>
  <property name="kdenlive:folderid">-1</property>
  <property name="kdenlive:id">65</property>
  <property name="kdenlive:file_size">2791823</property>
  <property name="kdenlive:audio_max0">153</property>
  <property name="kdenlive:zone_in">1536</property>
  <property name="kdenlive:zone_out">1605</property>
  <property name="kdenlive:file_hash">8a0ba6d79e674f319f922d5be8133ae9</property>
 </chain>
 <chain id="chain93" out="00:01:30.960">
  <property name="length">2275</property>
  <property name="eof">pause</property>
  <property name="resource">EESTIKEELHAALED/Hääl-88.flac</property>
  <property name="mlt_service">avformat</property>
  <property name="meta.media.nb_streams">1</property>
  <property name="meta.media.0.stream.type">audio</property>
  <property name="meta.media.0.codec.sample_fmt">s16</property>
  <property name="meta.media.0.codec.sample_rate">48000</property>
  <property name="meta.media.0.codec.channels">1</property>
  <property name="meta.media.0.codec.name">flac</property>
  <property name="meta.media.0.codec.long_name">FLAC (Free Lossless Audio Codec)</property>
  <property name="meta.media.0.codec.bit_rate">0</property>
  <property name="seekable">1</property>
  <property name="audio_index">0</property>
  <property name="video_index">-1</property>
  <property name="kdenlive:clipname"/>
  <property name="kdenlive:clip_type">1</property>
  <property name="kdenlive:folderid">-1</property>
  <property name="kdenlive:id">66</property>
  <property name="kdenlive:file_size">3171843</property>
  <property name="kdenlive:audio_max0">174</property>
  <property name="kdenlive:zone_in">1649</property>
  <property name="kdenlive:zone_out">1675</property>
  <property name="kdenlive:file_hash">fdd56c7add064fe7c5b640f5a3cccc3a</property>
 </chain>
 <producer id="producer0" in="00:00:00.000" out="00:25:04.680">
  <property name="length">2147483647</property>
  <property name="eof">continue</property>
  <property name="resource">black</property>
  <property name="aspect_ratio">1</property>
  <property name="mlt_service">color</property>
  <property name="kdenlive:playlistid">black_track</property>
  <property name="mlt_image_format">rgba</property>
  <property name="set.test_audio">0</property>
 </producer>
 <chain id="chain0" out="00:04:22.440">
  <property name="length">6562</property>
  <property name="eof">pause</property>
  <property name="resource">Right Behind You.mp3</property>
  <property name="mlt_service">avformat-novalidate</property>
  <property name="seekable">1</property>
  <property name="audio_index">0</property>
  <property name="video_index">-1</property>
  <property name="kdenlive:clipname"/>
  <property name="kdenlive:clip_type">1</property>
  <property name="kdenlive:folderid">-1</property>
  <property name="kdenlive:id">23</property>
  <property name="kdenlive:file_size">9445243</property>
  <property name="kdenlive:file_hash">d3c8ae1e7c451b5e070d6dfe7e0e10d3</property>
  <property name="kdenlive:audio_max0">209</property>
  <property name="kdenlive:zone_in">30</property>
  <property name="kdenlive:zone_out">466</property>
  <property name="meta.media.nb_streams">1</property>
  <property name="meta.media.0.stream.type">audio</property>
  <property name="meta.media.0.codec.sample_fmt">fltp</property>
  <property name="meta.media.0.codec.sample_rate">48000</property>
  <property name="meta.media.0.codec.channels">2</property>
  <property name="meta.media.0.codec.name">mp3float</property>
  <property name="meta.media.0.codec.long_name">MP3 (MPEG audio layer 3)</property>
  <property name="meta.media.0.codec.bit_rate">287830</property>
  <property name="meta.attr.iTunPGAP.markup">0</property>
  <property name="meta.attr.encoded_by.markup">iTunes 9.1.1</property>
  <property name="meta.attr.iTunNORM.markup"> 000002C7 0000030D 00004D11 000059CE 00029F70 0002A060 00007486 00007EDE 00039A80 00029F88</property>
  <property name="meta.attr.iTunSMPB.markup"> 00000000 00000210 000009F0 0000000000C03000 00000000 00A01400 00000000 00000000 00000000 00000000 00000000 00000000</property>
  <property name="meta.attr.title.markup">Right Behind You</property>
  <property name="meta.attr.artist.markup">Kevin MacLeod</property>
  <property name="meta.attr.TCM.markup">Kevin MacLeod</property>
  <property name="meta.attr.album.markup">Royalty Free</property>
  <property name="meta.attr.date.markup">2010</property>
  <property name="xml">was here</property>
  <property name="set.test_audio">0</property>
  <property name="set.test_image">1</property>
 </chain>
 <producer id="producer5" in="00:00:00.000" out="00:00:15.600">
  <property name="length">392</property>
  <property name="eof">pause</property>
  <property name="resource">2.000000:Creepy Closing Door Sound - Front Door Sound Effect [8u7my5BfVgw].webm</property>
  <property name="aspect_ratio">1</property>
  <property name="meta.media.nb_streams">1</property>
  <property name="meta.media.0.stream.type">audio</property>
  <property name="meta.media.0.codec.sample_fmt">fltp</property>
  <property name="meta.media.0.codec.sample_rate">48000</property>
  <property name="meta.media.0.codec.channels">2</property>
  <property name="meta.media.0.codec.name">opus</property>
  <property name="meta.media.0.codec.long_name">Opus</property>
  <property name="meta.media.0.codec.bit_rate">0</property>
  <property name="meta.attr.0.stream.language.markup">eng</property>
  <property name="meta.attr.encoder.markup">google</property>
  <property name="seekable">1</property>
  <property name="audio_index">0</property>
  <property name="video_index">-1</property>
  <property name="warp_speed">2</property>
  <property name="warp_resource">Creepy Closing Door Sound - Front Door Sound Effect [8u7my5BfVgw].webm</property>
  <property name="mlt_service">timewarp</property>
  <property name="kdenlive:proxy">-</property>
  <property name="kdenlive:originalurl">Creepy Closing Door Sound - Front Door Sound Effect [8u7my5BfVgw].webm</property>
  <property name="set.test_audio">0</property>
  <property name="set.test_image">1</property>
  <property name="kdenlive:id">13</property>
  <property name="warp_pitch">0</property>
 </producer>
 <chain id="chain1" out="00:00:15.280">
  <property name="length">383</property>
  <property name="eof">pause</property>
  <property name="resource">KnockHalloween.m4a</property>
  <property name="mlt_service">avformat-novalidate</property>
  <property name="seekable">1</property>
  <property name="audio_index">0</property>
  <property name="video_index">-1</property>
  <property name="kdenlive:clipname"/>
  <property name="kdenlive:clip_type">1</property>
  <property name="kdenlive:folderid">-1</property>
  <property name="kdenlive:id">21</property>
  <property name="kdenlive:file_size">526199</property>
  <property name="kdenlive:file_hash">05357b379d4b1b1d5bf3687136566790</property>
  <property name="kdenlive:audio_max0">201</property>
  <property name="kdenlive:zone_in">144</property>
  <property name="kdenlive:zone_out">382</property>
  <property name="meta.media.nb_streams">1</property>
  <property name="meta.media.0.stream.type">audio</property>
  <property name="meta.media.0.codec.sample_fmt">fltp</property>
  <property name="meta.media.0.codec.sample_rate">48000</property>
  <property name="meta.media.0.codec.channels">1</property>
  <property name="meta.media.0.codec.name">aac</property>
  <property name="meta.media.0.codec.long_name">AAC (Advanced Audio Coding)</property>
  <property name="meta.media.0.codec.bit_rate">255999</property>
  <property name="meta.attr.0.stream.creation_time.markup">2019-10-31T09:29:30.000000Z</property>
  <property name="meta.attr.0.stream.language.markup">eng</property>
  <property name="meta.attr.0.stream.handler_name.markup">SoundHandle</property>
  <property name="meta.attr.0.stream.vendor_id.markup">[0][0][0][0]</property>
  <property name="meta.attr.major_brand.markup">3gp4</property>
  <property name="meta.attr.minor_version.markup">0</property>
  <property name="meta.attr.compatible_brands.markup">isom3gp4</property>
  <property name="meta.attr.creation_time.markup">2019-10-31T09:29:30.000000Z</property>
  <property name="meta.attr.com.android.version.markup">9</property>
  <property name="xml">was here</property>
  <property name="set.test_audio">0</property>
  <property name="set.test_image">1</property>
 </chain>
 <chain id="chain2" out="00:00:27.920">
  <property name="length">699</property>
  <property name="eof">pause</property>
  <property name="resource">Horror Sound Effect - Creaking Door Open.mp3</property>
  <property name="mlt_service">avformat-novalidate</property>
  <property name="seekable">1</property>
  <property name="audio_index">0</property>
  <property name="video_index">-1</property>
  <property name="kdenlive:clipname"/>
  <property name="kdenlive:clip_type">1</property>
  <property name="kdenlive:folderid">-1</property>
  <property name="kdenlive:id">20</property>
  <property name="kdenlive:file_size">1026390</property>
  <property name="kdenlive:file_hash">5d9af876862db66a93e4b346a254cac0</property>
  <property name="kdenlive:audio_max0">178</property>
  <property name="kdenlive:zone_in">67</property>
  <property name="kdenlive:zone_out">698</property>
  <property name="meta.media.nb_streams">1</property>
  <property name="meta.media.0.stream.type">audio</property>
  <property name="meta.media.0.codec.sample_fmt">fltp</property>
  <property name="meta.media.0.codec.sample_rate">44100</property>
  <property name="meta.media.0.codec.channels">2</property>
  <property name="meta.media.0.codec.name">mp3float</property>
  <property name="meta.media.0.codec.long_name">MP3 (MPEG audio layer 3)</property>
  <property name="meta.media.0.codec.bit_rate">293232</property>
  <property name="meta.attr.major_brand.markup">mp42</property>
  <property name="meta.attr.minor_version.markup">0</property>
  <property name="meta.attr.compatible_brands.markup">isommp42</property>
  <property name="meta.attr.encoder.markup">Lavf58.27.103</property>
  <property name="xml">was here</property>
  <property name="set.test_audio">0</property>
  <property name="set.test_image">1</property>
 </chain>
 <chain id="chain9" out="00:01:30.960">
  <property name="length">2275</property>
  <property name="eof">pause</property>
  <property name="resource">EESTIKEELHAALED/Hääl-88.flac</property>
  <property name="mlt_service">avformat-novalidate</property>
  <property name="seekable">1</property>
  <property name="audio_index">0</property>
  <property name="video_index">-1</property>
  <property name="kdenlive:clipname"/>
  <property name="kdenlive:clip_type">1</property>
  <property name="kdenlive:folderid">-1</property>
  <property name="kdenlive:id">66</property>
  <property name="kdenlive:file_size">3171843</property>
  <property name="kdenlive:audio_max0">174</property>
  <property name="kdenlive:zone_in">1649</property>
  <property name="kdenlive:zone_out">1675</property>
  <property name="kdenlive:file_hash">fdd56c7add064fe7c5b640f5a3cccc3a</property>
  <property name="meta.media.nb_streams">1</property>
  <property name="meta.media.0.stream.type">audio</property>
  <property name="meta.media.0.codec.sample_fmt">s16</property>
  <property name="meta.media.0.codec.sample_rate">48000</property>
  <property name="meta.media.0.codec.channels">1</property>
  <property name="meta.media.0.codec.name">flac</property>
  <property name="meta.media.0.codec.long_name">FLAC (Free Lossless Audio Codec)</property>
  <property name="meta.media.0.codec.bit_rate">0</property>
  <property name="xml">was here</property>
  <property name="mute_on_pause">0</property>
  <property name="set.test_audio">0</property>
  <property name="set.test_image">1</property>
 </chain>
 <chain id="chain14" out="00:00:31.280">
  <property name="length">783</property>
  <property name="eof">pause</property>
  <property name="resource">Creepy Closing Door Sound - Front Door Sound Effect [8u7my5BfVgw].webm</property>
  <property name="mlt_service">avformat-novalidate</property>
  <property name="seekable">1</property>
  <property name="audio_index">0</property>
  <property name="video_index">-1</property>
  <property name="kdenlive:clipname"/>
  <property name="kdenlive:clip_type">1</property>
  <property name="kdenlive:proxy">-</property>
  <property name="kdenlive:originalurl">Creepy Closing Door Sound - Front Door Sound Effect [8u7my5BfVgw].webm</property>
  <property name="kdenlive:id">13</property>
  <property name="kdenlive:file_size">535905</property>
  <property name="kdenlive:file_hash">bf90861be430609fdad2c2191c7e286d</property>
  <property name="kdenlive:folderid">-1</property>
  <property name="meta.media.nb_streams">1</property>
  <property name="meta.media.0.stream.type">audio</property>
  <property name="meta.media.0.codec.sample_fmt">fltp</property>
  <property name="meta.media.0.codec.sample_rate">48000</property>
  <property name="meta.media.0.codec.channels">2</property>
  <property name="meta.media.0.codec.name">opus</property>
  <property name="meta.media.0.codec.long_name">Opus</property>
  <property name="meta.media.0.codec.bit_rate">0</property>
  <property name="meta.attr.0.stream.language.markup">eng</property>
  <property name="meta.attr.encoder.markup">google</property>
  <property name="xml">was here</property>
  <property name="mute_on_pause">0</property>
  <property name="set.test_audio">0</property>
  <property name="set.test_image">1</property>
 </chain>
 <chain id="chain20" out="00:00:10.480">
  <property name="length">263</property>
  <property name="eof">pause</property>
  <property name="resource">Sound effects ｜ Crickets at night [eaj8W6nPKUg].webm</property>
  <property name="mlt_service">avformat-novalidate</property>
  <property name="seekable">1</property>
  <property name="audio_index">0</property>
  <property name="video_index">-1</property>
  <property name="kdenlive:clipname"/>
  <property name="kdenlive:clip_type">1</property>
  <property name="kdenlive:proxy">-</property>
  <property name="kdenlive:originalurl">Sound effects ｜ Crickets at night [eaj8W6nPKUg].webm</property>
  <property name="kdenlive:id">27</property>
  <property name="kdenlive:file_size">169008</property>
  <property name="kdenlive:file_hash">588e36cb26f9ebeff189f8ed867ceb88</property>
  <property name="kdenlive:folderid">-1</property>
  <property name="kdenlive:audio_max0">127</property>
  <property name="meta.media.nb_streams">1</property>
  <property name="meta.media.0.stream.type">audio</property>
  <property name="meta.media.0.codec.sample_fmt">fltp</property>
  <property name="meta.media.0.codec.sample_rate">48000</property>
  <property name="meta.media.0.codec.channels">2</property>
  <property name="meta.media.0.codec.name">opus</property>
  <property name="meta.media.0.codec.long_name">Opus</property>
  <property name="meta.media.0.codec.bit_rate">0</property>
  <property name="meta.attr.0.stream.language.markup">eng</property>
  <property name="meta.attr.encoder.markup">google</property>
  <property name="xml">was here</property>
  <property name="mute_on_pause">0</property>
  <property name="set.test_audio">0</property>
  <property name="set.test_image">1</property>
 </chain>
 <playlist id="playlist0">
  <property name="kdenlive:audio_track">1</property>
  <blank length="00:00:16.600"/>
  <entry producer="chain0" in="00:00:01.200" out="00:00:13.560">
   <property name="kdenlive:id">23</property>
  </entry>
  <blank length="00:01:37.800"/>
  <entry producer="producer5" in="00:00:00.960" out="00:00:02.040">
   <property name="kdenlive:id">13</property>
  </entry>
  <blank length="00:00:41.080"/>
  <entry producer="chain1" in="00:00:05.760" out="00:00:08.920">
   <property name="kdenlive:id">21</property>
  </entry>
  <blank length="00:00:12.800"/>
  <entry producer="chain2" in="00:00:02.680" out="00:00:12.480">
   <property name="kdenlive:id">20</property>
  </entry>
  <blank length="00:00:20.560"/>
  <entry producer="chain9" in="00:00:46.480" out="00:00:49.360">
   <property name="kdenlive:id">66</property>
  </entry>
  <blank length="00:00:00.720"/>
  <entry producer="chain9" in="00:00:49.400" out="00:00:50.600">
   <property name="kdenlive:id">66</property>
  </entry>
  <entry producer="chain9" in="00:00:51.560" out="00:00:52.840">
   <property name="kdenlive:id">66</property>
  </entry>
  <blank length="00:00:09.840"/>
  <entry producer="chain14" in="00:00:01.920" out="00:00:03.960">
   <property name="kdenlive:id">13</property>
  </entry>
  <blank length="00:00:15.760"/>
  <entry producer="chain20" in="00:00:00.160" out="00:00:03.960">
   <property name="kdenlive:id">27</property>
   <filter id="filter0">
    <property name="window">75</property>
    <property name="max_gain">20dB</property>
    <property name="level">00:00:00.160=6</property>
    <property name="mlt_service">volume</property>
    <property name="kdenlive_id">volume</property>
    <property name="kdenlive:collapsed">0</property>
   </filter>
  </entry>
 </playlist>
 <playlist id="playlist1">
  <property name="kdenlive:audio_track">1</property>
 </playlist>
 <tractor id="tractor0" in="00:00:00.000" out="00:04:13.080">
  <property name="kdenlive:audio_track">1</property>
  <property name="kdenlive:trackheight">67</property>
  <property name="kdenlive:timeline_active">1</property>
  <property name="kdenlive:collapsed">0</property>
  <property name="kdenlive:thumbs_format"/>
  <property name="kdenlive:audio_rec"/>
  <track hide="video" producer="playlist0"/>
  <track hide="video" producer="playlist1"/>
  <filter id="filter1">
   <property name="window">75</property>
   <property name="max_gain">20dB</property>
   <property name="mlt_service">volume</property>
   <property name="internal_added">237</property>
   <property name="disable">1</property>
  </filter>
  <filter id="filter2">
   <property name="channel">-1</property>
   <property name="mlt_service">panner</property>
   <property name="internal_added">237</property>
   <property name="start">0.5</property>
   <property name="disable">1</property>
  </filter>
  <filter id="filter3">
   <property name="iec_scale">0</property>
   <property name="mlt_service">audiolevel</property>
   <property name="dbpeak">1</property>
   <property name="disable">1</property>
  </filter>
 </tractor>
 <chain id="chain43" out="00:05:01.960">
  <property name="length">7550</property>
  <property name="eof">pause</property>
  <property name="resource">Happy Bee.mp3</property>
  <property name="mlt_service">avformat-novalidate</property>
  <property name="seekable">1</property>
  <property name="audio_index">0</property>
  <property name="video_index">-1</property>
  <property name="kdenlive:clipname"/>
  <property name="kdenlive:clip_type">1</property>
  <property name="kdenlive:folderid">-1</property>
  <property name="kdenlive:id">18</property>
  <property name="kdenlive:file_size">10791945</property>
  <property name="kdenlive:file_hash">6ceab29a973028bc0e41817e84ba2148</property>
  <property name="kdenlive:audio_max0">241</property>
  <property name="meta.media.nb_streams">1</property>
  <property name="meta.media.0.stream.type">audio</property>
  <property name="meta.media.0.codec.sample_fmt">fltp</property>
  <property name="meta.media.0.codec.sample_rate">44100</property>
  <property name="meta.media.0.codec.channels">2</property>
  <property name="meta.media.0.codec.name">mp3float</property>
  <property name="meta.media.0.codec.long_name">MP3 (MPEG audio layer 3)</property>
  <property name="meta.media.0.codec.bit_rate">285819</property>
  <property name="meta.attr.title.markup">Happy Bee</property>
  <property name="meta.attr.artist.markup">Kevin MacLeod</property>
  <property name="meta.attr.TCM.markup">Kevin MacLeod</property>
  <property name="meta.attr.album.markup">Royalty Free</property>
  <property name="meta.attr.iTunSMPB.markup"> 00000000 00000210 00000956 0000000000CB2D1A 00000000 00B8331A 00000000 00000000 00000000 00000000 00000000 00000000</property>
  <property name="meta.attr.TBP.markup">122</property>
  <property name="meta.attr.genre.markup">Rock</property>
  <property name="meta.attr.iTunPGAP.markup">0</property>
  <property name="meta.attr.encoded_by.markup">iTunes 11.0.1</property>
  <property name="meta.attr.iTunNORM.markup"> 000008E3 00001DFD 00005BB3 00015ADE 0002D153 00035078 00007FFF 00007FFF 000001D6 000002C1</property>
  <property name="meta.attr.date.markup">2013</property>
  <property name="xml">was here</property>
  <property name="set.test_audio">0</property>
  <property name="set.test_image">1</property>
 </chain>
 <chain id="chain44" out="00:00:14.960">
  <property name="length">375</property>
  <property name="eof">pause</property>
  <property name="resource">Slender Mans Static Noise.ogg</property>
  <property name="mlt_service">avformat-novalidate</property>
  <property name="seekable">1</property>
  <property name="audio_index">0</property>
  <property name="video_index">-1</property>
  <property name="kdenlive:clipname"/>
  <property name="kdenlive:clip_type">1</property>
  <property name="kdenlive:folderid">-1</property>
  <property name="kdenlive:id">26</property>
  <property name="kdenlive:file_size">118444</property>
  <property name="kdenlive:file_hash">63816bef7831a7977dec3d119b7bd5ee</property>
  <property name="kdenlive:audio_max0">203</property>
  <property name="kdenlive:zone_in">226</property>
  <property name="kdenlive:zone_out">292</property>
  <property name="meta.media.nb_streams">1</property>
  <property name="meta.media.0.stream.type">audio</property>
  <property name="meta.media.0.codec.sample_fmt">fltp</property>
  <property name="meta.media.0.codec.sample_rate">48000</property>
  <property name="meta.media.0.codec.channels">2</property>
  <property name="meta.media.0.codec.name">opus</property>
  <property name="meta.media.0.codec.long_name">Opus</property>
  <property name="meta.media.0.codec.bit_rate">0</property>
  <property name="xml">was here</property>
  <property name="set.test_audio">0</property>
  <property name="set.test_image">1</property>
 </chain>
 <chain id="chain45" out="00:03:58.640">
  <property name="length">5967</property>
  <property name="eof">pause</property>
  <property name="resource">Darkest Child.mp3</property>
  <property name="mlt_service">avformat-novalidate</property>
  <property name="seekable">1</property>
  <property name="audio_index">0</property>
  <property name="video_index">-1</property>
  <property name="kdenlive:clipname"/>
  <property name="kdenlive:clip_type">1</property>
  <property name="kdenlive:folderid">-1</property>
  <property name="kdenlive:id">14</property>
  <property name="kdenlive:file_size">8593021</property>
  <property name="kdenlive:file_hash">520ae13106923a932f73431bcde91fd7</property>
  <property name="kdenlive:audio_max0">217</property>
  <property name="meta.media.nb_streams">1</property>
  <property name="meta.media.0.stream.type">audio</property>
  <property name="meta.media.0.codec.sample_fmt">fltp</property>
  <property name="meta.media.0.codec.sample_rate">44100</property>
  <property name="meta.media.0.codec.channels">2</property>
  <property name="meta.media.0.codec.name">mp3float</property>
  <property name="meta.media.0.codec.long_name">MP3 (MPEG audio layer 3)</property>
  <property name="meta.media.0.codec.bit_rate">287880</property>
  <property name="meta.attr.TSS.markup">Logic Pro 9.1.3</property>
  <property name="meta.attr.iTunNORM.markup"> 000008AE 00000407 000034CE 00001D2E 0002CE43 00021DF0 00007E86 00006BA7 0001A87D 00014949</property>
  <property name="meta.attr.iTunSMPB.markup"> 00000000 00000210 00000B0F 0000000000A08F61 00000000 00918D3A 00000000 00000000 00000000 00000000 00000000 00000000</property>
  <property name="meta.attr.title.markup">Darkest Child</property>
  <property name="meta.attr.artist.markup">Kevin MacLeod</property>
  <property name="meta.attr.TCM.markup">Kevin MacLeod</property>
  <property name="meta.attr.album.markup">Royalty Free</property>
  <property name="meta.attr.date.markup">2011</property>
  <property name="xml">was here</property>
  <property name="set.test_audio">0</property>
  <property name="set.test_image">1</property>
 </chain>
 <chain id="chain46" out="00:00:46.320">
  <property name="length">1159</property>
  <property name="eof">pause</property>
  <property name="resource">Ambler.mp3</property>
  <property name="mlt_service">avformat-novalidate</property>
  <property name="seekable">1</property>
  <property name="audio_index">0</property>
  <property name="video_index">-1</property>
  <property name="kdenlive:clipname"/>
  <property name="kdenlive:clip_type">1</property>
  <property name="kdenlive:folderid">-1</property>
  <property name="kdenlive:id">11</property>
  <property name="kdenlive:file_size">1629722</property>
  <property name="kdenlive:file_hash">4a69df1370c8662545324b2b8ad6feb0</property>
  <property name="kdenlive:audio_max0">231</property>
  <property name="meta.media.nb_streams">1</property>
  <property name="meta.media.0.stream.type">audio</property>
  <property name="meta.media.0.codec.sample_fmt">fltp</property>
  <property name="meta.media.0.codec.sample_rate">44100</property>
  <property name="meta.media.0.codec.channels">2</property>
  <property name="meta.media.0.codec.name">mp3float</property>
  <property name="meta.media.0.codec.long_name">MP3 (MPEG audio layer 3)</property>
  <property name="meta.media.0.codec.bit_rate">280953</property>
  <property name="meta.attr.title.markup">Ambler</property>
  <property name="meta.attr.artist.markup">Kevin MacLeod</property>
  <property name="meta.attr.album.markup">Royalty Free</property>
  <property name="meta.attr.TT1.markup">Incompetech Game Pack 1</property>
  <property name="meta.attr.iTunSMPB.markup"> 00000000 00000210 00000B0F 00000000001F21E1 00000000 001C282A 00000000 00000000 00000000 00000000 00000000 00000000</property>
  <property name="meta.attr.TBP.markup">83</property>
  <property name="meta.attr.genre.markup">Video Game</property>
  <property name="meta.attr.comment.markup">ISRC: USUAN1300019</property>
  <property name="meta.attr.iTunPGAP.markup">0</property>
  <property name="meta.attr.encoded_by.markup">iTunes 11.0.1</property>
  <property name="meta.attr.iTunNORM.markup"> 00000C44 00000ED4 000084E3 000050D5 000083D6 00003A0F 00007BA6 00007BA6 0000004E 00000153</property>
  <property name="meta.attr.date.markup">2013</property>
  <property name="xml">was here</property>
  <property name="set.test_audio">0</property>
  <property name="set.test_image">1</property>
 </chain>
 <chain id="chain23" out="00:03:26.920">
  <property name="length">5174</property>
  <property name="eof">pause</property>
  <property name="resource">Sad Emotional Piano Music - Gaming Background Music (HD) [i3MJ5loj0Bg].webm</property>
  <property name="mlt_service">avformat-novalidate</property>
  <property name="seekable">1</property>
  <property name="audio_index">0</property>
  <property name="video_index">-1</property>
  <property name="kdenlive:clipname"/>
  <property name="kdenlive:clip_type">1</property>
  <property name="kdenlive:proxy">-</property>
  <property name="kdenlive:originalurl">Sad Emotional Piano Music - Gaming Background Music (HD) [i3MJ5loj0Bg].webm</property>
  <property name="kdenlive:id">24</property>
  <property name="kdenlive:file_size">3800449</property>
  <property name="kdenlive:file_hash">bb3c214777e09a8d462ef4865545470a</property>
  <property name="kdenlive:folderid">-1</property>
  <property name="meta.media.nb_streams">1</property>
  <property name="meta.media.0.stream.type">audio</property>
  <property name="meta.media.0.codec.sample_fmt">fltp</property>
  <property name="meta.media.0.codec.sample_rate">48000</property>
  <property name="meta.media.0.codec.channels">2</property>
  <property name="meta.media.0.codec.name">opus</property>
  <property name="meta.media.0.codec.long_name">Opus</property>
  <property name="meta.media.0.codec.bit_rate">0</property>
  <property name="meta.attr.0.stream.language.markup">eng</property>
  <property name="meta.attr.encoder.markup">google/video-file</property>
  <property name="xml">was here</property>
  <property name="mute_on_pause">0</property>
  <property name="set.test_audio">0</property>
  <property name="set.test_image">1</property>
 </chain>
 <chain id="chain40" out="00:00:02.920">
  <property name="length">74</property>
  <property name="eof">pause</property>
  <property name="resource">Ding - Sound Effect (HD) [GVAF07-2Xic].webm</property>
  <property name="mlt_service">avformat-novalidate</property>
  <property name="seekable">1</property>
  <property name="audio_index">0</property>
  <property name="video_index">-1</property>
  <property name="kdenlive:clipname"/>
  <property name="kdenlive:clip_type">1</property>
  <property name="kdenlive:proxy">-</property>
  <property name="kdenlive:originalurl">Ding - Sound Effect (HD) [GVAF07-2Xic].webm</property>
  <property name="kdenlive:id">15</property>
  <property name="kdenlive:file_size">45699</property>
  <property name="kdenlive:file_hash">45ad106d76f25fc112076902a9d950a0</property>
  <property name="kdenlive:folderid">-1</property>
  <property name="kdenlive:audio_max0">178</property>
  <property name="meta.media.nb_streams">1</property>
  <property name="meta.media.0.stream.type">audio</property>
  <property name="meta.media.0.codec.sample_fmt">fltp</property>
  <property name="meta.media.0.codec.sample_rate">48000</property>
  <property name="meta.media.0.codec.channels">2</property>
  <property name="meta.media.0.codec.name">opus</property>
  <property name="meta.media.0.codec.long_name">Opus</property>
  <property name="meta.media.0.codec.bit_rate">0</property>
  <property name="meta.attr.0.stream.language.markup">eng</property>
  <property name="meta.attr.encoder.markup">google/video-file</property>
  <property name="xml">was here</property>
  <property name="mute_on_pause">0</property>
  <property name="set.test_audio">0</property>
  <property name="set.test_image">1</property>
 </chain>
 <chain id="chain49" out="00:01:50.880">
  <property name="length">2773</property>
  <property name="eof">pause</property>
  <property name="resource">Anxiety.mp3</property>
  <property name="mlt_service">avformat-novalidate</property>
  <property name="seekable">1</property>
  <property name="audio_index">0</property>
  <property name="video_index">1</property>
  <property name="kdenlive:clipname"/>
  <property name="kdenlive:clip_type">0</property>
  <property name="kdenlive:folderid">-1</property>
  <property name="kdenlive:id">12</property>
  <property name="kdenlive:file_size">4506292</property>
  <property name="kdenlive:file_hash">043790ba275ca9478a5432a093dd60b1</property>
  <property name="kdenlive:audio_max0">227</property>
  <property name="meta.media.nb_streams">2</property>
  <property name="meta.media.0.stream.type">audio</property>
  <property name="meta.media.0.codec.sample_fmt">fltp</property>
  <property name="meta.media.0.codec.sample_rate">44100</property>
  <property name="meta.media.0.codec.channels">2</property>
  <property name="meta.media.0.codec.name">mp3float</property>
  <property name="meta.media.0.codec.long_name">MP3 (MPEG audio layer 3)</property>
  <property name="meta.media.0.codec.bit_rate">317298</property>
  <property name="meta.media.1.stream.type">video</property>
  <property name="meta.media.1.stream.frame_rate">90000</property>
  <property name="meta.media.1.stream.sample_aspect_ratio">0</property>
  <property name="meta.media.1.codec.width">400</property>
  <property name="meta.media.1.codec.height">400</property>
  <property name="meta.media.1.codec.rotate">0</property>
  <property name="meta.media.1.codec.pix_fmt">yuvj444p</property>
  <property name="meta.media.1.codec.sample_aspect_ratio">1</property>
  <property name="meta.media.1.codec.colorspace">601</property>
  <property name="meta.media.1.codec.name">mjpeg</property>
  <property name="meta.media.1.codec.long_name">MJPEG (Motion JPEG)</property>
  <property name="meta.media.1.codec.bit_rate">0</property>
  <property name="meta.attr.1.stream.comment.markup">Other</property>
  <property name="meta.attr.title.markup">Anxiety</property>
  <property name="meta.attr.artist.markup">Kevin MacLeod</property>
  <property name="meta.attr.album.markup">Scoring: Horror Themes</property>
  <property name="meta.attr.genre.markup">Horror</property>
  <property name="meta.attr.comment.markup">incompetech.com</property>
  <property name="meta.attr.iTunPGAP.markup">0</property>
  <property name="meta.attr.encoded_by.markup">iTunes v7.0.0.70</property>
  <property name="meta.attr.iTunNORM.markup"> 00000015 00000010 00000135 000000FB 00009239 0000A7C1 00005E01 00003BFE 00009287 0000A139</property>
  <property name="meta.attr.iTunSMPB.markup"> 00000000 00000210 00000A64 00000000004A920C 00000000 0043062F 00000000 00000000 00000000 00000000 00000000 00000000</property>
  <property name="meta.attr.TCM.markup">Kevin MacLeod</property>
  <property name="meta.attr.date.markup">2005</property>
  <property name="meta.media.sample_aspect_num">72</property>
  <property name="meta.media.sample_aspect_den">72</property>
  <property name="meta.media.frame_rate_num">90000</property>
  <property name="meta.media.frame_rate_den">1</property>
  <property name="meta.media.colorspace">601</property>
  <property name="meta.media.color_trc">2</property>
  <property name="meta.media.has_b_frames">0</property>
  <property name="meta.media.width">400</property>
  <property name="meta.media.height">400</property>
  <property name="meta.media.color_range">full</property>
  <property name="xml">was here</property>
  <property name="meta.media.top_field_first">0</property>
  <property name="meta.media.progressive">1</property>
  <property name="set.test_audio">0</property>
  <property name="set.test_image">1</property>
 </chain>
 <chain id="chain50" out="00:00:53.840">
  <property name="length">1347</property>
  <property name="eof">pause</property>
  <property name="resource">Happy Boy End Theme.mp3</property>
  <property name="mlt_service">avformat-novalidate</property>
  <property name="seekable">1</property>
  <property name="audio_index">0</property>
  <property name="video_index">-1</property>
  <property name="kdenlive:clipname"/>
  <property name="kdenlive:clip_type">1</property>
  <property name="kdenlive:folderid">-1</property>
  <property name="kdenlive:id">19</property>
  <property name="kdenlive:file_size">1837802</property>
  <property name="kdenlive:file_hash">0dd1bb36176f65cf61a71d7054f02f54</property>
  <property name="kdenlive:audio_max0">227</property>
  <property name="kdenlive:zone_in">84</property>
  <property name="kdenlive:zone_out">1346</property>
  <property name="meta.media.nb_streams">1</property>
  <property name="meta.media.0.stream.type">audio</property>
  <property name="meta.media.0.codec.sample_fmt">fltp</property>
  <property name="meta.media.0.codec.sample_rate">44100</property>
  <property name="meta.media.0.codec.channels">2</property>
  <property name="meta.media.0.codec.name">mp3float</property>
  <property name="meta.media.0.codec.long_name">MP3 (MPEG audio layer 3)</property>
  <property name="meta.media.0.codec.bit_rate">272212</property>
  <property name="meta.attr.TSS.markup">Logic Pro 8.0.2</property>
  <property name="meta.attr.iTunNORM.markup"> 000002C9 000002BE 00001591 0000147B 00004B82 00009287 00007AA8 00008264 0000A2C1 0000A2A7</property>
  <property name="meta.attr.iTunSMPB.markup"> 00000000 00000210 00000962 000000000024380E 00000000 0020C3C2 00000000 00000000 00000000 00000000 00000000 00000000</property>
  <property name="meta.attr.genre.markup">Soundtrack</property>
  <property name="meta.attr.album.markup">Royalty Free</property>
  <property name="meta.attr.TKE.markup">C</property>
  <property name="meta.attr.TBP.markup">134</property>
  <property name="meta.attr.title.markup">Happy Boy End Theme</property>
  <property name="meta.attr.artist.markup">Kevin MacLeod</property>
  <property name="meta.attr.TCM.markup">Kevin MacLeod</property>
  <property name="meta.attr.date.markup">2009-11-28 04:17</property>
  <property name="xml">was here</property>
  <property name="set.test_audio">0</property>
  <property name="set.test_image">1</property>
 </chain>
 <playlist id="playlist2">
  <property name="kdenlive:audio_track">1</property>
  <blank length="00:00:05.000"/>
  <entry producer="chain43" in="00:00:00.000" out="00:00:05.640">
   <property name="kdenlive:id">18</property>
  </entry>
  <blank length="00:00:19.360"/>
  <entry producer="chain44" in="00:00:09.040" out="00:00:10.600">
   <property name="kdenlive:id">26</property>
  </entry>
  <blank length="00:00:02.360"/>
  <entry producer="chain45" in="00:00:00.000" out="00:00:47.920">
   <property name="kdenlive:id">14</property>
   <filter id="filter4">
    <property name="window">75</property>
    <property name="max_gain">20dB</property>
    <property name="level">00:00:00.000=-10</property>
    <property name="mlt_service">volume</property>
    <property name="kdenlive_id">volume</property>
    <property name="kdenlive:collapsed">0</property>
   </filter>
  </entry>
  <blank length="00:00:00.880"/>
  <entry producer="chain46" in="00:00:00.000" out="00:00:44.440">
   <property name="kdenlive:id">11</property>
   <filter id="filter5">
    <property name="window">75</property>
    <property name="max_gain">20dB</property>
    <property name="level">00:00:00.000=-20</property>
    <property name="mlt_service">volume</property>
    <property name="kdenlive_id">volume</property>
    <property name="kdenlive:collapsed">0</property>
   </filter>
  </entry>
  <blank length="00:00:02.120"/>
  <entry producer="chain23" in="00:00:00.960" out="00:00:04.800">
   <property name="kdenlive:id">24</property>
  </entry>
  <entry producer="chain23" in="00:00:04.840" out="00:00:11.440">
   <property name="kdenlive:id">24</property>
   <filter id="filter6">
    <property name="window">75</property>
    <property name="max_gain">20dB</property>
    <property name="level">00:00:04.840=-6</property>
    <property name="mlt_service">volume</property>
    <property name="kdenlive_id">volume</property>
    <property name="kdenlive:collapsed">0</property>
   </filter>
  </entry>
  <blank length="00:00:24.680"/>
  <entry producer="chain40" in="00:00:00.160" out="00:00:01.520">
   <property name="kdenlive:id">15</property>
  </entry>
  <blank length="00:00:02.960"/>
  <entry producer="chain49" in="00:00:00.000" out="00:01:06.000">
   <property name="kdenlive:id">12</property>
   <filter id="filter7">
    <property name="window">75</property>
    <property name="max_gain">20dB</property>
    <property name="level">00:00:00.000=4</property>
    <property name="mlt_service">volume</property>
    <property name="kdenlive_id">volume</property>
    <property name="kdenlive:collapsed">0</property>
   </filter>
   <filter id="filter8" in="00:01:03.480" out="00:01:06.000">
    <property name="window">75</property>
    <property name="max_gain">20dB</property>
    <property name="mlt_service">volume</property>
    <property name="kdenlive_id">fadeout</property>
    <property name="gain">1</property>
    <property name="end">0</property>
    <property name="kdenlive:collapsed">0</property>
   </filter>
  </entry>
  <entry producer="chain50" in="00:00:03.360" out="00:00:17.560">
   <property name="kdenlive:id">19</property>
   <filter id="filter9">
    <property name="window">75</property>
    <property name="max_gain">20dB</property>
    <property name="level">00:00:03.360=-6</property>
    <property name="mlt_service">volume</property>
    <property name="kdenlive_id">volume</property>
    <property name="kdenlive:collapsed">0</property>
   </filter>
  </entry>
  <blank length="00:00:03.840"/>
  <entry producer="chain50" in="00:00:17.600" out="00:00:53.840">
   <property name="kdenlive:id">19</property>
   <filter id="filter10">
    <property name="window">75</property>
    <property name="max_gain">20dB</property>
    <property name="level">00:00:17.600=-11</property>
    <property name="mlt_service">volume</property>
    <property name="kdenlive_id">volume</property>
    <property name="kdenlive:collapsed">0</property>
   </filter>
  </entry>
  <entry producer="chain50" in="00:00:03.360" out="00:00:18.600">
   <property name="kdenlive:id">19</property>
   <filter id="filter11" in="00:00:13.160" out="00:00:18.600">
    <property name="window">75</property>
    <property name="max_gain">20dB</property>
    <property name="mlt_service">volume</property>
    <property name="kdenlive_id">fadeout</property>
    <property name="gain">1</property>
    <property name="end">0</property>
    <property name="kdenlive:collapsed">0</property>
   </filter>
   <filter id="filter12">
    <property name="window">75</property>
    <property name="max_gain">20dB</property>
    <property name="level">00:00:03.360=-11</property>
    <property name="mlt_service">volume</property>
    <property name="kdenlive_id">volume</property>
    <property name="kdenlive:collapsed">0</property>
   </filter>
  </entry>
 </playlist>
 <playlist id="playlist3">
  <property name="kdenlive:audio_track">1</property>
 </playlist>
 <tractor id="tractor1" in="00:00:00.000" out="00:05:04.640">
  <property name="kdenlive:audio_track">1</property>
  <property name="kdenlive:trackheight">67</property>
  <property name="kdenlive:timeline_active">1</property>
  <property name="kdenlive:collapsed">0</property>
  <property name="kdenlive:thumbs_format"/>
  <property name="kdenlive:audio_rec"/>
  <track hide="video" producer="playlist2"/>
  <track hide="video" producer="playlist3"/>
  <filter id="filter13">
   <property name="window">75</property>
   <property name="max_gain">20dB</property>
   <property name="mlt_service">volume</property>
   <property name="internal_added">237</property>
   <property name="disable">1</property>
  </filter>
  <filter id="filter14">
   <property name="channel">-1</property>
   <property name="mlt_service">panner</property>
   <property name="internal_added">237</property>
   <property name="start">0.5</property>
   <property name="disable">1</property>
  </filter>
  <filter id="filter15">
   <property name="iec_scale">0</property>
   <property name="mlt_service">audiolevel</property>
   <property name="dbpeak">1</property>
   <property name="disable">1</property>
  </filter>
 </tractor>
 <chain id="chain47" out="00:00:05.040">
  <property name="length">127</property>
  <property name="eof">pause</property>
  <property name="resource">muuusintro_kdenlive.mkv</property>
  <property name="mlt_service">avformat-novalidate</property>
  <property name="seekable">1</property>
  <property name="audio_index">1</property>
  <property name="video_index">0</property>
  <property name="kdenlive:clipname"/>
  <property name="kdenlive:clip_type">0</property>
  <property name="kdenlive:folderid">-1</property>
  <property name="kdenlive:id">55</property>
  <property name="kdenlive:file_size">7951294</property>
  <property name="kdenlive:file_hash">27c4d0b2b47eaeb319731f4628f15fbb</property>
  <property name="kdenlive:audio_max1">238</property>
  <property name="kdenlive:zone_in">0</property>
  <property name="kdenlive:zone_out">125</property>
  <property name="meta.media.nb_streams">2</property>
  <property name="meta.media.0.stream.type">video</property>
  <property name="meta.media.0.stream.frame_rate">25</property>
  <property name="meta.media.0.stream.sample_aspect_ratio">1</property>
  <property name="meta.media.0.codec.width">1920</property>
  <property name="meta.media.0.codec.height">1080</property>
  <property name="meta.media.0.codec.rotate">0</property>
  <property name="meta.media.0.codec.pix_fmt">yuv420p</property>
  <property name="meta.media.0.codec.sample_aspect_ratio">1</property>
  <property name="meta.media.0.codec.colorspace">709</property>
  <property name="meta.media.0.codec.color_trc">1</property>
  <property name="meta.media.0.codec.name">h264</property>
  <property name="meta.media.0.codec.long_name">H.264 / AVC / MPEG-4 AVC / MPEG-4 part 10</property>
  <property name="meta.media.0.codec.bit_rate">0</property>
  <property name="meta.media.1.stream.type">audio</property>
  <property name="meta.media.1.codec.sample_fmt">s16</property>
  <property name="meta.media.1.codec.sample_rate">48000</property>
  <property name="meta.media.1.codec.channels">2</property>
  <property name="meta.media.1.codec.name">flac</property>
  <property name="meta.media.1.codec.long_name">FLAC (Free Lossless Audio Codec)</property>
  <property name="meta.media.1.codec.bit_rate">0</property>
  <property name="meta.media.sample_aspect_num">1</property>
  <property name="meta.media.sample_aspect_den">1</property>
  <property name="meta.media.frame_rate_num">25</property>
  <property name="meta.media.frame_rate_den">1</property>
  <property name="meta.media.colorspace">709</property>
  <property name="meta.media.color_trc">1</property>
  <property name="meta.media.has_b_frames">0</property>
  <property name="meta.media.width">1920</property>
  <property name="meta.media.height">1080</property>
  <property name="meta.media.color_range">mpeg</property>
  <property name="xml">was here</property>
  <property name="meta.media.top_field_first">0</property>
  <property name="meta.media.progressive">1</property>
  <property name="set.test_audio">0</property>
  <property name="set.test_image">1</property>
 </chain>
 <chain id="chain52" out="00:00:14.960">
  <property name="length">375</property>
  <property name="eof">pause</property>
  <property name="resource">Slender Mans Static Noise.ogg</property>
  <property name="mlt_service">avformat-novalidate</property>
  <property name="seekable">1</property>
  <property name="audio_index">0</property>
  <property name="video_index">-1</property>
  <property name="kdenlive:clipname"/>
  <property name="kdenlive:clip_type">1</property>
  <property name="kdenlive:folderid">-1</property>
  <property name="kdenlive:id">26</property>
  <property name="kdenlive:file_size">118444</property>
  <property name="kdenlive:file_hash">63816bef7831a7977dec3d119b7bd5ee</property>
  <property name="kdenlive:audio_max0">203</property>
  <property name="kdenlive:zone_in">0</property>
  <property name="kdenlive:zone_out">16</property>
  <property name="meta.media.nb_streams">1</property>
  <property name="meta.media.0.stream.type">audio</property>
  <property name="meta.media.0.codec.sample_fmt">fltp</property>
  <property name="meta.media.0.codec.sample_rate">48000</property>
  <property name="meta.media.0.codec.channels">2</property>
  <property name="meta.media.0.codec.name">opus</property>
  <property name="meta.media.0.codec.long_name">Opus</property>
  <property name="meta.media.0.codec.bit_rate">0</property>
  <property name="xml">was here</property>
  <property name="set.test_audio">0</property>
  <property name="set.test_image">1</property>
 </chain>
 <chain id="chain53" out="00:00:07.000">
  <property name="length">176</property>
  <property name="eof">pause</property>
  <property name="resource">Thunder   Sound effect.mp3</property>
  <property name="mlt_service">avformat-novalidate</property>
  <property name="seekable">1</property>
  <property name="audio_index">0</property>
  <property name="video_index">-1</property>
  <property name="kdenlive:clipname"/>
  <property name="kdenlive:clip_type">1</property>
  <property name="kdenlive:folderid">-1</property>
  <property name="kdenlive:id">29</property>
  <property name="kdenlive:file_size">264251</property>
  <property name="kdenlive:file_hash">729509cbbf1e067f46d22914575abc27</property>
  <property name="kdenlive:audio_max0">237</property>
  <property name="meta.media.nb_streams">1</property>
  <property name="meta.media.0.stream.type">audio</property>
  <property name="meta.media.0.codec.sample_fmt">fltp</property>
  <property name="meta.media.0.codec.sample_rate">44100</property>
  <property name="meta.media.0.codec.channels">2</property>
  <property name="meta.media.0.codec.name">mp3float</property>
  <property name="meta.media.0.codec.long_name">MP3 (MPEG audio layer 3)</property>
  <property name="meta.media.0.codec.bit_rate">299573</property>
  <property name="meta.attr.major_brand.markup">mp42</property>
  <property name="meta.attr.minor_version.markup">0</property>
  <property name="meta.attr.compatible_brands.markup">isommp42</property>
  <property name="meta.attr.encoder.markup">Lavf58.27.103</property>
  <property name="xml">was here</property>
  <property name="set.test_audio">0</property>
  <property name="set.test_image">1</property>
 </chain>
 <chain id="chain54" out="00:00:15.280">
  <property name="length">383</property>
  <property name="eof">pause</property>
  <property name="resource">KnockHalloween.m4a</property>
  <property name="mlt_service">avformat-novalidate</property>
  <property name="seekable">1</property>
  <property name="audio_index">0</property>
  <property name="video_index">-1</property>
  <property name="kdenlive:clipname"/>
  <property name="kdenlive:clip_type">1</property>
  <property name="kdenlive:folderid">-1</property>
  <property name="kdenlive:id">21</property>
  <property name="kdenlive:file_size">526199</property>
  <property name="kdenlive:file_hash">05357b379d4b1b1d5bf3687136566790</property>
  <property name="kdenlive:audio_max0">201</property>
  <property name="meta.media.nb_streams">1</property>
  <property name="meta.media.0.stream.type">audio</property>
  <property name="meta.media.0.codec.sample_fmt">fltp</property>
  <property name="meta.media.0.codec.sample_rate">48000</property>
  <property name="meta.media.0.codec.channels">1</property>
  <property name="meta.media.0.codec.name">aac</property>
  <property name="meta.media.0.codec.long_name">AAC (Advanced Audio Coding)</property>
  <property name="meta.media.0.codec.bit_rate">255999</property>
  <property name="meta.attr.0.stream.creation_time.markup">2019-10-31T09:29:30.000000Z</property>
  <property name="meta.attr.0.stream.language.markup">eng</property>
  <property name="meta.attr.0.stream.handler_name.markup">SoundHandle</property>
  <property name="meta.attr.0.stream.vendor_id.markup">[0][0][0][0]</property>
  <property name="meta.attr.major_brand.markup">3gp4</property>
  <property name="meta.attr.minor_version.markup">0</property>
  <property name="meta.attr.compatible_brands.markup">isom3gp4</property>
  <property name="meta.attr.creation_time.markup">2019-10-31T09:29:30.000000Z</property>
  <property name="meta.attr.com.android.version.markup">9</property>
  <property name="xml">was here</property>
  <property name="set.test_audio">0</property>
  <property name="set.test_image">1</property>
 </chain>
 <chain id="chain55" out="00:00:27.920">
  <property name="length">699</property>
  <property name="eof">pause</property>
  <property name="resource">Horror Sound Effect - Creaking Door Open.mp3</property>
  <property name="mlt_service">avformat-novalidate</property>
  <property name="seekable">1</property>
  <property name="audio_index">0</property>
  <property name="video_index">-1</property>
  <property name="kdenlive:clipname"/>
  <property name="kdenlive:clip_type">1</property>
  <property name="kdenlive:folderid">-1</property>
  <property name="kdenlive:id">20</property>
  <property name="kdenlive:file_size">1026390</property>
  <property name="kdenlive:file_hash">5d9af876862db66a93e4b346a254cac0</property>
  <property name="kdenlive:audio_max0">178</property>
  <property name="meta.media.nb_streams">1</property>
  <property name="meta.media.0.stream.type">audio</property>
  <property name="meta.media.0.codec.sample_fmt">fltp</property>
  <property name="meta.media.0.codec.sample_rate">44100</property>
  <property name="meta.media.0.codec.channels">2</property>
  <property name="meta.media.0.codec.name">mp3float</property>
  <property name="meta.media.0.codec.long_name">MP3 (MPEG audio layer 3)</property>
  <property name="meta.media.0.codec.bit_rate">293232</property>
  <property name="meta.attr.major_brand.markup">mp42</property>
  <property name="meta.attr.minor_version.markup">0</property>
  <property name="meta.attr.compatible_brands.markup">isommp42</property>
  <property name="meta.attr.encoder.markup">Lavf58.27.103</property>
  <property name="xml">was here</property>
  <property name="set.test_audio">0</property>
  <property name="set.test_image">1</property>
 </chain>
 <chain id="chain56" out="00:00:03.000">
  <property name="length">76</property>
  <property name="eof">pause</property>
  <property name="resource">Record Scratch - Sound Effect (HD).mp3</property>
  <property name="mlt_service">avformat-novalidate</property>
  <property name="seekable">1</property>
  <property name="audio_index">0</property>
  <property name="video_index">-1</property>
  <property name="kdenlive:clipname"/>
  <property name="kdenlive:clip_type">1</property>
  <property name="kdenlive:folderid">-1</property>
  <property name="kdenlive:id">22</property>
  <property name="kdenlive:file_size">54494</property>
  <property name="kdenlive:file_hash">b1b926b2f6f27e00a1be13534e85be06</property>
  <property name="kdenlive:audio_max0">256</property>
  <property name="kdenlive:zone_in">11</property>
  <property name="kdenlive:zone_out">75</property>
  <property name="meta.media.nb_streams">1</property>
  <property name="meta.media.0.stream.type">audio</property>
  <property name="meta.media.0.codec.sample_fmt">fltp</property>
  <property name="meta.media.0.codec.sample_rate">44100</property>
  <property name="meta.media.0.codec.channels">2</property>
  <property name="meta.media.0.codec.name">mp3float</property>
  <property name="meta.media.0.codec.long_name">MP3 (MPEG audio layer 3)</property>
  <property name="meta.media.0.codec.bit_rate">142278</property>
  <property name="meta.attr.major_brand.markup">mp42</property>
  <property name="meta.attr.minor_version.markup">0</property>
  <property name="meta.attr.compatible_brands.markup">isommp42</property>
  <property name="meta.attr.encoder.markup">Lavf57.19.100</property>
  <property name="xml">was here</property>
  <property name="set.test_audio">0</property>
  <property name="set.test_image">1</property>
 </chain>
 <chain id="chain48" out="00:00:07.280">
  <property name="length">183</property>
  <property name="eof">pause</property>
  <property name="resource">EESTIKEELHAALED/Hääl-75.flac</property>
  <property name="mlt_service">avformat-novalidate</property>
  <property name="seekable">1</property>
  <property name="audio_index">0</property>
  <property name="video_index">-1</property>
  <property name="kdenlive:clipname"/>
  <property name="kdenlive:clip_type">1</property>
  <property name="kdenlive:folderid">-1</property>
  <property name="kdenlive:id">56</property>
  <property name="kdenlive:file_size">223726</property>
  <property name="kdenlive:audio_max0">133</property>
  <property name="kdenlive:zone_in">63</property>
  <property name="kdenlive:zone_out">183</property>
  <property name="kdenlive:file_hash">312abc972b2440ef26bfd555f17c56da</property>
  <property name="meta.media.nb_streams">1</property>
  <property name="meta.media.0.stream.type">audio</property>
  <property name="meta.media.0.codec.sample_fmt">s16</property>
  <property name="meta.media.0.codec.sample_rate">48000</property>
  <property name="meta.media.0.codec.channels">1</property>
  <property name="meta.media.0.codec.name">flac</property>
  <property name="meta.media.0.codec.long_name">FLAC (Free Lossless Audio Codec)</property>
  <property name="meta.media.0.codec.bit_rate">0</property>
  <property name="xml">was here</property>
  <property name="mute_on_pause">0</property>
  <property name="set.test_audio">0</property>
  <property name="set.test_image">1</property>
 </chain>
 <chain id="chain51" out="00:00:04.360">
  <property name="length">110</property>
  <property name="eof">pause</property>
  <property name="resource">EESTIKEELHAALED/Hääl-76.flac</property>
  <property name="mlt_service">avformat-novalidate</property>
  <property name="seekable">1</property>
  <property name="audio_index">0</property>
  <property name="video_index">-1</property>
  <property name="kdenlive:clipname"/>
  <property name="kdenlive:clip_type">1</property>
  <property name="kdenlive:folderid">-1</property>
  <property name="kdenlive:id">57</property>
  <property name="kdenlive:file_size">135186</property>
  <property name="kdenlive:audio_max0">133</property>
  <property name="kdenlive:zone_in">52</property>
  <property name="kdenlive:zone_out">64</property>
  <property name="kdenlive:file_hash">86c1b61b9181e445861e886fc001f62c</property>
  <property name="meta.media.nb_streams">1</property>
  <property name="meta.media.0.stream.type">audio</property>
  <property name="meta.media.0.codec.sample_fmt">s16</property>
  <property name="meta.media.0.codec.sample_rate">48000</property>
  <property name="meta.media.0.codec.channels">1</property>
  <property name="meta.media.0.codec.name">flac</property>
  <property name="meta.media.0.codec.long_name">FLAC (Free Lossless Audio Codec)</property>
  <property name="meta.media.0.codec.bit_rate">0</property>
  <property name="xml">was here</property>
  <property name="mute_on_pause">0</property>
  <property name="set.test_audio">0</property>
  <property name="set.test_image">1</property>
 </chain>
 <chain id="chain57" out="00:00:03.800">
  <property name="length">96</property>
  <property name="eof">pause</property>
  <property name="resource">EESTIKEELHAALED/Hääl-77.flac</property>
  <property name="mlt_service">avformat-novalidate</property>
  <property name="seekable">1</property>
  <property name="audio_index">0</property>
  <property name="video_index">-1</property>
  <property name="kdenlive:clipname"/>
  <property name="kdenlive:clip_type">1</property>
  <property name="kdenlive:folderid">-1</property>
  <property name="kdenlive:id">58</property>
  <property name="kdenlive:file_size">124435</property>
  <property name="kdenlive:audio_max0">166</property>
  <property name="kdenlive:zone_in">43</property>
  <property name="kdenlive:zone_out">74</property>
  <property name="kdenlive:file_hash">dc8fd0a1ff44e283cc76097af9e6c3e3</property>
  <property name="meta.media.nb_streams">1</property>
  <property name="meta.media.0.stream.type">audio</property>
  <property name="meta.media.0.codec.sample_fmt">s16</property>
  <property name="meta.media.0.codec.sample_rate">48000</property>
  <property name="meta.media.0.codec.channels">1</property>
  <property name="meta.media.0.codec.name">flac</property>
  <property name="meta.media.0.codec.long_name">FLAC (Free Lossless Audio Codec)</property>
  <property name="meta.media.0.codec.bit_rate">0</property>
  <property name="xml">was here</property>
  <property name="mute_on_pause">0</property>
  <property name="set.test_audio">0</property>
  <property name="set.test_image">1</property>
 </chain>
 <chain id="chain58" out="00:00:09.800">
  <property name="length">246</property>
  <property name="eof">pause</property>
  <property name="resource">EESTIKEELHAALED/Hääl-78.flac</property>
  <property name="mlt_service">avformat-novalidate</property>
  <property name="seekable">1</property>
  <property name="audio_index">0</property>
  <property name="video_index">-1</property>
  <property name="kdenlive:clipname"/>
  <property name="kdenlive:clip_type">1</property>
  <property name="kdenlive:folderid">-1</property>
  <property name="kdenlive:id">59</property>
  <property name="kdenlive:file_size">303787</property>
  <property name="kdenlive:audio_max0">142</property>
  <property name="kdenlive:zone_in">122</property>
  <property name="kdenlive:zone_out">149</property>
  <property name="kdenlive:file_hash">630536ae4066c991676bb13540417ebd</property>
  <property name="meta.media.nb_streams">1</property>
  <property name="meta.media.0.stream.type">audio</property>
  <property name="meta.media.0.codec.sample_fmt">s16</property>
  <property name="meta.media.0.codec.sample_rate">48000</property>
  <property name="meta.media.0.codec.channels">1</property>
  <property name="meta.media.0.codec.name">flac</property>
  <property name="meta.media.0.codec.long_name">FLAC (Free Lossless Audio Codec)</property>
  <property name="meta.media.0.codec.bit_rate">0</property>
  <property name="xml">was here</property>
  <property name="mute_on_pause">0</property>
  <property name="set.test_audio">0</property>
  <property name="set.test_image">1</property>
 </chain>
 <chain id="chain59" out="00:00:04.320">
  <property name="length">109</property>
  <property name="eof">pause</property>
  <property name="resource">EESTIKEELHAALED/Hääl-80.flac</property>
  <property name="mlt_service">avformat-novalidate</property>
  <property name="seekable">1</property>
  <property name="audio_index">0</property>
  <property name="video_index">-1</property>
  <property name="kdenlive:clipname"/>
  <property name="kdenlive:clip_type">1</property>
  <property name="kdenlive:folderid">-1</property>
  <property name="kdenlive:id">60</property>
  <property name="kdenlive:file_size">146700</property>
  <property name="kdenlive:audio_max0">149</property>
  <property name="kdenlive:zone_in">45</property>
  <property name="kdenlive:zone_out">79</property>
  <property name="kdenlive:file_hash">5a1c7aa68b94445ee3e95d269d805739</property>
  <property name="meta.media.nb_streams">1</property>
  <property name="meta.media.0.stream.type">audio</property>
  <property name="meta.media.0.codec.sample_fmt">s16</property>
  <property name="meta.media.0.codec.sample_rate">48000</property>
  <property name="meta.media.0.codec.channels">1</property>
  <property name="meta.media.0.codec.name">flac</property>
  <property name="meta.media.0.codec.long_name">FLAC (Free Lossless Audio Codec)</property>
  <property name="meta.media.0.codec.bit_rate">0</property>
  <property name="xml">was here</property>
  <property name="mute_on_pause">0</property>
  <property name="set.test_audio">0</property>
  <property name="set.test_image">1</property>
 </chain>
 <chain id="chain60" out="00:00:06.080">
  <property name="length">153</property>
  <property name="eof">pause</property>
  <property name="resource">EESTIKEELHAALED/Hääl-81.flac</property>
  <property name="mlt_service">avformat-novalidate</property>
  <property name="seekable">1</property>
  <property name="audio_index">0</property>
  <property name="video_index">-1</property>
  <property name="kdenlive:clipname"/>
  <property name="kdenlive:clip_type">1</property>
  <property name="kdenlive:folderid">-1</property>
  <property name="kdenlive:id">61</property>
  <property name="kdenlive:file_size">219241</property>
  <property name="kdenlive:audio_max0">148</property>
  <property name="kdenlive:zone_in">55</property>
  <property name="kdenlive:zone_out">132</property>
  <property name="kdenlive:file_hash">d37c6a7fcc0bb5aad839b5db9d847788</property>
  <property name="meta.media.nb_streams">1</property>
  <property name="meta.media.0.stream.type">audio</property>
  <property name="meta.media.0.codec.sample_fmt">s16</property>
  <property name="meta.media.0.codec.sample_rate">48000</property>
  <property name="meta.media.0.codec.channels">1</property>
  <property name="meta.media.0.codec.name">flac</property>
  <property name="meta.media.0.codec.long_name">FLAC (Free Lossless Audio Codec)</property>
  <property name="meta.media.0.codec.bit_rate">0</property>
  <property name="xml">was here</property>
  <property name="mute_on_pause">0</property>
  <property name="set.test_audio">0</property>
  <property name="set.test_image">1</property>
 </chain>
 <chain id="chain61" out="00:00:04.760">
  <property name="length">120</property>
  <property name="eof">pause</property>
  <property name="resource">EESTIKEELHAALED/Hääl-82.flac</property>
  <property name="mlt_service">avformat-novalidate</property>
  <property name="seekable">1</property>
  <property name="audio_index">0</property>
  <property name="video_index">-1</property>
  <property name="kdenlive:clipname"/>
  <property name="kdenlive:clip_type">1</property>
  <property name="kdenlive:folderid">-1</property>
  <property name="kdenlive:id">62</property>
  <property name="kdenlive:file_size">151863</property>
  <property name="kdenlive:audio_max0">148</property>
  <property name="kdenlive:zone_in">82</property>
  <property name="kdenlive:zone_out">106</property>
  <property name="kdenlive:file_hash">1daddea533182cc4855444a0c53069db</property>
  <property name="meta.media.nb_streams">1</property>
  <property name="meta.media.0.stream.type">audio</property>
  <property name="meta.media.0.codec.sample_fmt">s16</property>
  <property name="meta.media.0.codec.sample_rate">48000</property>
  <property name="meta.media.0.codec.channels">1</property>
  <property name="meta.media.0.codec.name">flac</property>
  <property name="meta.media.0.codec.long_name">FLAC (Free Lossless Audio Codec)</property>
  <property name="meta.media.0.codec.bit_rate">0</property>
  <property name="xml">was here</property>
  <property name="mute_on_pause">0</property>
  <property name="set.test_audio">0</property>
  <property name="set.test_image">1</property>
 </chain>
 <chain id="chain62" out="00:00:11.560">
  <property name="length">290</property>
  <property name="eof">pause</property>
  <property name="resource">EESTIKEELHAALED/Hääl-83.flac</property>
  <property name="mlt_service">avformat-novalidate</property>
  <property name="seekable">1</property>
  <property name="audio_index">0</property>
  <property name="video_index">-1</property>
  <property name="kdenlive:clipname"/>
  <property name="kdenlive:clip_type">1</property>
  <property name="kdenlive:folderid">-1</property>
  <property name="kdenlive:id">63</property>
  <property name="kdenlive:file_size">386607</property>
  <property name="kdenlive:audio_max0">144</property>
  <property name="kdenlive:zone_in">74</property>
  <property name="kdenlive:zone_out">164</property>
  <property name="kdenlive:file_hash">63abacd2ceb11fa83a125758c014449a</property>
  <property name="meta.media.nb_streams">1</property>
  <property name="meta.media.0.stream.type">audio</property>
  <property name="meta.media.0.codec.sample_fmt">s16</property>
  <property name="meta.media.0.codec.sample_rate">48000</property>
  <property name="meta.media.0.codec.channels">1</property>
  <property name="meta.media.0.codec.name">flac</property>
  <property name="meta.media.0.codec.long_name">FLAC (Free Lossless Audio Codec)</property>
  <property name="meta.media.0.codec.bit_rate">0</property>
  <property name="xml">was here</property>
  <property name="mute_on_pause">0</property>
  <property name="set.test_audio">0</property>
  <property name="set.test_image">1</property>
 </chain>
 <chain id="chain63" out="00:00:03.920">
  <property name="length">99</property>
  <property name="eof">pause</property>
  <property name="resource">EESTIKEELHAALED/Hääl-84.flac</property>
  <property name="mlt_service">avformat-novalidate</property>
  <property name="seekable">1</property>
  <property name="audio_index">0</property>
  <property name="video_index">-1</property>
  <property name="kdenlive:clipname"/>
  <property name="kdenlive:clip_type">1</property>
  <property name="kdenlive:folderid">-1</property>
  <property name="kdenlive:id">64</property>
  <property name="kdenlive:file_size">136512</property>
  <property name="kdenlive:audio_max0">146</property>
  <property name="kdenlive:zone_in">41</property>
  <property name="kdenlive:zone_out">78</property>
  <property name="kdenlive:file_hash">1eb21865f9496b1fcaaa374c792442cd</property>
  <property name="meta.media.nb_streams">1</property>
  <property name="meta.media.0.stream.type">audio</property>
  <property name="meta.media.0.codec.sample_fmt">s16</property>
  <property name="meta.media.0.codec.sample_rate">48000</property>
  <property name="meta.media.0.codec.channels">1</property>
  <property name="meta.media.0.codec.name">flac</property>
  <property name="meta.media.0.codec.long_name">FLAC (Free Lossless Audio Codec)</property>
  <property name="meta.media.0.codec.bit_rate">0</property>
  <property name="xml">was here</property>
  <property name="mute_on_pause">0</property>
  <property name="set.test_audio">0</property>
  <property name="set.test_image">1</property>
 </chain>
 <chain id="chain64" out="00:01:14.800">
  <property name="length">1871</property>
  <property name="eof">pause</property>
  <property name="resource">EESTIKEELHAALED/Hääl-87.flac</property>
  <property name="mlt_service">avformat-novalidate</property>
  <property name="seekable">1</property>
  <property name="audio_index">0</property>
  <property name="video_index">-1</property>
  <property name="kdenlive:clipname"/>
  <property name="kdenlive:clip_type">1</property>
  <property name="kdenlive:folderid">-1</property>
  <property name="kdenlive:id">65</property>
  <property name="kdenlive:file_size">2791823</property>
  <property name="kdenlive:audio_max0">153</property>
  <property name="kdenlive:zone_in">1536</property>
  <property name="kdenlive:zone_out">1605</property>
  <property name="kdenlive:file_hash">8a0ba6d79e674f319f922d5be8133ae9</property>
  <property name="meta.media.nb_streams">1</property>
  <property name="meta.media.0.stream.type">audio</property>
  <property name="meta.media.0.codec.sample_fmt">s16</property>
  <property name="meta.media.0.codec.sample_rate">48000</property>
  <property name="meta.media.0.codec.channels">1</property>
  <property name="meta.media.0.codec.name">flac</property>
  <property name="meta.media.0.codec.long_name">FLAC (Free Lossless Audio Codec)</property>
  <property name="meta.media.0.codec.bit_rate">0</property>
  <property name="xml">was here</property>
  <property name="mute_on_pause">0</property>
  <property name="set.test_audio">0</property>
  <property name="set.test_image">1</property>
 </chain>
 <chain id="chain65" out="00:01:30.960">
  <property name="length">2275</property>
  <property name="eof">pause</property>
  <property name="resource">EESTIKEELHAALED/Hääl-88.flac</property>
  <property name="mlt_service">avformat-novalidate</property>
  <property name="seekable">1</property>
  <property name="audio_index">0</property>
  <property name="video_index">-1</property>
  <property name="kdenlive:clipname"/>
  <property name="kdenlive:clip_type">1</property>
  <property name="kdenlive:folderid">-1</property>
  <property name="kdenlive:id">66</property>
  <property name="kdenlive:file_size">3171843</property>
  <property name="kdenlive:audio_max0">174</property>
  <property name="kdenlive:zone_in">1649</property>
  <property name="kdenlive:zone_out">1675</property>
  <property name="kdenlive:file_hash">fdd56c7add064fe7c5b640f5a3cccc3a</property>
  <property name="meta.media.nb_streams">1</property>
  <property name="meta.media.0.stream.type">audio</property>
  <property name="meta.media.0.codec.sample_fmt">s16</property>
  <property name="meta.media.0.codec.sample_rate">48000</property>
  <property name="meta.media.0.codec.channels">1</property>
  <property name="meta.media.0.codec.name">flac</property>
  <property name="meta.media.0.codec.long_name">FLAC (Free Lossless Audio Codec)</property>
  <property name="meta.media.0.codec.bit_rate">0</property>
  <property name="xml">was here</property>
  <property name="mute_on_pause">0</property>
  <property name="set.test_audio">0</property>
  <property name="set.test_image">1</property>
 </chain>
 <chain id="chain66" out="00:00:18.120">
  <property name="length">454</property>
  <property name="eof">pause</property>
  <property name="resource">VID_20191102_205935.mp4</property>
  <property name="mlt_service">avformat-novalidate</property>
  <property name="seekable">1</property>
  <property name="audio_index">1</property>
  <property name="video_index">0</property>
  <property name="kdenlive:clipname"/>
  <property name="kdenlive:clip_type">0</property>
  <property name="kdenlive:folderid">-1</property>
  <property name="kdenlive:id">38</property>
  <property name="kdenlive:file_size">53370415</property>
  <property name="kdenlive:file_hash">80731cd810cb4ebfcf0a336ebc7c5e52</property>
  <property name="kdenlive:audio_max1">190</property>
  <property name="meta.media.nb_streams">2</property>
  <property name="meta.media.0.stream.type">video</property>
  <property name="meta.media.0.stream.frame_rate">29.9568</property>
  <property name="meta.media.0.stream.sample_aspect_ratio">0</property>
  <property name="meta.media.0.codec.width">1920</property>
  <property name="meta.media.0.codec.height">1080</property>
  <property name="meta.media.0.codec.rotate">0</property>
  <property name="meta.media.0.codec.pix_fmt">yuvj422p</property>
  <property name="meta.media.0.codec.sample_aspect_ratio">0</property>
  <property name="meta.media.0.codec.colorspace">601</property>
  <property name="meta.media.0.codec.name">mjpeg</property>
  <property name="meta.media.0.codec.long_name">MJPEG (Motion JPEG)</property>
  <property name="meta.media.0.codec.bit_rate">23341594</property>
  <property name="meta.attr.0.stream.language.markup">eng</property>
  <property name="meta.attr.0.stream.handler_name.markup">VideoHandler</property>
  <property name="meta.attr.0.stream.vendor_id.markup">FFMP</property>
  <property name="meta.attr.0.stream.encoder.markup">mjpeg</property>
  <property name="meta.media.1.stream.type">audio</property>
  <property name="meta.media.1.codec.sample_fmt">fltp</property>
  <property name="meta.media.1.codec.sample_rate">48000</property>
  <property name="meta.media.1.codec.channels">2</property>
  <property name="meta.media.1.codec.name">aac</property>
  <property name="meta.media.1.codec.long_name">AAC (Advanced Audio Coding)</property>
  <property name="meta.media.1.codec.bit_rate">162687</property>
  <property name="meta.attr.1.stream.language.markup">eng</property>
  <property name="meta.attr.1.stream.handler_name.markup">SoundHandler</property>
  <property name="meta.attr.1.stream.vendor_id.markup">[0][0][0][0]</property>
  <property name="meta.attr.major_brand.markup">qt  </property>
  <property name="meta.attr.minor_version.markup">512</property>
  <property name="meta.attr.compatible_brands.markup">qt  </property>
  <property name="meta.attr.encoder.markup">Lavf55.33.100</property>
  <property name="meta.media.sample_aspect_num">1</property>
  <property name="meta.media.sample_aspect_den">1</property>
  <property name="meta.media.frame_rate_num">680000000</property>
  <property name="meta.media.frame_rate_den">22699373</property>
  <property name="meta.media.colorspace">601</property>
  <property name="meta.media.color_trc">2</property>
  <property name="meta.media.has_b_frames">0</property>
  <property name="meta.media.width">1920</property>
  <property name="meta.media.height">1080</property>
  <property name="meta.media.color_range">full</property>
  <property name="xml">was here</property>
  <property name="meta.media.variable_frame_rate">1</property>
  <property name="meta.media.top_field_first">0</property>
  <property name="meta.media.progressive">1</property>
  <property name="set.test_audio">0</property>
  <property name="set.test_image">1</property>
 </chain>
 <chain id="chain67" out="00:00:38.000">
  <property name="length">951</property>
  <property name="eof">pause</property>
  <property name="resource">EESTIKEELHAALED/Hääl-89.flac</property>
  <property name="mlt_service">avformat-novalidate</property>
  <property name="seekable">1</property>
  <property name="audio_index">0</property>
  <property name="video_index">-1</property>
  <property name="kdenlive:clipname"/>
  <property name="kdenlive:clip_type">1</property>
  <property name="kdenlive:folderid">-1</property>
  <property name="kdenlive:id">67</property>
  <property name="kdenlive:file_size">1284409</property>
  <property name="kdenlive:file_hash">064c0c323336d8811047ee60ebc9b693</property>
  <property name="kdenlive:audio_max0">156</property>
  <property name="kdenlive:zone_in">67</property>
  <property name="kdenlive:zone_out">912</property>
  <property name="meta.media.nb_streams">1</property>
  <property name="meta.media.0.stream.type">audio</property>
  <property name="meta.media.0.codec.sample_fmt">s16</property>
  <property name="meta.media.0.codec.sample_rate">48000</property>
  <property name="meta.media.0.codec.channels">1</property>
  <property name="meta.media.0.codec.name">flac</property>
  <property name="meta.media.0.codec.long_name">FLAC (Free Lossless Audio Codec)</property>
  <property name="meta.media.0.codec.bit_rate">0</property>
  <property name="xml">was here</property>
  <property name="mute_on_pause">0</property>
  <property name="set.test_audio">0</property>
  <property name="set.test_image">1</property>
 </chain>
 <playlist id="playlist4">
  <property name="kdenlive:audio_track">1</property>
  <entry producer="chain47" in="00:00:00.000" out="00:00:04.960">
   <property name="kdenlive:id">55</property>
  </entry>
  <blank length="00:00:10.000"/>
  <entry producer="chain52" in="00:00:00.000" out="00:00:00.600">
   <property name="kdenlive:id">26</property>
  </entry>
  <entry producer="chain53" in="00:00:00.600" out="00:00:01.520">
   <property name="kdenlive:id">29</property>
  </entry>
  <blank length="00:00:12.400"/>
  <entry producer="chain53" in="00:00:00.560" out="00:00:03.160">
   <property name="kdenlive:id">29</property>
  </entry>
  <entry producer="chain53" in="00:00:00.560" out="00:00:02.880">
   <property name="kdenlive:id">29</property>
   <filter id="filter16" in="00:00:02.680" out="00:00:02.880">
    <property name="window">75</property>
    <property name="max_gain">20dB</property>
    <property name="mlt_service">volume</property>
    <property name="kdenlive_id">fadeout</property>
    <property name="gain">1</property>
    <property name="end">0</property>
    <property name="kdenlive:collapsed">0</property>
   </filter>
  </entry>
  <blank length="00:00:10.320"/>
  <entry producer="chain54" in="00:00:03.880" out="00:00:05.240">
   <property name="kdenlive:id">21</property>
  </entry>
  <blank length="00:00:05.040"/>
  <entry producer="chain54" in="00:00:05.360" out="00:00:08.520">
   <property name="kdenlive:id">21</property>
  </entry>
  <blank length="00:00:18.160"/>
  <entry producer="chain55" in="00:00:02.680" out="00:00:12.480">
   <property name="kdenlive:id">20</property>
  </entry>
  <entry producer="chain56" in="00:00:00.440" out="00:00:01.280">
   <property name="kdenlive:id">22</property>
  </entry>
  <entry producer="chain48" in="00:00:02.520" out="00:00:03.520">
   <property name="kdenlive:id">56</property>
  </entry>
  <entry producer="chain51" in="00:00:02.080" out="00:00:02.520">
   <property name="kdenlive:id">57</property>
  </entry>
  <blank length="00:00:00.480"/>
  <entry producer="chain57" in="00:00:01.720" out="00:00:02.920">
   <property name="kdenlive:id">58</property>
  </entry>
  <blank length="00:00:00.200"/>
  <entry producer="chain58" in="00:00:04.880" out="00:00:05.920">
   <property name="kdenlive:id">59</property>
  </entry>
  <blank length="00:00:00.240"/>
  <entry producer="chain59" in="00:00:01.800" out="00:00:03.120">
   <property name="kdenlive:id">60</property>
  </entry>
  <blank length="00:00:00.400"/>
  <entry producer="chain60" in="00:00:02.200" out="00:00:05.240">
   <property name="kdenlive:id">61</property>
  </entry>
  <blank length="00:00:00.080"/>
  <entry producer="chain61" in="00:00:03.280" out="00:00:04.200">
   <property name="kdenlive:id">62</property>
  </entry>
  <blank length="00:00:00.120"/>
  <entry producer="chain62" in="00:00:02.960" out="00:00:06.520">
   <property name="kdenlive:id">63</property>
  </entry>
  <blank length="00:00:00.600"/>
  <entry producer="chain63" in="00:00:01.640" out="00:00:03.080">
   <property name="kdenlive:id">64</property>
  </entry>
  <blank length="00:00:00.440"/>
  <entry producer="chain64" in="00:00:02.760" out="00:00:28.840">
   <property name="kdenlive:id">65</property>
  </entry>
  <blank length="00:00:00.120"/>
  <entry producer="chain64" in="00:00:29.080" out="00:00:30.160">
   <property name="kdenlive:id">65</property>
  </entry>
  <blank length="00:00:00.240"/>
  <entry producer="chain64" in="00:00:30.200" out="00:00:32.280">
   <property name="kdenlive:id">65</property>
  </entry>
  <blank length="00:00:03.880"/>
  <entry producer="chain64" in="00:00:36.000" out="00:00:59.640">
   <property name="kdenlive:id">65</property>
   <filter id="filter17">
    <property name="to">1</property>
    <property name="mlt_service">channelcopy</property>
    <property name="kdenlive_id">channelcopy</property>
    <property name="from">0</property>
    <property name="swap">0</property>
    <property name="kdenlive:collapsed">0</property>
   </filter>
  </entry>
  <entry producer="chain64" in="00:01:00.240" out="00:01:01.480">
   <property name="kdenlive:id">65</property>
  </entry>
  <entry producer="chain64" in="00:01:01.440" out="00:01:04.720">
   <property name="kdenlive:id">65</property>
  </entry>
  <blank length="00:00:00.280"/>
  <entry producer="chain64" in="00:01:09.960" out="00:01:12.800">
   <property name="kdenlive:id">65</property>
  </entry>
  <blank length="00:00:06.960"/>
  <entry producer="chain65" in="00:00:02.080" out="00:00:08.600">
   <property name="kdenlive:id">66</property>
  </entry>
  <blank length="00:00:15.000"/>
  <entry producer="chain65" in="00:00:24.480" out="00:00:28.480">
   <property name="kdenlive:id">66</property>
  </entry>
  <entry producer="chain65" in="00:00:28.600" out="00:00:39.200">
   <property name="kdenlive:id">66</property>
  </entry>
  <blank length="00:00:00.800"/>
  <entry producer="chain65" in="00:00:39.720" out="00:00:41.480">
   <property name="kdenlive:id">66</property>
  </entry>
  <blank length="00:00:05.480"/>
  <entry producer="chain66" in="00:00:11.200" out="00:00:13.760">
   <property name="kdenlive:id">38</property>
  </entry>
  <blank length="00:00:03.800"/>
  <entry producer="chain65" in="00:00:53.400" out="00:00:58.040">
   <property name="kdenlive:id">66</property>
  </entry>
  <blank length="00:00:01.920"/>
  <entry producer="chain65" in="00:01:00.080" out="00:01:01.200">
   <property name="kdenlive:id">66</property>
  </entry>
  <blank length="00:00:05.080"/>
  <entry producer="chain65" in="00:01:05.960" out="00:01:29.240">
   <property name="kdenlive:id">66</property>
  </entry>
  <blank length="00:00:00.200"/>
  <entry producer="chain67" in="00:00:02.680" out="00:00:05.200">
   <property name="kdenlive:id">67</property>
  </entry>
  <blank length="00:00:00.640"/>
  <entry producer="chain67" in="00:00:05.520" out="00:00:07.160">
   <property name="kdenlive:id">67</property>
  </entry>
  <entry producer="chain67" in="00:00:07.680" out="00:00:09.120">
   <property name="kdenlive:id">67</property>
  </entry>
  <blank length="00:00:00.320"/>
  <entry producer="chain67" in="00:00:09.160" out="00:00:17.040">
   <property name="kdenlive:id">67</property>
  </entry>
  <blank length="00:00:01.120"/>
  <entry producer="chain67" in="00:00:17.080" out="00:00:17.600">
   <property name="kdenlive:id">67</property>
  </entry>
  <blank length="00:00:00.280"/>
  <entry producer="chain67" in="00:00:17.640" out="00:00:18.320">
   <property name="kdenlive:id">67</property>
  </entry>
  <blank length="00:00:00.480"/>
  <entry producer="chain67" in="00:00:18.360" out="00:00:18.840">
   <property name="kdenlive:id">67</property>
  </entry>
  <blank length="00:00:00.720"/>
  <entry producer="chain67" in="00:00:18.880" out="00:00:19.240">
   <property name="kdenlive:id">67</property>
  </entry>
  <blank length="00:00:00.400"/>
  <entry producer="chain67" in="00:00:20.840" out="00:00:23.320">
   <property name="kdenlive:id">67</property>
  </entry>
  <entry producer="chain67" in="00:00:23.720" out="00:00:24.360">
   <property name="kdenlive:id">67</property>
  </entry>
  <blank length="00:00:00.120"/>
  <entry producer="chain67" in="00:00:25.520" out="00:00:36.440">
   <property name="kdenlive:id">67</property>
  </entry>
 </playlist>
 <playlist id="playlist5">
  <property name="kdenlive:audio_track">1</property>
 </playlist>
 <tractor id="tractor2" in="00:00:00.000" out="00:04:52.840">
  <property name="kdenlive:audio_track">1</property>
  <property name="kdenlive:trackheight">67</property>
  <property name="kdenlive:timeline_active">1</property>
  <property name="kdenlive:collapsed">0</property>
  <property name="kdenlive:thumbs_format"/>
  <property name="kdenlive:audio_rec"/>
  <track hide="video" producer="playlist4"/>
  <track hide="video" producer="playlist5"/>
  <filter id="filter22">
   <property name="window">75</property>
   <property name="max_gain">20dB</property>
   <property name="mlt_service">volume</property>
   <property name="internal_added">237</property>
   <property name="disable">1</property>
  </filter>
  <filter id="filter23">
   <property name="channel">-1</property>
   <property name="mlt_service">panner</property>
   <property name="internal_added">237</property>
   <property name="start">0.5</property>
   <property name="disable">1</property>
  </filter>
  <filter id="filter18">
   <property name="iec_scale">0</property>
   <property name="mlt_service">audiolevel</property>
   <property name="dbpeak">1</property>
   <property name="disable">1</property>
  </filter>
 </tractor>
 <chain id="chain68" out="00:00:05.040">
  <property name="length">127</property>
  <property name="eof">pause</property>
  <property name="resource">muuusintro_kdenlive.mkv</property>
  <property name="mlt_service">avformat-novalidate</property>
  <property name="seekable">1</property>
  <property name="audio_index">1</property>
  <property name="video_index">0</property>
  <property name="kdenlive:clipname"/>
  <property name="kdenlive:clip_type">0</property>
  <property name="kdenlive:folderid">-1</property>
  <property name="kdenlive:id">55</property>
  <property name="kdenlive:file_size">7951294</property>
  <property name="kdenlive:file_hash">27c4d0b2b47eaeb319731f4628f15fbb</property>
  <property name="kdenlive:audio_max1">238</property>
  <property name="kdenlive:zone_in">0</property>
  <property name="kdenlive:zone_out">125</property>
  <property name="meta.media.nb_streams">2</property>
  <property name="meta.media.0.stream.type">video</property>
  <property name="meta.media.0.stream.frame_rate">25</property>
  <property name="meta.media.0.stream.sample_aspect_ratio">1</property>
  <property name="meta.media.0.codec.width">1920</property>
  <property name="meta.media.0.codec.height">1080</property>
  <property name="meta.media.0.codec.rotate">0</property>
  <property name="meta.media.0.codec.pix_fmt">yuv420p</property>
  <property name="meta.media.0.codec.sample_aspect_ratio">1</property>
  <property name="meta.media.0.codec.colorspace">709</property>
  <property name="meta.media.0.codec.color_trc">1</property>
  <property name="meta.media.0.codec.name">h264</property>
  <property name="meta.media.0.codec.long_name">H.264 / AVC / MPEG-4 AVC / MPEG-4 part 10</property>
  <property name="meta.media.0.codec.bit_rate">0</property>
  <property name="meta.media.1.stream.type">audio</property>
  <property name="meta.media.1.codec.sample_fmt">s16</property>
  <property name="meta.media.1.codec.sample_rate">48000</property>
  <property name="meta.media.1.codec.channels">2</property>
  <property name="meta.media.1.codec.name">flac</property>
  <property name="meta.media.1.codec.long_name">FLAC (Free Lossless Audio Codec)</property>
  <property name="meta.media.1.codec.bit_rate">0</property>
  <property name="meta.media.sample_aspect_num">1</property>
  <property name="meta.media.sample_aspect_den">1</property>
  <property name="meta.media.frame_rate_num">25</property>
  <property name="meta.media.frame_rate_den">1</property>
  <property name="meta.media.colorspace">709</property>
  <property name="meta.media.color_trc">1</property>
  <property name="meta.media.has_b_frames">0</property>
  <property name="meta.media.width">1920</property>
  <property name="meta.media.height">1080</property>
  <property name="meta.media.color_range">mpeg</property>
  <property name="xml">was here</property>
  <property name="meta.media.top_field_first">0</property>
  <property name="meta.media.progressive">1</property>
  <property name="set.test_audio">1</property>
  <property name="set.test_image">0</property>
 </chain>
 <chain id="chain70" out="00:00:45.200">
  <property name="length">1131</property>
  <property name="eof">pause</property>
  <property name="resource">VID_20191031_203651.mp4</property>
  <property name="mlt_service">avformat-novalidate</property>
  <property name="seekable">1</property>
  <property name="audio_index">1</property>
  <property name="video_index">0</property>
  <property name="kdenlive:clipname"/>
  <property name="kdenlive:clip_type">0</property>
  <property name="kdenlive:folderid">-1</property>
  <property name="kdenlive:id">31</property>
  <property name="kdenlive:file_size">135157261</property>
  <property name="kdenlive:file_hash">f97bcdb4130cda1db9261b30c6f1d74d</property>
  <property name="kdenlive:audio_max1">210</property>
  <property name="meta.media.nb_streams">2</property>
  <property name="meta.media.0.stream.type">video</property>
  <property name="meta.media.0.stream.frame_rate">30.0074</property>
  <property name="meta.media.0.stream.sample_aspect_ratio">0</property>
  <property name="meta.media.0.codec.width">1920</property>
  <property name="meta.media.0.codec.height">1080</property>
  <property name="meta.media.0.codec.rotate">0</property>
  <property name="meta.media.0.codec.pix_fmt">yuvj422p</property>
  <property name="meta.media.0.codec.sample_aspect_ratio">0</property>
  <property name="meta.media.0.codec.colorspace">601</property>
  <property name="meta.media.0.codec.name">mjpeg</property>
  <property name="meta.media.0.codec.long_name">MJPEG (Motion JPEG)</property>
  <property name="meta.media.0.codec.bit_rate">23766661</property>
  <property name="meta.attr.0.stream.language.markup">eng</property>
  <property name="meta.attr.0.stream.handler_name.markup">VideoHandler</property>
  <property name="meta.attr.0.stream.vendor_id.markup">FFMP</property>
  <property name="meta.attr.0.stream.encoder.markup">mjpeg</property>
  <property name="meta.media.1.stream.type">audio</property>
  <property name="meta.media.1.codec.sample_fmt">fltp</property>
  <property name="meta.media.1.codec.sample_rate">48000</property>
  <property name="meta.media.1.codec.channels">2</property>
  <property name="meta.media.1.codec.name">aac</property>
  <property name="meta.media.1.codec.long_name">AAC (Advanced Audio Coding)</property>
  <property name="meta.media.1.codec.bit_rate">153912</property>
  <property name="meta.attr.1.stream.language.markup">eng</property>
  <property name="meta.attr.1.stream.handler_name.markup">SoundHandler</property>
  <property name="meta.attr.1.stream.vendor_id.markup">[0][0][0][0]</property>
  <property name="meta.attr.major_brand.markup">qt  </property>
  <property name="meta.attr.minor_version.markup">512</property>
  <property name="meta.attr.compatible_brands.markup">qt  </property>
  <property name="meta.attr.encoder.markup">Lavf55.33.100</property>
  <property name="meta.media.sample_aspect_num">1</property>
  <property name="meta.media.sample_aspect_den">1</property>
  <property name="meta.media.frame_rate_num">1705586773</property>
  <property name="meta.media.frame_rate_den">56838887</property>
  <property name="meta.media.colorspace">601</property>
  <property name="meta.media.color_trc">2</property>
  <property name="meta.media.has_b_frames">0</property>
  <property name="meta.media.width">1920</property>
  <property name="meta.media.height">1080</property>
  <property name="meta.media.color_range">full</property>
  <property name="xml">was here</property>
  <property name="meta.media.variable_frame_rate">1</property>
  <property name="meta.media.top_field_first">0</property>
  <property name="meta.media.progressive">1</property>
  <property name="set.test_audio">1</property>
  <property name="set.test_image">0</property>
 </chain>
 <producer id="producer14" in="00:00:00.000" out="00:00:01.960">
  <property name="length">50</property>
  <property name="eof">pause</property>
  <property name="resource">3.500000:20191031_204745.mp4</property>
  <property name="aspect_ratio">1</property>
  <property name="meta.media.nb_streams">2</property>
  <property name="meta.media.0.stream.type">video</property>
  <property name="meta.media.0.stream.frame_rate">29.9106</property>
  <property name="meta.media.0.stream.sample_aspect_ratio">1</property>
  <property name="meta.media.0.codec.width">1920</property>
  <property name="meta.media.0.codec.height">1080</property>
  <property name="meta.media.0.codec.rotate">0</property>
  <property name="meta.media.0.codec.pix_fmt">yuv420p</property>
  <property name="meta.media.0.codec.sample_aspect_ratio">0</property>
  <property name="meta.media.0.codec.colorspace">709</property>
  <property name="meta.media.0.codec.color_trc">1</property>
  <property name="meta.media.0.codec.name">h264</property>
  <property name="meta.media.0.codec.long_name">H.264 / AVC / MPEG-4 AVC / MPEG-4 part 10</property>
  <property name="meta.media.0.codec.bit_rate">16956571</property>
  <property name="meta.attr.0.stream.creation_time.markup">2019-10-31T09:47:53.000000Z</property>
  <property name="meta.attr.0.stream.language.markup">eng</property>
  <property name="meta.attr.0.stream.handler_name.markup">VideoHandle</property>
  <property name="meta.attr.0.stream.vendor_id.markup">[0][0][0][0]</property>
  <property name="meta.media.1.stream.type">audio</property>
  <property name="meta.media.1.codec.sample_fmt">fltp</property>
  <property name="meta.media.1.codec.sample_rate">48000</property>
  <property name="meta.media.1.codec.channels">2</property>
  <property name="meta.media.1.codec.name">aac</property>
  <property name="meta.media.1.codec.long_name">AAC (Advanced Audio Coding)</property>
  <property name="meta.media.1.codec.bit_rate">256001</property>
  <property name="meta.attr.1.stream.creation_time.markup">2019-10-31T09:47:53.000000Z</property>
  <property name="meta.attr.1.stream.language.markup">eng</property>
  <property name="meta.attr.1.stream.handler_name.markup">SoundHandle</property>
  <property name="meta.attr.1.stream.vendor_id.markup">[0][0][0][0]</property>
  <property name="meta.attr.major_brand.markup">mp42</property>
  <property name="meta.attr.minor_version.markup">0</property>
  <property name="meta.attr.compatible_brands.markup">isommp42</property>
  <property name="meta.attr.creation_time.markup">2019-10-31T09:47:53.000000Z</property>
  <property name="seekable">1</property>
  <property name="meta.media.sample_aspect_num">1</property>
  <property name="meta.media.sample_aspect_den">1</property>
  <property name="audio_index">1</property>
  <property name="video_index">0</property>
  <property name="warp_speed">3.5</property>
  <property name="warp_resource">20191031_204745.mp4</property>
  <property name="mlt_service">timewarp</property>
  <property name="set.test_audio">1</property>
  <property name="set.test_image">0</property>
  <property name="kdenlive:id">4</property>
  <property name="warp_pitch">0</property>
  <property name="meta.media.frame_rate_num">2700000</property>
  <property name="meta.media.frame_rate_den">90269</property>
  <property name="meta.media.colorspace">709</property>
  <property name="meta.media.color_trc">1</property>
  <property name="meta.media.has_b_frames">0</property>
  <property name="meta.media.width">1920</property>
  <property name="meta.media.height">1080</property>
  <property name="meta.media.color_range">mpeg</property>
  <property name="meta.media.variable_frame_rate">1</property>
  <property name="meta.media.top_field_first">0</property>
  <property name="meta.media.progressive">1</property>
 </producer>
 <producer id="producer15" in="00:00:00.000" out="00:00:03.120">
  <property name="length">79</property>
  <property name="eof">pause</property>
  <property name="resource">2.030300:20191031_204838.mp4</property>
  <property name="aspect_ratio">1</property>
  <property name="meta.media.nb_streams">2</property>
  <property name="meta.media.0.stream.type">video</property>
  <property name="meta.media.0.stream.frame_rate">29.9188</property>
  <property name="meta.media.0.stream.sample_aspect_ratio">1</property>
  <property name="meta.media.0.codec.width">1920</property>
  <property name="meta.media.0.codec.height">1080</property>
  <property name="meta.media.0.codec.rotate">0</property>
  <property name="meta.media.0.codec.pix_fmt">yuv420p</property>
  <property name="meta.media.0.codec.sample_aspect_ratio">0</property>
  <property name="meta.media.0.codec.colorspace">709</property>
  <property name="meta.media.0.codec.color_trc">1</property>
  <property name="meta.media.0.codec.name">h264</property>
  <property name="meta.media.0.codec.long_name">H.264 / AVC / MPEG-4 AVC / MPEG-4 part 10</property>
  <property name="meta.media.0.codec.bit_rate">17043918</property>
  <property name="meta.attr.0.stream.creation_time.markup">2019-10-31T09:48:46.000000Z</property>
  <property name="meta.attr.0.stream.language.markup">eng</property>
  <property name="meta.attr.0.stream.handler_name.markup">VideoHandle</property>
  <property name="meta.attr.0.stream.vendor_id.markup">[0][0][0][0]</property>
  <property name="meta.media.1.stream.type">audio</property>
  <property name="meta.media.1.codec.sample_fmt">fltp</property>
  <property name="meta.media.1.codec.sample_rate">48000</property>
  <property name="meta.media.1.codec.channels">2</property>
  <property name="meta.media.1.codec.name">aac</property>
  <property name="meta.media.1.codec.long_name">AAC (Advanced Audio Coding)</property>
  <property name="meta.media.1.codec.bit_rate">256045</property>
  <property name="meta.attr.1.stream.creation_time.markup">2019-10-31T09:48:46.000000Z</property>
  <property name="meta.attr.1.stream.language.markup">eng</property>
  <property name="meta.attr.1.stream.handler_name.markup">SoundHandle</property>
  <property name="meta.attr.1.stream.vendor_id.markup">[0][0][0][0]</property>
  <property name="meta.attr.major_brand.markup">mp42</property>
  <property name="meta.attr.minor_version.markup">0</property>
  <property name="meta.attr.compatible_brands.markup">isommp42</property>
  <property name="meta.attr.creation_time.markup">2019-10-31T09:48:46.000000Z</property>
  <property name="seekable">1</property>
  <property name="meta.media.sample_aspect_num">1</property>
  <property name="meta.media.sample_aspect_den">1</property>
  <property name="audio_index">1</property>
  <property name="video_index">0</property>
  <property name="warp_speed">2.0303</property>
  <property name="warp_resource">20191031_204838.mp4</property>
  <property name="mlt_service">timewarp</property>
  <property name="set.test_audio">1</property>
  <property name="set.test_image">0</property>
  <property name="kdenlive:id">5</property>
  <property name="warp_pitch">0</property>
  <property name="meta.media.frame_rate_num">4297500</property>
  <property name="meta.media.frame_rate_den">143639</property>
  <property name="meta.media.colorspace">709</property>
  <property name="meta.media.color_trc">1</property>
  <property name="meta.media.has_b_frames">0</property>
  <property name="meta.media.width">1920</property>
  <property name="meta.media.height">1080</property>
  <property name="meta.media.color_range">mpeg</property>
  <property name="meta.media.variable_frame_rate">1</property>
  <property name="meta.media.top_field_first">0</property>
  <property name="meta.media.progressive">1</property>
 </producer>
 <producer id="producer17" in="00:00:00.000" out="00:00:02.960">
  <property name="length">75</property>
  <property name="eof">pause</property>
  <property name="resource">15.000000:VID_20191031_203651.mp4</property>
  <property name="aspect_ratio">1</property>
  <property name="meta.media.nb_streams">2</property>
  <property name="meta.media.0.stream.type">video</property>
  <property name="meta.media.0.stream.frame_rate">30.0074</property>
  <property name="meta.media.0.stream.sample_aspect_ratio">0</property>
  <property name="meta.media.0.codec.width">1920</property>
  <property name="meta.media.0.codec.height">1080</property>
  <property name="meta.media.0.codec.rotate">0</property>
  <property name="meta.media.0.codec.pix_fmt">yuvj422p</property>
  <property name="meta.media.0.codec.sample_aspect_ratio">0</property>
  <property name="meta.media.0.codec.colorspace">601</property>
  <property name="meta.media.0.codec.name">mjpeg</property>
  <property name="meta.media.0.codec.long_name">MJPEG (Motion JPEG)</property>
  <property name="meta.media.0.codec.bit_rate">23766661</property>
  <property name="meta.attr.0.stream.language.markup">eng</property>
  <property name="meta.attr.0.stream.handler_name.markup">VideoHandler</property>
  <property name="meta.attr.0.stream.vendor_id.markup">FFMP</property>
  <property name="meta.attr.0.stream.encoder.markup">mjpeg</property>
  <property name="meta.media.1.stream.type">audio</property>
  <property name="meta.media.1.codec.sample_fmt">fltp</property>
  <property name="meta.media.1.codec.sample_rate">48000</property>
  <property name="meta.media.1.codec.channels">2</property>
  <property name="meta.media.1.codec.name">aac</property>
  <property name="meta.media.1.codec.long_name">AAC (Advanced Audio Coding)</property>
  <property name="meta.media.1.codec.bit_rate">153912</property>
  <property name="meta.attr.1.stream.language.markup">eng</property>
  <property name="meta.attr.1.stream.handler_name.markup">SoundHandler</property>
  <property name="meta.attr.1.stream.vendor_id.markup">[0][0][0][0]</property>
  <property name="meta.attr.major_brand.markup">qt  </property>
  <property name="meta.attr.minor_version.markup">512</property>
  <property name="meta.attr.compatible_brands.markup">qt  </property>
  <property name="meta.attr.encoder.markup">Lavf55.33.100</property>
  <property name="seekable">1</property>
  <property name="meta.media.sample_aspect_num">1</property>
  <property name="meta.media.sample_aspect_den">1</property>
  <property name="audio_index">1</property>
  <property name="video_index">0</property>
  <property name="warp_speed">15</property>
  <property name="warp_resource">VID_20191031_203651.mp4</property>
  <property name="mlt_service">timewarp</property>
  <property name="set.test_audio">1</property>
  <property name="set.test_image">0</property>
  <property name="kdenlive:id">31</property>
  <property name="warp_pitch">0</property>
  <property name="meta.media.frame_rate_num">1705586773</property>
  <property name="meta.media.frame_rate_den">56838887</property>
  <property name="meta.media.colorspace">601</property>
  <property name="meta.media.color_trc">2</property>
  <property name="meta.media.has_b_frames">0</property>
  <property name="meta.media.width">1920</property>
  <property name="meta.media.height">1080</property>
  <property name="meta.media.color_range">full</property>
  <property name="meta.media.variable_frame_rate">1</property>
  <property name="meta.media.top_field_first">0</property>
  <property name="meta.media.progressive">1</property>
 </producer>
 <chain id="chain71" out="00:00:07.840">
  <property name="length">197</property>
  <property name="eof">pause</property>
  <property name="resource">20191101_195436.mp4</property>
  <property name="mlt_service">avformat-novalidate</property>
  <property name="seekable">1</property>
  <property name="audio_index">1</property>
  <property name="video_index">0</property>
  <property name="kdenlive:clipname"/>
  <property name="kdenlive:clip_type">0</property>
  <property name="kdenlive:folderid">-1</property>
  <property name="kdenlive:id">6</property>
  <property name="kdenlive:file_size">16981239</property>
  <property name="kdenlive:file_hash">4aa76bfb567f67447869ea58de358f89</property>
  <property name="kdenlive:audio_max1">116</property>
  <property name="meta.media.nb_streams">2</property>
  <property name="meta.media.0.stream.type">video</property>
  <property name="meta.media.0.stream.frame_rate">29.9927</property>
  <property name="meta.media.0.stream.sample_aspect_ratio">1</property>
  <property name="meta.media.0.codec.width">1920</property>
  <property name="meta.media.0.codec.height">1080</property>
  <property name="meta.media.0.codec.rotate">0</property>
  <property name="meta.media.0.codec.pix_fmt">yuv420p</property>
  <property name="meta.media.0.codec.sample_aspect_ratio">0</property>
  <property name="meta.media.0.codec.colorspace">709</property>
  <property name="meta.media.0.codec.color_trc">1</property>
  <property name="meta.media.0.codec.name">h264</property>
  <property name="meta.media.0.codec.long_name">H.264 / AVC / MPEG-4 AVC / MPEG-4 part 10</property>
  <property name="meta.media.0.codec.bit_rate">17004717</property>
  <property name="meta.attr.0.stream.creation_time.markup">2019-11-01T08:54:45.000000Z</property>
  <property name="meta.attr.0.stream.language.markup">eng</property>
  <property name="meta.attr.0.stream.handler_name.markup">VideoHandle</property>
  <property name="meta.attr.0.stream.vendor_id.markup">[0][0][0][0]</property>
  <property name="meta.media.1.stream.type">audio</property>
  <property name="meta.media.1.codec.sample_fmt">fltp</property>
  <property name="meta.media.1.codec.sample_rate">48000</property>
  <property name="meta.media.1.codec.channels">2</property>
  <property name="meta.media.1.codec.name">aac</property>
  <property name="meta.media.1.codec.long_name">AAC (Advanced Audio Coding)</property>
  <property name="meta.media.1.codec.bit_rate">256068</property>
  <property name="meta.attr.1.stream.creation_time.markup">2019-11-01T08:54:45.000000Z</property>
  <property name="meta.attr.1.stream.language.markup">eng</property>
  <property name="meta.attr.1.stream.handler_name.markup">SoundHandle</property>
  <property name="meta.attr.1.stream.vendor_id.markup">[0][0][0][0]</property>
  <property name="meta.attr.major_brand.markup">mp42</property>
  <property name="meta.attr.minor_version.markup">0</property>
  <property name="meta.attr.compatible_brands.markup">isommp42</property>
  <property name="meta.attr.creation_time.markup">2019-11-01T08:54:45.000000Z</property>
  <property name="meta.media.sample_aspect_num">1</property>
  <property name="meta.media.sample_aspect_den">1</property>
  <property name="meta.media.frame_rate_num">21240000</property>
  <property name="meta.media.frame_rate_den">708173</property>
  <property name="meta.media.colorspace">709</property>
  <property name="meta.media.color_trc">1</property>
  <property name="meta.media.has_b_frames">0</property>
  <property name="meta.media.width">1920</property>
  <property name="meta.media.height">1080</property>
  <property name="meta.media.color_range">mpeg</property>
  <property name="xml">was here</property>
  <property name="meta.media.variable_frame_rate">1</property>
  <property name="meta.media.top_field_first">0</property>
  <property name="meta.media.progressive">1</property>
  <property name="set.test_audio">1</property>
  <property name="set.test_image">0</property>
 </chain>
 <producer id="producer18" in="00:00:00.000" out="00:01:18.640">
  <property name="length">1970</property>
  <property name="eof">pause</property>
  <property name="resource">0.100000:20191101_195436.mp4</property>
  <property name="aspect_ratio">1</property>
  <property name="meta.media.nb_streams">2</property>
  <property name="meta.media.0.stream.type">video</property>
  <property name="meta.media.0.stream.frame_rate">29.9927</property>
  <property name="meta.media.0.stream.sample_aspect_ratio">1</property>
  <property name="meta.media.0.codec.width">1920</property>
  <property name="meta.media.0.codec.height">1080</property>
  <property name="meta.media.0.codec.rotate">0</property>
  <property name="meta.media.0.codec.pix_fmt">yuv420p</property>
  <property name="meta.media.0.codec.sample_aspect_ratio">0</property>
  <property name="meta.media.0.codec.colorspace">709</property>
  <property name="meta.media.0.codec.color_trc">1</property>
  <property name="meta.media.0.codec.name">h264</property>
  <property name="meta.media.0.codec.long_name">H.264 / AVC / MPEG-4 AVC / MPEG-4 part 10</property>
  <property name="meta.media.0.codec.bit_rate">17004717</property>
  <property name="meta.attr.0.stream.creation_time.markup">2019-11-01T08:54:45.000000Z</property>
  <property name="meta.attr.0.stream.language.markup">eng</property>
  <property name="meta.attr.0.stream.handler_name.markup">VideoHandle</property>
  <property name="meta.attr.0.stream.vendor_id.markup">[0][0][0][0]</property>
  <property name="meta.media.1.stream.type">audio</property>
  <property name="meta.media.1.codec.sample_fmt">fltp</property>
  <property name="meta.media.1.codec.sample_rate">48000</property>
  <property name="meta.media.1.codec.channels">2</property>
  <property name="meta.media.1.codec.name">aac</property>
  <property name="meta.media.1.codec.long_name">AAC (Advanced Audio Coding)</property>
  <property name="meta.media.1.codec.bit_rate">256068</property>
  <property name="meta.attr.1.stream.creation_time.markup">2019-11-01T08:54:45.000000Z</property>
  <property name="meta.attr.1.stream.language.markup">eng</property>
  <property name="meta.attr.1.stream.handler_name.markup">SoundHandle</property>
  <property name="meta.attr.1.stream.vendor_id.markup">[0][0][0][0]</property>
  <property name="meta.attr.major_brand.markup">mp42</property>
  <property name="meta.attr.minor_version.markup">0</property>
  <property name="meta.attr.compatible_brands.markup">isommp42</property>
  <property name="meta.attr.creation_time.markup">2019-11-01T08:54:45.000000Z</property>
  <property name="seekable">1</property>
  <property name="meta.media.sample_aspect_num">1</property>
  <property name="meta.media.sample_aspect_den">1</property>
  <property name="audio_index">1</property>
  <property name="video_index">0</property>
  <property name="warp_speed">0.1</property>
  <property name="warp_resource">20191101_195436.mp4</property>
  <property name="mlt_service">timewarp</property>
  <property name="set.test_audio">1</property>
  <property name="set.test_image">0</property>
  <property name="kdenlive:id">6</property>
  <property name="warp_pitch">0</property>
  <property name="meta.media.frame_rate_num">21240000</property>
  <property name="meta.media.frame_rate_den">708173</property>
  <property name="meta.media.colorspace">709</property>
  <property name="meta.media.color_trc">1</property>
  <property name="meta.media.has_b_frames">0</property>
  <property name="meta.media.width">1920</property>
  <property name="meta.media.height">1080</property>
  <property name="meta.media.color_range">mpeg</property>
  <property name="meta.media.variable_frame_rate">1</property>
  <property name="meta.media.top_field_first">0</property>
  <property name="meta.media.progressive">1</property>
 </producer>
 <chain id="chain72" out="00:00:09.280">
  <property name="length">233</property>
  <property name="eof">pause</property>
  <property name="resource">VID_20191101_203536.mp4</property>
  <property name="mlt_service">avformat-novalidate</property>
  <property name="seekable">1</property>
  <property name="audio_index">1</property>
  <property name="video_index">0</property>
  <property name="kdenlive:clipname"/>
  <property name="kdenlive:clip_type">0</property>
  <property name="kdenlive:folderid">-1</property>
  <property name="kdenlive:id">32</property>
  <property name="kdenlive:file_size">25969752</property>
  <property name="kdenlive:file_hash">ae48afbdb2190b7c2c87da918376d67b</property>
  <property name="kdenlive:audio_max1">203</property>
  <property name="kdenlive:zone_in">49</property>
  <property name="kdenlive:zone_out">232</property>
  <property name="meta.media.nb_streams">1</property>
  <property name="meta.media.0.stream.type">video</property>
  <property name="meta.media.0.stream.frame_rate">30.0725</property>
  <property name="meta.media.0.stream.sample_aspect_ratio">0</property>
  <property name="meta.media.0.codec.width">1920</property>
  <property name="meta.media.0.codec.height">1080</property>
  <property name="meta.media.0.codec.rotate">0</property>
  <property name="meta.media.0.codec.pix_fmt">yuvj422p</property>
  <property name="meta.media.0.codec.sample_aspect_ratio">0</property>
  <property name="meta.media.0.codec.colorspace">601</property>
  <property name="meta.media.0.codec.name">mjpeg</property>
  <property name="meta.media.0.codec.long_name">MJPEG (Motion JPEG)</property>
  <property name="meta.media.0.codec.bit_rate">22157475</property>
  <property name="meta.attr.0.stream.language.markup">eng</property>
  <property name="meta.attr.0.stream.handler_name.markup">VideoHandler</property>
  <property name="meta.attr.0.stream.vendor_id.markup">FFMP</property>
  <property name="meta.attr.0.stream.encoder.markup">mjpeg</property>
  <property name="meta.media.1.stream.type">audio</property>
  <property name="meta.media.1.codec.sample_fmt">fltp</property>
  <property name="meta.media.1.codec.sample_rate">48000</property>
  <property name="meta.media.1.codec.channels">2</property>
  <property name="meta.media.1.codec.name">aac</property>
  <property name="meta.media.1.codec.long_name">AAC (Advanced Audio Coding)</property>
  <property name="meta.media.1.codec.bit_rate">148152</property>
  <property name="meta.attr.1.stream.language.markup">eng</property>
  <property name="meta.attr.1.stream.handler_name.markup">SoundHandler</property>
  <property name="meta.attr.1.stream.vendor_id.markup">[0][0][0][0]</property>
  <property name="meta.attr.major_brand.markup">qt  </property>
  <property name="meta.attr.minor_version.markup">512</property>
  <property name="meta.attr.compatible_brands.markup">qt  </property>
  <property name="meta.attr.encoder.markup">Lavf55.33.100</property>
  <property name="meta.media.sample_aspect_num">1</property>
  <property name="meta.media.sample_aspect_den">1</property>
  <property name="meta.media.frame_rate_num">400000000</property>
  <property name="meta.media.frame_rate_den">13301183</property>
  <property name="meta.media.colorspace">601</property>
  <property name="meta.media.color_trc">2</property>
  <property name="meta.media.has_b_frames">0</property>
  <property name="meta.media.width">1920</property>
  <property name="meta.media.height">1080</property>
  <property name="meta.media.color_range">full</property>
  <property name="xml">was here</property>
  <property name="meta.media.variable_frame_rate">1</property>
  <property name="meta.media.top_field_first">0</property>
  <property name="meta.media.progressive">1</property>
  <property name="set.test_audio">1</property>
  <property name="set.test_image">0</property>
 </chain>
 <chain id="chain73" out="00:00:32.000">
  <property name="length">801</property>
  <property name="eof">pause</property>
  <property name="resource">VID_20191101_210246.mp4</property>
  <property name="mlt_service">avformat-novalidate</property>
  <property name="seekable">1</property>
  <property name="audio_index">1</property>
  <property name="video_index">0</property>
  <property name="kdenlive:clipname"/>
  <property name="kdenlive:clip_type">0</property>
  <property name="kdenlive:folderid">-1</property>
  <property name="kdenlive:id">33</property>
  <property name="kdenlive:file_size">80387669</property>
  <property name="kdenlive:file_hash">443c6b99bb61deec91e853ecd119f206</property>
  <property name="kdenlive:audio_max1">231</property>
  <property name="kdenlive:zone_in">28</property>
  <property name="kdenlive:zone_out">64</property>
  <property name="meta.media.nb_streams">2</property>
  <property name="meta.media.0.stream.type">video</property>
  <property name="meta.media.0.stream.frame_rate">29.9684</property>
  <property name="meta.media.0.stream.sample_aspect_ratio">0</property>
  <property name="meta.media.0.codec.width">1920</property>
  <property name="meta.media.0.codec.height">1080</property>
  <property name="meta.media.0.codec.rotate">0</property>
  <property name="meta.media.0.codec.pix_fmt">yuvj422p</property>
  <property name="meta.media.0.codec.sample_aspect_ratio">0</property>
  <property name="meta.media.0.codec.colorspace">601</property>
  <property name="meta.media.0.codec.name">mjpeg</property>
  <property name="meta.media.0.codec.long_name">MJPEG (Motion JPEG)</property>
  <property name="meta.media.0.codec.bit_rate">19917422</property>
  <property name="meta.attr.0.stream.language.markup">eng</property>
  <property name="meta.attr.0.stream.handler_name.markup">VideoHandler</property>
  <property name="meta.attr.0.stream.vendor_id.markup">FFMP</property>
  <property name="meta.attr.0.stream.encoder.markup">mjpeg</property>
  <property name="meta.media.1.stream.type">audio</property>
  <property name="meta.media.1.codec.sample_fmt">fltp</property>
  <property name="meta.media.1.codec.sample_rate">48000</property>
  <property name="meta.media.1.codec.channels">2</property>
  <property name="meta.media.1.codec.name">aac</property>
  <property name="meta.media.1.codec.long_name">AAC (Advanced Audio Coding)</property>
  <property name="meta.media.1.codec.bit_rate">151187</property>
  <property name="meta.attr.1.stream.language.markup">eng</property>
  <property name="meta.attr.1.stream.handler_name.markup">SoundHandler</property>
  <property name="meta.attr.1.stream.vendor_id.markup">[0][0][0][0]</property>
  <property name="meta.attr.major_brand.markup">qt  </property>
  <property name="meta.attr.minor_version.markup">512</property>
  <property name="meta.attr.compatible_brands.markup">qt  </property>
  <property name="meta.attr.encoder.markup">Lavf55.33.100</property>
  <property name="meta.media.sample_aspect_num">1</property>
  <property name="meta.media.sample_aspect_den">1</property>
  <property name="meta.media.frame_rate_num">1848086143</property>
  <property name="meta.media.frame_rate_den">61667751</property>
  <property name="meta.media.colorspace">601</property>
  <property name="meta.media.color_trc">2</property>
  <property name="meta.media.has_b_frames">0</property>
  <property name="meta.media.width">1920</property>
  <property name="meta.media.height">1080</property>
  <property name="meta.media.color_range">full</property>
  <property name="xml">was here</property>
  <property name="meta.media.variable_frame_rate">1</property>
  <property name="meta.media.top_field_first">0</property>
  <property name="meta.media.progressive">1</property>
  <property name="set.test_audio">1</property>
  <property name="set.test_image">0</property>
 </chain>
 <chain id="chain74" out="00:00:58.720">
  <property name="length">1469</property>
  <property name="eof">pause</property>
  <property name="resource">VID_20191101_213103.mp4</property>
  <property name="mlt_service">avformat-novalidate</property>
  <property name="seekable">1</property>
  <property name="audio_index">1</property>
  <property name="video_index">0</property>
  <property name="kdenlive:clipname"/>
  <property name="kdenlive:clip_type">0</property>
  <property name="kdenlive:folderid">-1</property>
  <property name="kdenlive:id">34</property>
  <property name="kdenlive:file_size">156580942</property>
  <property name="kdenlive:file_hash">6f0f1130b4923e6443e656d123cf84bb</property>
  <property name="kdenlive:audio_max1">220</property>
  <property name="kdenlive:zone_in">40</property>
  <property name="kdenlive:zone_out">1468</property>
  <property name="meta.media.nb_streams">2</property>
  <property name="meta.media.0.stream.type">video</property>
  <property name="meta.media.0.stream.frame_rate">29.9852</property>
  <property name="meta.media.0.stream.sample_aspect_ratio">0</property>
  <property name="meta.media.0.codec.width">1920</property>
  <property name="meta.media.0.codec.height">1080</property>
  <property name="meta.media.0.codec.rotate">0</property>
  <property name="meta.media.0.codec.pix_fmt">yuvj422p</property>
  <property name="meta.media.0.codec.sample_aspect_ratio">0</property>
  <property name="meta.media.0.codec.colorspace">601</property>
  <property name="meta.media.0.codec.name">mjpeg</property>
  <property name="meta.media.0.codec.long_name">MJPEG (Motion JPEG)</property>
  <property name="meta.media.0.codec.bit_rate">21176004</property>
  <property name="meta.attr.0.stream.language.markup">eng</property>
  <property name="meta.attr.0.stream.handler_name.markup">VideoHandler</property>
  <property name="meta.attr.0.stream.vendor_id.markup">FFMP</property>
  <property name="meta.attr.0.stream.encoder.markup">mjpeg</property>
  <property name="meta.media.1.stream.type">audio</property>
  <property name="meta.media.1.codec.sample_fmt">fltp</property>
  <property name="meta.media.1.codec.sample_rate">48000</property>
  <property name="meta.media.1.codec.channels">2</property>
  <property name="meta.media.1.codec.name">aac</property>
  <property name="meta.media.1.codec.long_name">AAC (Advanced Audio Coding)</property>
  <property name="meta.media.1.codec.bit_rate">146410</property>
  <property name="meta.attr.1.stream.language.markup">eng</property>
  <property name="meta.attr.1.stream.handler_name.markup">SoundHandler</property>
  <property name="meta.attr.1.stream.vendor_id.markup">[0][0][0][0]</property>
  <property name="meta.attr.major_brand.markup">qt  </property>
  <property name="meta.attr.minor_version.markup">512</property>
  <property name="meta.attr.compatible_brands.markup">qt  </property>
  <property name="meta.attr.encoder.markup">Lavf55.33.100</property>
  <property name="meta.media.sample_aspect_num">1</property>
  <property name="meta.media.sample_aspect_den">1</property>
  <property name="meta.media.frame_rate_num">999384231</property>
  <property name="meta.media.frame_rate_den">33329264</property>
  <property name="meta.media.colorspace">601</property>
  <property name="meta.media.color_trc">2</property>
  <property name="meta.media.has_b_frames">0</property>
  <property name="meta.media.width">1920</property>
  <property name="meta.media.height">1080</property>
  <property name="meta.media.color_range">full</property>
  <property name="xml">was here</property>
  <property name="meta.media.variable_frame_rate">1</property>
  <property name="meta.media.top_field_first">0</property>
  <property name="meta.media.progressive">1</property>
  <property name="set.test_audio">1</property>
  <property name="set.test_image">0</property>
 </chain>
 <chain id="chain75" out="00:00:07.360">
  <property name="length">185</property>
  <property name="eof">pause</property>
  <property name="resource">VID_20191102_195019.mp4</property>
  <property name="mlt_service">avformat-novalidate</property>
  <property name="seekable">1</property>
  <property name="audio_index">1</property>
  <property name="video_index">0</property>
  <property name="kdenlive:clipname"/>
  <property name="kdenlive:clip_type">0</property>
  <property name="kdenlive:folderid">-1</property>
  <property name="kdenlive:id">35</property>
  <property name="kdenlive:file_size">23071294</property>
  <property name="kdenlive:file_hash">9fe6ce0da87b1b01cd224ca8d8c4db2c</property>
  <property name="kdenlive:audio_max1">183</property>
  <property name="meta.media.nb_streams">2</property>
  <property name="meta.media.0.stream.type">video</property>
  <property name="meta.media.0.stream.frame_rate">30.1221</property>
  <property name="meta.media.0.stream.sample_aspect_ratio">0</property>
  <property name="meta.media.0.codec.width">1920</property>
  <property name="meta.media.0.codec.height">1080</property>
  <property name="meta.media.0.codec.rotate">0</property>
  <property name="meta.media.0.codec.pix_fmt">yuvj422p</property>
  <property name="meta.media.0.codec.sample_aspect_ratio">0</property>
  <property name="meta.media.0.codec.colorspace">601</property>
  <property name="meta.media.0.codec.name">mjpeg</property>
  <property name="meta.media.0.codec.long_name">MJPEG (Motion JPEG)</property>
  <property name="meta.media.0.codec.bit_rate">24885162</property>
  <property name="meta.attr.0.stream.language.markup">eng</property>
  <property name="meta.attr.0.stream.handler_name.markup">VideoHandler</property>
  <property name="meta.attr.0.stream.vendor_id.markup">FFMP</property>
  <property name="meta.attr.0.stream.encoder.markup">mjpeg</property>
  <property name="meta.media.1.stream.type">audio</property>
  <property name="meta.media.1.codec.sample_fmt">fltp</property>
  <property name="meta.media.1.codec.sample_rate">48000</property>
  <property name="meta.media.1.codec.channels">2</property>
  <property name="meta.media.1.codec.name">aac</property>
  <property name="meta.media.1.codec.long_name">AAC (Advanced Audio Coding)</property>
  <property name="meta.media.1.codec.bit_rate">149707</property>
  <property name="meta.attr.1.stream.language.markup">eng</property>
  <property name="meta.attr.1.stream.handler_name.markup">SoundHandler</property>
  <property name="meta.attr.1.stream.vendor_id.markup">[0][0][0][0]</property>
  <property name="meta.attr.major_brand.markup">qt  </property>
  <property name="meta.attr.minor_version.markup">512</property>
  <property name="meta.attr.compatible_brands.markup">qt  </property>
  <property name="meta.attr.encoder.markup">Lavf55.33.100</property>
  <property name="meta.media.sample_aspect_num">1</property>
  <property name="meta.media.sample_aspect_den">1</property>
  <property name="meta.media.frame_rate_num">740000000</property>
  <property name="meta.media.frame_rate_den">24566641</property>
  <property name="meta.media.colorspace">601</property>
  <property name="meta.media.color_trc">2</property>
  <property name="meta.media.has_b_frames">0</property>
  <property name="meta.media.width">1920</property>
  <property name="meta.media.height">1080</property>
  <property name="meta.media.color_range">full</property>
  <property name="xml">was here</property>
  <property name="meta.media.top_field_first">0</property>
  <property name="meta.media.progressive">1</property>
  <property name="set.test_audio">1</property>
  <property name="set.test_image">0</property>
 </chain>
 <producer id="producer19" in="00:00:00.000" out="00:00:26.720">
  <property name="length">669</property>
  <property name="eof">pause</property>
  <property name="resource">0.276700:VID_20191102_195019.mp4</property>
  <property name="aspect_ratio">1</property>
  <property name="meta.media.nb_streams">2</property>
  <property name="meta.media.0.stream.type">video</property>
  <property name="meta.media.0.stream.frame_rate">30.1221</property>
  <property name="meta.media.0.stream.sample_aspect_ratio">0</property>
  <property name="meta.media.0.codec.width">1920</property>
  <property name="meta.media.0.codec.height">1080</property>
  <property name="meta.media.0.codec.rotate">0</property>
  <property name="meta.media.0.codec.pix_fmt">yuvj422p</property>
  <property name="meta.media.0.codec.sample_aspect_ratio">0</property>
  <property name="meta.media.0.codec.colorspace">601</property>
  <property name="meta.media.0.codec.name">mjpeg</property>
  <property name="meta.media.0.codec.long_name">MJPEG (Motion JPEG)</property>
  <property name="meta.media.0.codec.bit_rate">24885162</property>
  <property name="meta.attr.0.stream.language.markup">eng</property>
  <property name="meta.attr.0.stream.handler_name.markup">VideoHandler</property>
  <property name="meta.attr.0.stream.vendor_id.markup">FFMP</property>
  <property name="meta.attr.0.stream.encoder.markup">mjpeg</property>
  <property name="meta.media.1.stream.type">audio</property>
  <property name="meta.media.1.codec.sample_fmt">fltp</property>
  <property name="meta.media.1.codec.sample_rate">48000</property>
  <property name="meta.media.1.codec.channels">2</property>
  <property name="meta.media.1.codec.name">aac</property>
  <property name="meta.media.1.codec.long_name">AAC (Advanced Audio Coding)</property>
  <property name="meta.media.1.codec.bit_rate">149707</property>
  <property name="meta.attr.1.stream.language.markup">eng</property>
  <property name="meta.attr.1.stream.handler_name.markup">SoundHandler</property>
  <property name="meta.attr.1.stream.vendor_id.markup">[0][0][0][0]</property>
  <property name="meta.attr.major_brand.markup">qt  </property>
  <property name="meta.attr.minor_version.markup">512</property>
  <property name="meta.attr.compatible_brands.markup">qt  </property>
  <property name="meta.attr.encoder.markup">Lavf55.33.100</property>
  <property name="seekable">1</property>
  <property name="meta.media.sample_aspect_num">1</property>
  <property name="meta.media.sample_aspect_den">1</property>
  <property name="audio_index">1</property>
  <property name="video_index">0</property>
  <property name="warp_speed">0.2767</property>
  <property name="warp_resource">VID_20191102_195019.mp4</property>
  <property name="mlt_service">timewarp</property>
  <property name="set.test_audio">1</property>
  <property name="set.test_image">0</property>
  <property name="kdenlive:id">35</property>
  <property name="warp_pitch">0</property>
  <property name="meta.media.frame_rate_num">740000000</property>
  <property name="meta.media.frame_rate_den">24566641</property>
  <property name="meta.media.colorspace">601</property>
  <property name="meta.media.color_trc">2</property>
  <property name="meta.media.has_b_frames">0</property>
  <property name="meta.media.width">1920</property>
  <property name="meta.media.height">1080</property>
  <property name="meta.media.color_range">full</property>
  <property name="meta.media.top_field_first">0</property>
  <property name="meta.media.progressive">1</property>
 </producer>
 <chain id="chain76" out="00:00:47.040">
  <property name="length">1177</property>
  <property name="eof">pause</property>
  <property name="resource">20191101_214238.mp4</property>
  <property name="mlt_service">avformat-novalidate</property>
  <property name="seekable">1</property>
  <property name="audio_index">1</property>
  <property name="video_index">0</property>
  <property name="kdenlive:clipname"/>
  <property name="kdenlive:clip_type">0</property>
  <property name="kdenlive:folderid">-1</property>
  <property name="kdenlive:id">7</property>
  <property name="kdenlive:file_size">101138158</property>
  <property name="kdenlive:file_hash">b39463e5f78e98a74f2323af466f877c</property>
  <property name="kdenlive:audio_max1">162</property>
  <property name="meta.media.nb_streams">2</property>
  <property name="meta.media.0.stream.type">video</property>
  <property name="meta.media.0.stream.frame_rate">29.852</property>
  <property name="meta.media.0.stream.sample_aspect_ratio">1</property>
  <property name="meta.media.0.codec.width">1920</property>
  <property name="meta.media.0.codec.height">1080</property>
  <property name="meta.media.0.codec.rotate">0</property>
  <property name="meta.media.0.codec.pix_fmt">yuv420p</property>
  <property name="meta.media.0.codec.sample_aspect_ratio">0</property>
  <property name="meta.media.0.codec.colorspace">709</property>
  <property name="meta.media.0.codec.color_trc">1</property>
  <property name="meta.media.0.codec.name">h264</property>
  <property name="meta.media.0.codec.long_name">H.264 / AVC / MPEG-4 AVC / MPEG-4 part 10</property>
  <property name="meta.media.0.codec.bit_rate">16918719</property>
  <property name="meta.attr.0.stream.creation_time.markup">2019-11-01T10:43:27.000000Z</property>
  <property name="meta.attr.0.stream.language.markup">eng</property>
  <property name="meta.attr.0.stream.handler_name.markup">VideoHandle</property>
  <property name="meta.attr.0.stream.vendor_id.markup">[0][0][0][0]</property>
  <property name="meta.media.1.stream.type">audio</property>
  <property name="meta.media.1.codec.sample_fmt">fltp</property>
  <property name="meta.media.1.codec.sample_rate">48000</property>
  <property name="meta.media.1.codec.channels">2</property>
  <property name="meta.media.1.codec.name">aac</property>
  <property name="meta.media.1.codec.long_name">AAC (Advanced Audio Coding)</property>
  <property name="meta.media.1.codec.bit_rate">256019</property>
  <property name="meta.attr.1.stream.creation_time.markup">2019-11-01T10:43:27.000000Z</property>
  <property name="meta.attr.1.stream.language.markup">eng</property>
  <property name="meta.attr.1.stream.handler_name.markup">SoundHandle</property>
  <property name="meta.attr.1.stream.vendor_id.markup">[0][0][0][0]</property>
  <property name="meta.attr.major_brand.markup">mp42</property>
  <property name="meta.attr.minor_version.markup">0</property>
  <property name="meta.attr.compatible_brands.markup">isommp42</property>
  <property name="meta.attr.creation_time.markup">2019-11-01T10:43:27.000000Z</property>
  <property name="meta.media.sample_aspect_num">1</property>
  <property name="meta.media.sample_aspect_den">1</property>
  <property name="meta.media.frame_rate_num">126540000</property>
  <property name="meta.media.frame_rate_den">4238909</property>
  <property name="meta.media.colorspace">709</property>
  <property name="meta.media.color_trc">1</property>
  <property name="meta.media.has_b_frames">0</property>
  <property name="meta.media.width">1920</property>
  <property name="meta.media.height">1080</property>
  <property name="meta.media.color_range">mpeg</property>
  <property name="xml">was here</property>
  <property name="meta.media.variable_frame_rate">1</property>
  <property name="meta.media.top_field_first">0</property>
  <property name="meta.media.progressive">1</property>
  <property name="set.test_audio">1</property>
  <property name="set.test_image">0</property>
 </chain>
 <chain id="chain77" out="00:00:13.880">
  <property name="length">348</property>
  <property name="eof">pause</property>
  <property name="resource">VID_20191102_205118.mp4</property>
  <property name="mlt_service">avformat-novalidate</property>
  <property name="seekable">1</property>
  <property name="audio_index">1</property>
  <property name="video_index">0</property>
  <property name="kdenlive:clipname"/>
  <property name="kdenlive:clip_type">0</property>
  <property name="kdenlive:folderid">-1</property>
  <property name="kdenlive:id">36</property>
  <property name="kdenlive:file_size">44088231</property>
  <property name="kdenlive:file_hash">76db4dc164a40582568d03bdc5c3d6b9</property>
  <property name="kdenlive:audio_max1">211</property>
  <property name="meta.media.nb_streams">2</property>
  <property name="meta.media.0.stream.type">video</property>
  <property name="meta.media.0.stream.frame_rate">30.0046</property>
  <property name="meta.media.0.stream.sample_aspect_ratio">0</property>
  <property name="meta.media.0.codec.width">1920</property>
  <property name="meta.media.0.codec.height">1080</property>
  <property name="meta.media.0.codec.rotate">0</property>
  <property name="meta.media.0.codec.pix_fmt">yuvj422p</property>
  <property name="meta.media.0.codec.sample_aspect_ratio">0</property>
  <property name="meta.media.0.codec.colorspace">601</property>
  <property name="meta.media.0.codec.name">mjpeg</property>
  <property name="meta.media.0.codec.long_name">MJPEG (Motion JPEG)</property>
  <property name="meta.media.0.codec.bit_rate">25211036</property>
  <property name="meta.attr.0.stream.language.markup">eng</property>
  <property name="meta.attr.0.stream.handler_name.markup">VideoHandler</property>
  <property name="meta.attr.0.stream.vendor_id.markup">FFMP</property>
  <property name="meta.attr.0.stream.encoder.markup">mjpeg</property>
  <property name="meta.media.1.stream.type">audio</property>
  <property name="meta.media.1.codec.sample_fmt">fltp</property>
  <property name="meta.media.1.codec.sample_rate">48000</property>
  <property name="meta.media.1.codec.channels">2</property>
  <property name="meta.media.1.codec.name">aac</property>
  <property name="meta.media.1.codec.long_name">AAC (Advanced Audio Coding)</property>
  <property name="meta.media.1.codec.bit_rate">159416</property>
  <property name="meta.attr.1.stream.language.markup">eng</property>
  <property name="meta.attr.1.stream.handler_name.markup">SoundHandler</property>
  <property name="meta.attr.1.stream.vendor_id.markup">[0][0][0][0]</property>
  <property name="meta.attr.major_brand.markup">qt  </property>
  <property name="meta.attr.minor_version.markup">512</property>
  <property name="meta.attr.compatible_brands.markup">qt  </property>
  <property name="meta.attr.encoder.markup">Lavf55.33.100</property>
  <property name="meta.media.sample_aspect_num">1</property>
  <property name="meta.media.sample_aspect_den">1</property>
  <property name="meta.media.frame_rate_num">1042500000</property>
  <property name="meta.media.frame_rate_den">34744717</property>
  <property name="meta.media.colorspace">601</property>
  <property name="meta.media.color_trc">2</property>
  <property name="meta.media.has_b_frames">0</property>
  <property name="meta.media.width">1920</property>
  <property name="meta.media.height">1080</property>
  <property name="meta.media.color_range">full</property>
  <property name="xml">was here</property>
  <property name="meta.media.variable_frame_rate">1</property>
  <property name="meta.media.top_field_first">0</property>
  <property name="meta.media.progressive">1</property>
  <property name="set.test_audio">1</property>
  <property name="set.test_image">0</property>
 </chain>
 <producer id="producer20" in="00:00:00.000" out="00:01:18.640">
  <property name="length">1970</property>
  <property name="eof">pause</property>
  <property name="resource">0.100000:20191101_195436.mp4</property>
  <property name="aspect_ratio">1</property>
  <property name="meta.media.nb_streams">2</property>
  <property name="meta.media.0.stream.type">video</property>
  <property name="meta.media.0.stream.frame_rate">29.9927</property>
  <property name="meta.media.0.stream.sample_aspect_ratio">1</property>
  <property name="meta.media.0.codec.width">1920</property>
  <property name="meta.media.0.codec.height">1080</property>
  <property name="meta.media.0.codec.rotate">0</property>
  <property name="meta.media.0.codec.pix_fmt">yuv420p</property>
  <property name="meta.media.0.codec.sample_aspect_ratio">0</property>
  <property name="meta.media.0.codec.colorspace">709</property>
  <property name="meta.media.0.codec.color_trc">1</property>
  <property name="meta.media.0.codec.name">h264</property>
  <property name="meta.media.0.codec.long_name">H.264 / AVC / MPEG-4 AVC / MPEG-4 part 10</property>
  <property name="meta.media.0.codec.bit_rate">17004717</property>
  <property name="meta.attr.0.stream.creation_time.markup">2019-11-01T08:54:45.000000Z</property>
  <property name="meta.attr.0.stream.language.markup">eng</property>
  <property name="meta.attr.0.stream.handler_name.markup">VideoHandle</property>
  <property name="meta.attr.0.stream.vendor_id.markup">[0][0][0][0]</property>
  <property name="meta.media.1.stream.type">audio</property>
  <property name="meta.media.1.codec.sample_fmt">fltp</property>
  <property name="meta.media.1.codec.sample_rate">48000</property>
  <property name="meta.media.1.codec.channels">2</property>
  <property name="meta.media.1.codec.name">aac</property>
  <property name="meta.media.1.codec.long_name">AAC (Advanced Audio Coding)</property>
  <property name="meta.media.1.codec.bit_rate">256068</property>
  <property name="meta.attr.1.stream.creation_time.markup">2019-11-01T08:54:45.000000Z</property>
  <property name="meta.attr.1.stream.language.markup">eng</property>
  <property name="meta.attr.1.stream.handler_name.markup">SoundHandle</property>
  <property name="meta.attr.1.stream.vendor_id.markup">[0][0][0][0]</property>
  <property name="meta.attr.major_brand.markup">mp42</property>
  <property name="meta.attr.minor_version.markup">0</property>
  <property name="meta.attr.compatible_brands.markup">isommp42</property>
  <property name="meta.attr.creation_time.markup">2019-11-01T08:54:45.000000Z</property>
  <property name="seekable">1</property>
  <property name="meta.media.sample_aspect_num">1</property>
  <property name="meta.media.sample_aspect_den">1</property>
  <property name="audio_index">1</property>
  <property name="video_index">0</property>
  <property name="warp_speed">0.1</property>
  <property name="warp_resource">20191101_195436.mp4</property>
  <property name="mlt_service">timewarp</property>
  <property name="set.test_audio">1</property>
  <property name="set.test_image">0</property>
  <property name="kdenlive:id">6</property>
  <property name="warp_pitch">0</property>
  <property name="meta.media.frame_rate_num">21240000</property>
  <property name="meta.media.frame_rate_den">708173</property>
  <property name="meta.media.colorspace">709</property>
  <property name="meta.media.color_trc">1</property>
  <property name="meta.media.has_b_frames">0</property>
  <property name="meta.media.width">1920</property>
  <property name="meta.media.height">1080</property>
  <property name="meta.media.color_range">mpeg</property>
  <property name="meta.media.variable_frame_rate">1</property>
  <property name="meta.media.top_field_first">0</property>
  <property name="meta.media.progressive">1</property>
 </producer>
 <chain id="chain78" out="00:00:30.920">
  <property name="length">774</property>
  <property name="eof">pause</property>
  <property name="resource">VID_20191102_205743.mp4</property>
  <property name="mlt_service">avformat-novalidate</property>
  <property name="seekable">1</property>
  <property name="audio_index">1</property>
  <property name="video_index">0</property>
  <property name="kdenlive:clipname"/>
  <property name="kdenlive:clip_type">0</property>
  <property name="kdenlive:folderid">-1</property>
  <property name="kdenlive:id">37</property>
  <property name="kdenlive:file_size">87446744</property>
  <property name="kdenlive:file_hash">c05884c50037cd61db00df2ee5a3abbd</property>
  <property name="kdenlive:audio_max1">183</property>
  <property name="kdenlive:zone_in">47</property>
  <property name="kdenlive:zone_out">773</property>
  <property name="meta.media.nb_streams">2</property>
  <property name="meta.media.0.stream.type">video</property>
  <property name="meta.media.0.stream.frame_rate">29.9014</property>
  <property name="meta.media.0.stream.sample_aspect_ratio">0</property>
  <property name="meta.media.0.codec.width">1920</property>
  <property name="meta.media.0.codec.height">1080</property>
  <property name="meta.media.0.codec.rotate">0</property>
  <property name="meta.media.0.codec.pix_fmt">yuvj422p</property>
  <property name="meta.media.0.codec.sample_aspect_ratio">0</property>
  <property name="meta.media.0.codec.colorspace">601</property>
  <property name="meta.media.0.codec.name">mjpeg</property>
  <property name="meta.media.0.codec.long_name">MJPEG (Motion JPEG)</property>
  <property name="meta.media.0.codec.bit_rate">22424224</property>
  <property name="meta.attr.0.stream.language.markup">eng</property>
  <property name="meta.attr.0.stream.handler_name.markup">VideoHandler</property>
  <property name="meta.attr.0.stream.vendor_id.markup">FFMP</property>
  <property name="meta.attr.0.stream.encoder.markup">mjpeg</property>
  <property name="meta.media.1.stream.type">audio</property>
  <property name="meta.media.1.codec.sample_fmt">fltp</property>
  <property name="meta.media.1.codec.sample_rate">48000</property>
  <property name="meta.media.1.codec.channels">2</property>
  <property name="meta.media.1.codec.name">aac</property>
  <property name="meta.media.1.codec.long_name">AAC (Advanced Audio Coding)</property>
  <property name="meta.media.1.codec.bit_rate">158316</property>
  <property name="meta.attr.1.stream.language.markup">eng</property>
  <property name="meta.attr.1.stream.handler_name.markup">SoundHandler</property>
  <property name="meta.attr.1.stream.vendor_id.markup">[0][0][0][0]</property>
  <property name="meta.attr.major_brand.markup">qt  </property>
  <property name="meta.attr.minor_version.markup">512</property>
  <property name="meta.attr.compatible_brands.markup">qt  </property>
  <property name="meta.attr.encoder.markup">Lavf55.33.100</property>
  <property name="meta.media.sample_aspect_num">1</property>
  <property name="meta.media.sample_aspect_den">1</property>
  <property name="meta.media.frame_rate_num">1852000000</property>
  <property name="meta.media.frame_rate_den">61936977</property>
  <property name="meta.media.colorspace">601</property>
  <property name="meta.media.color_trc">2</property>
  <property name="meta.media.has_b_frames">0</property>
  <property name="meta.media.width">1920</property>
  <property name="meta.media.height">1080</property>
  <property name="meta.media.color_range">full</property>
  <property name="xml">was here</property>
  <property name="meta.media.variable_frame_rate">1</property>
  <property name="meta.media.top_field_first">0</property>
  <property name="meta.media.progressive">1</property>
  <property name="set.test_audio">1</property>
  <property name="set.test_image">0</property>
 </chain>
 <chain id="chain79" out="00:00:45.400">
  <property name="length">1136</property>
  <property name="eof">pause</property>
  <property name="resource">VID_20191102_210718.mp4</property>
  <property name="mlt_service">avformat-novalidate</property>
  <property name="seekable">1</property>
  <property name="audio_index">1</property>
  <property name="video_index">0</property>
  <property name="kdenlive:clipname"/>
  <property name="kdenlive:clip_type">0</property>
  <property name="kdenlive:folderid">-1</property>
  <property name="kdenlive:id">39</property>
  <property name="kdenlive:file_size">123816168</property>
  <property name="kdenlive:file_hash">f29e5454e70186c3ca281eb66b1d65b3</property>
  <property name="kdenlive:audio_max1">221</property>
  <property name="kdenlive:zone_in">0</property>
  <property name="kdenlive:zone_out">276</property>
  <property name="meta.media.nb_streams">2</property>
  <property name="meta.media.0.stream.type">video</property>
  <property name="meta.media.0.stream.frame_rate">30.0143</property>
  <property name="meta.media.0.stream.sample_aspect_ratio">0</property>
  <property name="meta.media.0.codec.width">1920</property>
  <property name="meta.media.0.codec.height">1080</property>
  <property name="meta.media.0.codec.rotate">0</property>
  <property name="meta.media.0.codec.pix_fmt">yuvj422p</property>
  <property name="meta.media.0.codec.sample_aspect_ratio">0</property>
  <property name="meta.media.0.codec.colorspace">601</property>
  <property name="meta.media.0.codec.name">mjpeg</property>
  <property name="meta.media.0.codec.long_name">MJPEG (Motion JPEG)</property>
  <property name="meta.media.0.codec.bit_rate">21646816</property>
  <property name="meta.attr.0.stream.language.markup">eng</property>
  <property name="meta.attr.0.stream.handler_name.markup">VideoHandler</property>
  <property name="meta.attr.0.stream.vendor_id.markup">FFMP</property>
  <property name="meta.attr.0.stream.encoder.markup">mjpeg</property>
  <property name="meta.media.1.stream.type">audio</property>
  <property name="meta.media.1.codec.sample_fmt">fltp</property>
  <property name="meta.media.1.codec.sample_rate">48000</property>
  <property name="meta.media.1.codec.channels">2</property>
  <property name="meta.media.1.codec.name">aac</property>
  <property name="meta.media.1.codec.long_name">AAC (Advanced Audio Coding)</property>
  <property name="meta.media.1.codec.bit_rate">158466</property>
  <property name="meta.attr.1.stream.language.markup">eng</property>
  <property name="meta.attr.1.stream.handler_name.markup">SoundHandler</property>
  <property name="meta.attr.1.stream.vendor_id.markup">[0][0][0][0]</property>
  <property name="meta.attr.major_brand.markup">qt  </property>
  <property name="meta.attr.minor_version.markup">512</property>
  <property name="meta.attr.compatible_brands.markup">qt  </property>
  <property name="meta.attr.encoder.markup">Lavf55.33.100</property>
  <property name="meta.media.sample_aspect_num">1</property>
  <property name="meta.media.sample_aspect_den">1</property>
  <property name="meta.media.frame_rate_num">2061812418</property>
  <property name="meta.media.frame_rate_den">68694413</property>
  <property name="meta.media.colorspace">601</property>
  <property name="meta.media.color_trc">2</property>
  <property name="meta.media.has_b_frames">0</property>
  <property name="meta.media.width">1920</property>
  <property name="meta.media.height">1080</property>
  <property name="meta.media.color_range">full</property>
  <property name="xml">was here</property>
  <property name="meta.media.variable_frame_rate">1</property>
  <property name="meta.media.top_field_first">0</property>
  <property name="meta.media.progressive">1</property>
  <property name="set.test_audio">1</property>
  <property name="set.test_image">0</property>
 </chain>
 <chain id="chain80" out="00:00:18.120">
  <property name="length">454</property>
  <property name="eof">pause</property>
  <property name="resource">VID_20191102_205935.mp4</property>
  <property name="mlt_service">avformat-novalidate</property>
  <property name="seekable">1</property>
  <property name="audio_index">1</property>
  <property name="video_index">0</property>
  <property name="kdenlive:clipname"/>
  <property name="kdenlive:clip_type">0</property>
  <property name="kdenlive:folderid">-1</property>
  <property name="kdenlive:id">38</property>
  <property name="kdenlive:file_size">53370415</property>
  <property name="kdenlive:file_hash">80731cd810cb4ebfcf0a336ebc7c5e52</property>
  <property name="kdenlive:audio_max1">190</property>
  <property name="meta.media.nb_streams">2</property>
  <property name="meta.media.0.stream.type">video</property>
  <property name="meta.media.0.stream.frame_rate">29.9568</property>
  <property name="meta.media.0.stream.sample_aspect_ratio">0</property>
  <property name="meta.media.0.codec.width">1920</property>
  <property name="meta.media.0.codec.height">1080</property>
  <property name="meta.media.0.codec.rotate">0</property>
  <property name="meta.media.0.codec.pix_fmt">yuvj422p</property>
  <property name="meta.media.0.codec.sample_aspect_ratio">0</property>
  <property name="meta.media.0.codec.colorspace">601</property>
  <property name="meta.media.0.codec.name">mjpeg</property>
  <property name="meta.media.0.codec.long_name">MJPEG (Motion JPEG)</property>
  <property name="meta.media.0.codec.bit_rate">23341594</property>
  <property name="meta.attr.0.stream.language.markup">eng</property>
  <property name="meta.attr.0.stream.handler_name.markup">VideoHandler</property>
  <property name="meta.attr.0.stream.vendor_id.markup">FFMP</property>
  <property name="meta.attr.0.stream.encoder.markup">mjpeg</property>
  <property name="meta.media.1.stream.type">audio</property>
  <property name="meta.media.1.codec.sample_fmt">fltp</property>
  <property name="meta.media.1.codec.sample_rate">48000</property>
  <property name="meta.media.1.codec.channels">2</property>
  <property name="meta.media.1.codec.name">aac</property>
  <property name="meta.media.1.codec.long_name">AAC (Advanced Audio Coding)</property>
  <property name="meta.media.1.codec.bit_rate">162687</property>
  <property name="meta.attr.1.stream.language.markup">eng</property>
  <property name="meta.attr.1.stream.handler_name.markup">SoundHandler</property>
  <property name="meta.attr.1.stream.vendor_id.markup">[0][0][0][0]</property>
  <property name="meta.attr.major_brand.markup">qt  </property>
  <property name="meta.attr.minor_version.markup">512</property>
  <property name="meta.attr.compatible_brands.markup">qt  </property>
  <property name="meta.attr.encoder.markup">Lavf55.33.100</property>
  <property name="meta.media.sample_aspect_num">1</property>
  <property name="meta.media.sample_aspect_den">1</property>
  <property name="meta.media.frame_rate_num">680000000</property>
  <property name="meta.media.frame_rate_den">22699373</property>
  <property name="meta.media.colorspace">601</property>
  <property name="meta.media.color_trc">2</property>
  <property name="meta.media.has_b_frames">0</property>
  <property name="meta.media.width">1920</property>
  <property name="meta.media.height">1080</property>
  <property name="meta.media.color_range">full</property>
  <property name="xml">was here</property>
  <property name="meta.media.variable_frame_rate">1</property>
  <property name="meta.media.top_field_first">0</property>
  <property name="meta.media.progressive">1</property>
  <property name="set.test_audio">1</property>
  <property name="set.test_image">0</property>
 </chain>
 <chain id="chain81" out="00:00:09.360">
  <property name="length">235</property>
  <property name="eof">pause</property>
  <property name="resource">VID_20191102_212448.mp4</property>
  <property name="mlt_service">avformat-novalidate</property>
  <property name="seekable">1</property>
  <property name="audio_index">1</property>
  <property name="video_index">0</property>
  <property name="kdenlive:clipname"/>
  <property name="kdenlive:clip_type">0</property>
  <property name="kdenlive:folderid">-1</property>
  <property name="kdenlive:id">40</property>
  <property name="kdenlive:file_size">24871448</property>
  <property name="kdenlive:file_hash">98d2bd72918388b8e7feb43f58e1949c</property>
  <property name="kdenlive:audio_max1">254</property>
  <property name="meta.media.nb_streams">2</property>
  <property name="meta.media.0.stream.type">video</property>
  <property name="meta.media.0.stream.frame_rate">30.0779</property>
  <property name="meta.media.0.stream.sample_aspect_ratio">0</property>
  <property name="meta.media.0.codec.width">1920</property>
  <property name="meta.media.0.codec.height">1080</property>
  <property name="meta.media.0.codec.rotate">0</property>
  <property name="meta.media.0.codec.pix_fmt">yuvj422p</property>
  <property name="meta.media.0.codec.sample_aspect_ratio">0</property>
  <property name="meta.media.0.codec.colorspace">601</property>
  <property name="meta.media.0.codec.name">mjpeg</property>
  <property name="meta.media.0.codec.long_name">MJPEG (Motion JPEG)</property>
  <property name="meta.media.0.codec.bit_rate">21067169</property>
  <property name="meta.attr.0.stream.language.markup">eng</property>
  <property name="meta.attr.0.stream.handler_name.markup">VideoHandler</property>
  <property name="meta.attr.0.stream.vendor_id.markup">FFMP</property>
  <property name="meta.attr.0.stream.encoder.markup">mjpeg</property>
  <property name="meta.media.1.stream.type">audio</property>
  <property name="meta.media.1.codec.sample_fmt">fltp</property>
  <property name="meta.media.1.codec.sample_rate">48000</property>
  <property name="meta.media.1.codec.channels">2</property>
  <property name="meta.media.1.codec.name">aac</property>
  <property name="meta.media.1.codec.long_name">AAC (Advanced Audio Coding)</property>
  <property name="meta.media.1.codec.bit_rate">146659</property>
  <property name="meta.attr.1.stream.language.markup">eng</property>
  <property name="meta.attr.1.stream.handler_name.markup">SoundHandler</property>
  <property name="meta.attr.1.stream.vendor_id.markup">[0][0][0][0]</property>
  <property name="meta.attr.major_brand.markup">qt  </property>
  <property name="meta.attr.minor_version.markup">512</property>
  <property name="meta.attr.compatible_brands.markup">qt  </property>
  <property name="meta.attr.encoder.markup">Lavf55.33.100</property>
  <property name="meta.media.sample_aspect_num">1</property>
  <property name="meta.media.sample_aspect_den">1</property>
  <property name="meta.media.frame_rate_num">2050982995</property>
  <property name="meta.media.frame_rate_den">68189076</property>
  <property name="meta.media.colorspace">601</property>
  <property name="meta.media.color_trc">2</property>
  <property name="meta.media.has_b_frames">0</property>
  <property name="meta.media.width">1920</property>
  <property name="meta.media.height">1080</property>
  <property name="meta.media.color_range">full</property>
  <property name="xml">was here</property>
  <property name="meta.media.variable_frame_rate">1</property>
  <property name="meta.media.top_field_first">0</property>
  <property name="meta.media.progressive">1</property>
  <property name="set.test_audio">1</property>
  <property name="set.test_image">0</property>
 </chain>
 <chain id="chain82" out="00:00:05.520">
  <property name="length">139</property>
  <property name="eof">pause</property>
  <property name="resource">20191102_220640.mp4</property>
  <property name="mlt_service">avformat-novalidate</property>
  <property name="seekable">1</property>
  <property name="audio_index">1</property>
  <property name="video_index">0</property>
  <property name="kdenlive:clipname"/>
  <property name="kdenlive:clip_type">0</property>
  <property name="kdenlive:folderid">-1</property>
  <property name="kdenlive:id">8</property>
  <property name="kdenlive:file_size">12057411</property>
  <property name="kdenlive:file_hash">3deb4730077134a88446b65d7eaf23e4</property>
  <property name="kdenlive:audio_max1">155</property>
  <property name="meta.media.nb_streams">2</property>
  <property name="meta.media.0.stream.type">video</property>
  <property name="meta.media.0.stream.frame_rate">30.0266</property>
  <property name="meta.media.0.stream.sample_aspect_ratio">1</property>
  <property name="meta.media.0.codec.width">1920</property>
  <property name="meta.media.0.codec.height">1080</property>
  <property name="meta.media.0.codec.rotate">0</property>
  <property name="meta.media.0.codec.pix_fmt">yuv420p</property>
  <property name="meta.media.0.codec.sample_aspect_ratio">0</property>
  <property name="meta.media.0.codec.colorspace">709</property>
  <property name="meta.media.0.codec.color_trc">1</property>
  <property name="meta.media.0.codec.name">h264</property>
  <property name="meta.media.0.codec.long_name">H.264 / AVC / MPEG-4 AVC / MPEG-4 part 10</property>
  <property name="meta.media.0.codec.bit_rate">17082104</property>
  <property name="meta.attr.0.stream.creation_time.markup">2019-11-02T11:06:47.000000Z</property>
  <property name="meta.attr.0.stream.language.markup">eng</property>
  <property name="meta.attr.0.stream.handler_name.markup">VideoHandle</property>
  <property name="meta.attr.0.stream.vendor_id.markup">[0][0][0][0]</property>
  <property name="meta.media.1.stream.type">audio</property>
  <property name="meta.media.1.codec.sample_fmt">fltp</property>
  <property name="meta.media.1.codec.sample_rate">48000</property>
  <property name="meta.media.1.codec.channels">2</property>
  <property name="meta.media.1.codec.name">aac</property>
  <property name="meta.media.1.codec.long_name">AAC (Advanced Audio Coding)</property>
  <property name="meta.media.1.codec.bit_rate">256193</property>
  <property name="meta.attr.1.stream.creation_time.markup">2019-11-02T11:06:47.000000Z</property>
  <property name="meta.attr.1.stream.language.markup">eng</property>
  <property name="meta.attr.1.stream.handler_name.markup">SoundHandle</property>
  <property name="meta.attr.1.stream.vendor_id.markup">[0][0][0][0]</property>
  <property name="meta.attr.major_brand.markup">mp42</property>
  <property name="meta.attr.minor_version.markup">0</property>
  <property name="meta.attr.compatible_brands.markup">isommp42</property>
  <property name="meta.attr.creation_time.markup">2019-11-02T11:06:47.000000Z</property>
  <property name="meta.media.sample_aspect_num">1</property>
  <property name="meta.media.sample_aspect_den">1</property>
  <property name="meta.media.frame_rate_num">1252500</property>
  <property name="meta.media.frame_rate_den">41713</property>
  <property name="meta.media.colorspace">709</property>
  <property name="meta.media.color_trc">1</property>
  <property name="meta.media.has_b_frames">0</property>
  <property name="meta.media.width">1920</property>
  <property name="meta.media.height">1080</property>
  <property name="meta.media.color_range">mpeg</property>
  <property name="xml">was here</property>
  <property name="meta.media.variable_frame_rate">1</property>
  <property name="meta.media.top_field_first">0</property>
  <property name="meta.media.progressive">1</property>
  <property name="set.test_audio">1</property>
  <property name="set.test_image">0</property>
 </chain>
 <chain id="chain83" out="00:00:20.960">
  <property name="length">525</property>
  <property name="eof">pause</property>
  <property name="resource">20191102_220802.mp4</property>
  <property name="mlt_service">avformat-novalidate</property>
  <property name="seekable">1</property>
  <property name="audio_index">1</property>
  <property name="video_index">0</property>
  <property name="kdenlive:clipname"/>
  <property name="kdenlive:clip_type">0</property>
  <property name="kdenlive:folderid">-1</property>
  <property name="kdenlive:id">9</property>
  <property name="kdenlive:file_size">45303850</property>
  <property name="kdenlive:file_hash">8e10cd253cabf9fc3076087c91d05783</property>
  <property name="kdenlive:audio_max1">159</property>
  <property name="kdenlive:zone_in">68</property>
  <property name="kdenlive:zone_out">524</property>
  <property name="meta.media.nb_streams">2</property>
  <property name="meta.media.0.stream.type">video</property>
  <property name="meta.media.0.stream.frame_rate">30.0286</property>
  <property name="meta.media.0.stream.sample_aspect_ratio">1</property>
  <property name="meta.media.0.codec.width">1920</property>
  <property name="meta.media.0.codec.height">1080</property>
  <property name="meta.media.0.codec.rotate">0</property>
  <property name="meta.media.0.codec.pix_fmt">yuv420p</property>
  <property name="meta.media.0.codec.sample_aspect_ratio">0</property>
  <property name="meta.media.0.codec.colorspace">709</property>
  <property name="meta.media.0.codec.color_trc">1</property>
  <property name="meta.media.0.codec.name">h264</property>
  <property name="meta.media.0.codec.long_name">H.264 / AVC / MPEG-4 AVC / MPEG-4 part 10</property>
  <property name="meta.media.0.codec.bit_rate">17014781</property>
  <property name="meta.attr.0.stream.creation_time.markup">2019-11-02T11:08:24.000000Z</property>
  <property name="meta.attr.0.stream.language.markup">eng</property>
  <property name="meta.attr.0.stream.handler_name.markup">VideoHandle</property>
  <property name="meta.attr.0.stream.vendor_id.markup">[0][0][0][0]</property>
  <property name="meta.media.1.stream.type">audio</property>
  <property name="meta.media.1.codec.sample_fmt">fltp</property>
  <property name="meta.media.1.codec.sample_rate">48000</property>
  <property name="meta.media.1.codec.channels">2</property>
  <property name="meta.media.1.codec.name">aac</property>
  <property name="meta.media.1.codec.long_name">AAC (Advanced Audio Coding)</property>
  <property name="meta.media.1.codec.bit_rate">255967</property>
  <property name="meta.attr.1.stream.creation_time.markup">2019-11-02T11:08:24.000000Z</property>
  <property name="meta.attr.1.stream.language.markup">eng</property>
  <property name="meta.attr.1.stream.handler_name.markup">SoundHandle</property>
  <property name="meta.attr.1.stream.vendor_id.markup">[0][0][0][0]</property>
  <property name="meta.attr.major_brand.markup">mp42</property>
  <property name="meta.attr.minor_version.markup">0</property>
  <property name="meta.attr.compatible_brands.markup">isommp42</property>
  <property name="meta.attr.creation_time.markup">2019-11-02T11:08:24.000000Z</property>
  <property name="meta.media.sample_aspect_num">1</property>
  <property name="meta.media.sample_aspect_den">1</property>
  <property name="meta.media.frame_rate_num">28350000</property>
  <property name="meta.media.frame_rate_den">944101</property>
  <property name="meta.media.colorspace">709</property>
  <property name="meta.media.color_trc">1</property>
  <property name="meta.media.has_b_frames">0</property>
  <property name="meta.media.width">1920</property>
  <property name="meta.media.height">1080</property>
  <property name="meta.media.color_range">mpeg</property>
  <property name="xml">was here</property>
  <property name="meta.media.variable_frame_rate">1</property>
  <property name="meta.media.top_field_first">0</property>
  <property name="meta.media.progressive">1</property>
  <property name="set.test_audio">1</property>
  <property name="set.test_image">0</property>
 </chain>
 <chain id="chain84" out="00:00:36.040">
  <property name="length">902</property>
  <property name="eof">pause</property>
  <property name="resource">20191102_220836.mp4</property>
  <property name="mlt_service">avformat-novalidate</property>
  <property name="seekable">1</property>
  <property name="audio_index">1</property>
  <property name="video_index">0</property>
  <property name="kdenlive:clipname"/>
  <property name="kdenlive:clip_type">0</property>
  <property name="kdenlive:folderid">-1</property>
  <property name="kdenlive:id">10</property>
  <property name="kdenlive:file_size">77952787</property>
  <property name="kdenlive:file_hash">9d8d78de9888bd57c6f5be654a63e21d</property>
  <property name="kdenlive:audio_max1">174</property>
  <property name="meta.media.nb_streams">2</property>
  <property name="meta.media.0.stream.type">video</property>
  <property name="meta.media.0.stream.frame_rate">30.0203</property>
  <property name="meta.media.0.stream.sample_aspect_ratio">1</property>
  <property name="meta.media.0.codec.width">1920</property>
  <property name="meta.media.0.codec.height">1080</property>
  <property name="meta.media.0.codec.rotate">0</property>
  <property name="meta.media.0.codec.pix_fmt">yuv420p</property>
  <property name="meta.media.0.codec.sample_aspect_ratio">0</property>
  <property name="meta.media.0.codec.colorspace">709</property>
  <property name="meta.media.0.codec.color_trc">1</property>
  <property name="meta.media.0.codec.name">h264</property>
  <property name="meta.media.0.codec.long_name">H.264 / AVC / MPEG-4 AVC / MPEG-4 part 10</property>
  <property name="meta.media.0.codec.bit_rate">17026358</property>
  <property name="meta.attr.0.stream.creation_time.markup">2019-11-02T11:09:13.000000Z</property>
  <property name="meta.attr.0.stream.language.markup">eng</property>
  <property name="meta.attr.0.stream.handler_name.markup">VideoHandle</property>
  <property name="meta.attr.0.stream.vendor_id.markup">[0][0][0][0]</property>
  <property name="meta.media.1.stream.type">audio</property>
  <property name="meta.media.1.codec.sample_fmt">fltp</property>
  <property name="meta.media.1.codec.sample_rate">48000</property>
  <property name="meta.media.1.codec.channels">2</property>
  <property name="meta.media.1.codec.name">aac</property>
  <property name="meta.media.1.codec.long_name">AAC (Advanced Audio Coding)</property>
  <property name="meta.media.1.codec.bit_rate">256032</property>
  <property name="meta.attr.1.stream.creation_time.markup">2019-11-02T11:09:13.000000Z</property>
  <property name="meta.attr.1.stream.language.markup">eng</property>
  <property name="meta.attr.1.stream.handler_name.markup">SoundHandle</property>
  <property name="meta.attr.1.stream.vendor_id.markup">[0][0][0][0]</property>
  <property name="meta.attr.major_brand.markup">mp42</property>
  <property name="meta.attr.minor_version.markup">0</property>
  <property name="meta.attr.compatible_brands.markup">isommp42</property>
  <property name="meta.attr.creation_time.markup">2019-11-02T11:09:13.000000Z</property>
  <property name="meta.media.sample_aspect_num">1</property>
  <property name="meta.media.sample_aspect_den">1</property>
  <property name="meta.media.frame_rate_num">243675</property>
  <property name="meta.media.frame_rate_den">8117</property>
  <property name="meta.media.colorspace">709</property>
  <property name="meta.media.color_trc">1</property>
  <property name="meta.media.has_b_frames">0</property>
  <property name="meta.media.width">1920</property>
  <property name="meta.media.height">1080</property>
  <property name="meta.media.color_range">mpeg</property>
  <property name="xml">was here</property>
  <property name="meta.media.variable_frame_rate">1</property>
  <property name="meta.media.top_field_first">0</property>
  <property name="meta.media.progressive">1</property>
  <property name="set.test_audio">1</property>
  <property name="set.test_image">0</property>
 </chain>
 <playlist id="playlist6">
  <entry producer="chain68" in="00:00:00.000" out="00:00:04.960">
   <property name="kdenlive:id">55</property>
  </entry>
  <entry producer="producer1" in="00:00:00.000" out="00:00:04.960">
   <property name="kdenlive:id">42</property>
  </entry>
  <blank length="00:00:00.600"/>
  <entry producer="producer2" in="00:00:00.000" out="00:00:01.360">
   <property name="kdenlive:id">44</property>
   <filter id="filter25" out="00:00:00.280">
    <property name="start">1</property>
    <property name="level">1</property>
    <property name="mlt_service">brightness</property>
    <property name="kdenlive_id">fade_from_black</property>
    <property name="alpha">00:00:00.000=0;00:00:00.280=1</property>
    <property name="kdenlive:collapsed">0</property>
   </filter>
  </entry>
  <entry producer="producer3" in="00:00:00.000" out="00:00:00.960">
   <property name="kdenlive:id">45</property>
  </entry>
  <entry producer="producer7" in="00:00:00.000" out="00:00:00.960">
   <property name="kdenlive:id">46</property>
  </entry>
  <entry producer="producer8" in="00:00:00.000" out="00:00:00.960">
   <property name="kdenlive:id">47</property>
  </entry>
  <entry producer="producer13" in="00:00:00.000" out="00:00:00.600">
   <property name="kdenlive:id">25</property>
   <filter id="filter26">
    <property name="version">0.1</property>
    <property name="mlt_service">frei0r.glitch0r</property>
    <property name="kdenlive_id">frei0r.glitch0r</property>
    <property name="0">00:00:00.000=0.237</property>
    <property name="1">00:00:00.000=0.793</property>
    <property name="2">00:00:00.000=0.499305</property>
    <property name="3">00:00:00.000=0</property>
    <property name="kdenlive:collapsed">0</property>
   </filter>
   <filter id="filter27">
    <property name="foreground">0</property>
    <property name="threshold">185</property>
    <property name="mlt_service">BurningTV</property>
    <property name="kdenlive_id">BurningTV</property>
    <property name="kdenlive:collapsed">0</property>
   </filter>
   <filter id="filter28">
    <property name="version">0.2</property>
    <property name="mlt_service">frei0r.vignette</property>
    <property name="kdenlive_id">frei0r.vignette</property>
    <property name="aspect">00:00:00.000=0.5</property>
    <property name="clearCenter">00:00:00.000=0</property>
    <property name="soft">00:00:00.000=0.6</property>
    <property name="kdenlive:collapsed">0</property>
   </filter>
   <filter id="filter29">
    <property name="mlt_service">avfilter.scroll</property>
    <property name="kdenlive_id">avfilter.scroll</property>
    <property name="av.h">00:00:00.000=0;00:00:00.320=0;00:00:00.600=0</property>
    <property name="av.v">00:00:00.000=0;00:00:00.320=0.347;00:00:00.600=0</property>
    <property name="av.hpos">00:00:00.000=0;00:00:00.320=0;00:00:00.600=0</property>
    <property name="av.vpos">00:00:00.000=0;00:00:00.320=0;00:00:00.600=0</property>
    <property name="kdenlive:collapsed">0</property>
   </filter>
  </entry>
  <entry producer="producer9" in="00:00:00.000" out="00:00:00.920">
   <property name="kdenlive:id">48</property>
   <filter id="filter30" in="00:00:00.240" out="00:00:00.920">
    <property name="start">1</property>
    <property name="level">00:00:00.000=1;00:00:00.680=0</property>
    <property name="mlt_service">brightness</property>
    <property name="kdenlive_id">fade_to_black</property>
    <property name="alpha">1</property>
    <property name="kdenlive:collapsed">0</property>
   </filter>
  </entry>
  <entry producer="producer10" in="00:00:00.000" out="00:00:04.960">
   <property name="kdenlive:id">49</property>
  </entry>
  <entry producer="producer11" in="00:00:00.000" out="00:00:07.360">
   <property name="kdenlive:id">50</property>
  </entry>
  <blank length="00:00:01.040"/>
  <entry producer="producer13" in="00:00:00.000" out="00:00:00.080">
   <property name="kdenlive:id">25</property>
   <filter id="filter31">
    <property name="version">0.1</property>
    <property name="mlt_service">frei0r.glitch0r</property>
    <property name="kdenlive_id">frei0r.glitch0r</property>
    <property name="0">00:00:00.000=0.447</property>
    <property name="1">00:00:00.000=0.679</property>
    <property name="2">00:00:00.000=0.694</property>
    <property name="3">00:00:00.000=0</property>
    <property name="kdenlive:collapsed">0</property>
   </filter>
   <filter id="filter32">
    <property name="foreground">0</property>
    <property name="threshold">109</property>
    <property name="mlt_service">BurningTV</property>
    <property name="kdenlive_id">BurningTV</property>
    <property name="kdenlive:collapsed">0</property>
   </filter>
   <filter id="filter33">
    <property name="version">0.2</property>
    <property name="mlt_service">frei0r.vignette</property>
    <property name="kdenlive_id">frei0r.vignette</property>
    <property name="aspect">00:00:00.000=0.5</property>
    <property name="clearCenter">00:00:00.000=0</property>
    <property name="soft">00:00:00.000=0.6</property>
    <property name="kdenlive:collapsed">1</property>
   </filter>
   <filter id="filter34">
    <property name="mlt_service">avfilter.scroll</property>
    <property name="kdenlive_id">avfilter.scroll</property>
    <property name="av.h">00:00:00.000=0</property>
    <property name="av.v">00:00:00.000=0.432343</property>
    <property name="av.hpos">0=0</property>
    <property name="av.vpos">0=0</property>
    <property name="kdenlive:collapsed">1</property>
   </filter>
  </entry>
  <blank length="00:00:00.040"/>
  <entry producer="producer13" in="00:00:00.000" out="00:00:00.000">
   <property name="kdenlive:id">25</property>
   <filter id="filter35">
    <property name="version">0.1</property>
    <property name="mlt_service">frei0r.glitch0r</property>
    <property name="kdenlive_id">frei0r.glitch0r</property>
    <property name="0">00:00:00.000=0.447</property>
    <property name="1">00:00:00.000=0.679</property>
    <property name="2">00:00:00.000=0.694</property>
    <property name="3">00:00:00.000=0</property>
    <property name="kdenlive:collapsed">0</property>
   </filter>
   <filter id="filter36">
    <property name="foreground">0</property>
    <property name="threshold">109</property>
    <property name="mlt_service">BurningTV</property>
    <property name="kdenlive_id">BurningTV</property>
    <property name="kdenlive:collapsed">0</property>
   </filter>
   <filter id="filter37">
    <property name="version">0.2</property>
    <property name="mlt_service">frei0r.vignette</property>
    <property name="kdenlive_id">frei0r.vignette</property>
    <property name="aspect">00:00:00.000=0.5</property>
    <property name="clearCenter">00:00:00.000=0</property>
    <property name="soft">00:00:00.000=0.6</property>
    <property name="kdenlive:collapsed">0</property>
   </filter>
   <filter id="filter38">
    <property name="mlt_service">avfilter.scroll</property>
    <property name="kdenlive_id">avfilter.scroll</property>
    <property name="av.h">00:00:00.000=0</property>
    <property name="av.v">00:00:00.000=0.432343</property>
    <property name="av.hpos">0=0</property>
    <property name="av.vpos">0=0</property>
    <property name="kdenlive:collapsed">0</property>
   </filter>
  </entry>
  <blank length="00:00:00.040"/>
  <entry producer="producer13" in="00:00:00.000" out="00:00:00.040">
   <property name="kdenlive:id">25</property>
   <filter id="filter39">
    <property name="version">0.1</property>
    <property name="mlt_service">frei0r.glitch0r</property>
    <property name="kdenlive_id">frei0r.glitch0r</property>
    <property name="0">00:00:00.000=0.447</property>
    <property name="1">00:00:00.000=0.679</property>
    <property name="2">00:00:00.000=0.694</property>
    <property name="3">00:00:00.000=0</property>
   </filter>
   <filter id="filter40">
    <property name="foreground">0</property>
    <property name="threshold">109</property>
    <property name="mlt_service">BurningTV</property>
    <property name="kdenlive_id">BurningTV</property>
   </filter>
   <filter id="filter41">
    <property name="version">0.2</property>
    <property name="mlt_service">frei0r.vignette</property>
    <property name="kdenlive_id">frei0r.vignette</property>
    <property name="aspect">00:00:00.000=0.5</property>
    <property name="clearCenter">00:00:00.000=0</property>
    <property name="soft">00:00:00.000=0.6</property>
   </filter>
   <filter id="filter42">
    <property name="mlt_service">avfilter.scroll</property>
    <property name="kdenlive_id">avfilter.scroll</property>
    <property name="av.h">00:00:00.000=0</property>
    <property name="av.v">00:00:00.000=0.432343</property>
    <property name="av.hpos">0=0</property>
    <property name="av.vpos">0=0</property>
   </filter>
  </entry>
  <blank length="00:00:00.120"/>
  <entry producer="producer13" in="00:00:00.000" out="00:00:00.320">
   <property name="kdenlive:id">25</property>
   <filter id="filter43">
    <property name="version">0.1</property>
    <property name="mlt_service">frei0r.glitch0r</property>
    <property name="kdenlive_id">frei0r.glitch0r</property>
    <property name="0">00:00:00.000=0.447</property>
    <property name="1">00:00:00.000=0.679</property>
    <property name="2">00:00:00.000=0.694</property>
    <property name="3">00:00:00.000=0</property>
   </filter>
   <filter id="filter44">
    <property name="foreground">0</property>
    <property name="threshold">109</property>
    <property name="mlt_service">BurningTV</property>
    <property name="kdenlive_id">BurningTV</property>
   </filter>
   <filter id="filter45">
    <property name="version">0.2</property>
    <property name="mlt_service">frei0r.vignette</property>
    <property name="kdenlive_id">frei0r.vignette</property>
    <property name="aspect">00:00:00.000=0.5</property>
    <property name="clearCenter">00:00:00.000=0</property>
    <property name="soft">00:00:00.000=0.6</property>
   </filter>
   <filter id="filter46">
    <property name="mlt_service">avfilter.scroll</property>
    <property name="kdenlive_id">avfilter.scroll</property>
    <property name="av.h">00:00:00.000=0</property>
    <property name="av.v">00:00:00.000=0.432343</property>
    <property name="av.hpos">0=0</property>
    <property name="av.vpos">0=0</property>
   </filter>
  </entry>
  <blank length="00:00:00.040"/>
  <entry producer="producer13" in="00:00:00.000" out="00:00:00.080">
   <property name="kdenlive:id">25</property>
   <filter id="filter47">
    <property name="version">0.1</property>
    <property name="mlt_service">frei0r.glitch0r</property>
    <property name="kdenlive_id">frei0r.glitch0r</property>
    <property name="0">00:00:00.000=0.447</property>
    <property name="1">00:00:00.000=0.679</property>
    <property name="2">00:00:00.000=0.694</property>
    <property name="3">00:00:00.000=0</property>
   </filter>
   <filter id="filter48">
    <property name="foreground">0</property>
    <property name="threshold">109</property>
    <property name="mlt_service">BurningTV</property>
    <property name="kdenlive_id">BurningTV</property>
   </filter>
   <filter id="filter49">
    <property name="version">0.2</property>
    <property name="mlt_service">frei0r.vignette</property>
    <property name="kdenlive_id">frei0r.vignette</property>
    <property name="aspect">00:00:00.000=0.5</property>
    <property name="clearCenter">00:00:00.000=0</property>
    <property name="soft">00:00:00.000=0.6</property>
   </filter>
   <filter id="filter50">
    <property name="mlt_service">avfilter.scroll</property>
    <property name="kdenlive_id">avfilter.scroll</property>
    <property name="av.h">00:00:00.000=0</property>
    <property name="av.v">00:00:00.000=0.432343</property>
    <property name="av.hpos">0=0</property>
    <property name="av.vpos">0=0</property>
   </filter>
  </entry>
  <blank length="00:00:00.040"/>
  <entry producer="producer13" in="00:00:00.000" out="00:00:00.040">
   <property name="kdenlive:id">25</property>
   <filter id="filter51">
    <property name="version">0.1</property>
    <property name="mlt_service">frei0r.glitch0r</property>
    <property name="kdenlive_id">frei0r.glitch0r</property>
    <property name="0">00:00:00.000=0.447</property>
    <property name="1">00:00:00.000=0.679</property>
    <property name="2">00:00:00.000=0.694</property>
    <property name="3">00:00:00.000=0</property>
   </filter>
   <filter id="filter52">
    <property name="foreground">0</property>
    <property name="threshold">109</property>
    <property name="mlt_service">BurningTV</property>
    <property name="kdenlive_id">BurningTV</property>
   </filter>
   <filter id="filter53">
    <property name="version">0.2</property>
    <property name="mlt_service">frei0r.vignette</property>
    <property name="kdenlive_id">frei0r.vignette</property>
    <property name="aspect">00:00:00.000=0.5</property>
    <property name="clearCenter">00:00:00.000=0</property>
    <property name="soft">00:00:00.000=0.6</property>
   </filter>
   <filter id="filter54">
    <property name="mlt_service">avfilter.scroll</property>
    <property name="kdenlive_id">avfilter.scroll</property>
    <property name="av.h">00:00:00.000=0</property>
    <property name="av.v">00:00:00.000=0.432343</property>
    <property name="av.hpos">0=0</property>
    <property name="av.vpos">0=0</property>
   </filter>
  </entry>
  <blank length="00:00:00.040"/>
  <entry producer="producer13" in="00:00:00.000" out="00:00:00.120">
   <property name="kdenlive:id">25</property>
   <filter id="filter55">
    <property name="version">0.1</property>
    <property name="mlt_service">frei0r.glitch0r</property>
    <property name="kdenlive_id">frei0r.glitch0r</property>
    <property name="0">00:00:00.000=0.447</property>
    <property name="1">00:00:00.000=0.679</property>
    <property name="2">00:00:00.000=0.694</property>
    <property name="3">00:00:00.000=0</property>
   </filter>
   <filter id="filter56">
    <property name="foreground">0</property>
    <property name="threshold">109</property>
    <property name="mlt_service">BurningTV</property>
    <property name="kdenlive_id">BurningTV</property>
   </filter>
   <filter id="filter57">
    <property name="version">0.2</property>
    <property name="mlt_service">frei0r.vignette</property>
    <property name="kdenlive_id">frei0r.vignette</property>
    <property name="aspect">00:00:00.000=0.5</property>
    <property name="clearCenter">00:00:00.000=0</property>
    <property name="soft">00:00:00.000=0.6</property>
   </filter>
   <filter id="filter58">
    <property name="mlt_service">avfilter.scroll</property>
    <property name="kdenlive_id">avfilter.scroll</property>
    <property name="av.h">00:00:00.000=0</property>
    <property name="av.v">00:00:00.000=0.432343</property>
    <property name="av.hpos">0=0</property>
    <property name="av.vpos">0=0</property>
   </filter>
  </entry>
  <blank length="00:00:00.040"/>
  <entry producer="producer13" in="00:00:00.000" out="00:00:00.240">
   <property name="kdenlive:id">25</property>
   <filter id="filter59">
    <property name="version">0.1</property>
    <property name="mlt_service">frei0r.glitch0r</property>
    <property name="kdenlive_id">frei0r.glitch0r</property>
    <property name="0">00:00:00.000=0.447</property>
    <property name="1">00:00:00.000=0.679</property>
    <property name="2">00:00:00.000=0.694</property>
    <property name="3">00:00:00.000=0</property>
   </filter>
   <filter id="filter60">
    <property name="foreground">0</property>
    <property name="threshold">109</property>
    <property name="mlt_service">BurningTV</property>
    <property name="kdenlive_id">BurningTV</property>
   </filter>
   <filter id="filter61">
    <property name="version">0.2</property>
    <property name="mlt_service">frei0r.vignette</property>
    <property name="kdenlive_id">frei0r.vignette</property>
    <property name="aspect">00:00:00.000=0.5</property>
    <property name="clearCenter">00:00:00.000=0</property>
    <property name="soft">00:00:00.000=0.6</property>
   </filter>
   <filter id="filter62">
    <property name="mlt_service">avfilter.scroll</property>
    <property name="kdenlive_id">avfilter.scroll</property>
    <property name="av.h">00:00:00.000=0</property>
    <property name="av.v">00:00:00.000=0.432343</property>
    <property name="av.hpos">0=0</property>
    <property name="av.vpos">0=0</property>
   </filter>
  </entry>
  <blank length="00:00:02.040"/>
  <entry producer="producer12" in="00:00:00.000" out="00:00:00.280">
   <property name="kdenlive:id">51</property>
  </entry>
  <entry producer="chain70" in="00:00:00.000" out="00:00:02.920">
   <property name="kdenlive:id">31</property>
  </entry>
  <entry producer="producer14" in="00:00:00.000" out="00:00:01.320">
   <property name="kdenlive:id">4</property>
  </entry>
  <entry producer="chain70" in="00:00:02.960" out="00:00:04.320">
   <property name="kdenlive:id">31</property>
  </entry>
  <entry producer="producer15" in="00:00:00.000" out="00:00:01.360">
   <property name="kdenlive:id">5</property>
  </entry>
  <entry producer="chain70" in="00:00:04.360" out="00:00:07.040">
   <property name="kdenlive:id">31</property>
  </entry>
  <entry producer="producer17" in="00:00:00.560" out="00:00:01.000">
   <property name="kdenlive:id">31</property>
  </entry>
  <entry producer="chain70" in="00:00:16.760" out="00:00:39.200">
   <property name="kdenlive:id">31</property>
  </entry>
  <entry producer="chain71" in="00:00:00.000" out="00:00:05.280">
   <property name="kdenlive:id">6</property>
  </entry>
  <entry producer="producer18" in="00:00:53.200" out="00:00:59.560">
   <property name="kdenlive:id">6</property>
  </entry>
  <entry producer="chain72" in="00:00:01.960" out="00:00:06.240">
   <property name="kdenlive:id">32</property>
  </entry>
  <entry producer="chain73" in="00:00:01.120" out="00:00:02.120">
   <property name="kdenlive:id">33</property>
  </entry>
  <entry producer="chain74" in="00:00:01.600" out="00:00:02.520">
   <property name="kdenlive:id">34</property>
  </entry>
  <entry producer="chain73" in="00:00:06.080" out="00:00:07.480">
   <property name="kdenlive:id">33</property>
  </entry>
  <entry producer="chain74" in="00:00:21.280" out="00:00:22.560">
   <property name="kdenlive:id">34</property>
  </entry>
  <entry producer="chain73" in="00:00:20.320" out="00:00:22.040">
   <property name="kdenlive:id">33</property>
  </entry>
  <entry producer="chain74" in="00:00:06.520" out="00:00:09.640">
   <property name="kdenlive:id">34</property>
  </entry>
  <entry producer="chain73" in="00:00:11.480" out="00:00:12.520">
   <property name="kdenlive:id">33</property>
  </entry>
  <entry producer="chain74" in="00:00:13.800" out="00:00:17.960">
   <property name="kdenlive:id">34</property>
  </entry>
  <entry producer="chain73" in="00:00:20.120" out="00:00:22.000">
   <property name="kdenlive:id">33</property>
  </entry>
  <entry producer="chain74" in="00:00:29.720" out="00:00:55.920">
   <property name="kdenlive:id">34</property>
  </entry>
  <entry producer="chain73" in="00:00:29.120" out="00:00:30.440">
   <property name="kdenlive:id">33</property>
  </entry>
  <entry producer="chain75" in="00:00:00.000" out="00:00:02.080">
   <property name="kdenlive:id">35</property>
  </entry>
  <entry producer="chain75" in="00:00:02.120" out="00:00:04.080">
   <property name="kdenlive:id">35</property>
   <filter id="filter63">
    <property name="version">0.3</property>
    <property name="mlt_service">frei0r.saturat0r</property>
    <property name="kdenlive_id">frei0r.saturat0r</property>
    <property name="Saturation">00:00:02.120=0.001</property>
    <property name="kdenlive:collapsed">0</property>
   </filter>
   <filter id="filter64">
    <property name="background">colour:0</property>
    <property name="mlt_service">affine</property>
    <property name="kdenlive_id">pan_zoom</property>
    <property name="transition.rect">00:00:02.120=0 0 1920 1080;00:00:04.080=-1265 -100 4042 2610</property>
    <property name="transition.distort">0</property>
    <property name="use_normalised">0</property>
    <property name="producer.resource">C:/Users/marti/Videos/00:00:02.120=0x00000000;00:00:04.080=0x00000000</property>
    <property name="kdenlive:collapsed">0</property>
    <property name="transition.repeat_off">1</property>
    <property name="transition.mirror_off">1</property>
   </filter>
  </entry>
  <entry producer="producer19" in="00:00:14.800" out="00:00:16.640">
   <property name="kdenlive:id">35</property>
   <filter id="filter65">
    <property name="version">0.3</property>
    <property name="mlt_service">frei0r.saturat0r</property>
    <property name="kdenlive_id">frei0r.saturat0r</property>
    <property name="Saturation">00:00:14.800=0.001</property>
    <property name="kdenlive:collapsed">0</property>
   </filter>
   <filter id="filter66">
    <property name="background">colour:0</property>
    <property name="mlt_service">affine</property>
    <property name="kdenlive_id">pan_zoom</property>
    <property name="transition.rect">00:00:14.800=-1265 -100 4042 2610</property>
    <property name="transition.distort">0</property>
    <property name="use_normalised">0</property>
    <property name="producer.resource">C:/Users/marti/Videos/00:00:14.800=0x00000000</property>
    <property name="kdenlive:collapsed">0</property>
    <property name="transition.repeat_off">1</property>
    <property name="transition.mirror_off">1</property>
   </filter>
  </entry>
  <entry producer="chain76" in="00:00:00.000" out="00:00:24.920">
   <property name="kdenlive:id">7</property>
  </entry>
  <entry producer="chain76" in="00:00:30.960" out="00:00:34.240">
   <property name="kdenlive:id">7</property>
   <filter id="filter67">
    <property name="mlt_service">avfilter.colorize</property>
    <property name="kdenlive_id">avfilter.colorize</property>
    <property name="av.hue">00:00:30.960=0</property>
    <property name="av.saturation">00:00:30.960=0.905775</property>
    <property name="av.lightness">00:00:30.960=0.62614</property>
    <property name="av.mix">00:00:30.960=0.908815</property>
    <property name="kdenlive:collapsed">0</property>
   </filter>
  </entry>
  <entry producer="chain76" in="00:00:35.960" out="00:00:40.360">
   <property name="kdenlive:id">7</property>
  </entry>
  <blank length="00:00:02.960"/>
  <entry producer="chain77" in="00:00:00.000" out="00:00:10.640">
   <property name="kdenlive:id">36</property>
  </entry>
  <entry producer="chain71" in="00:00:00.000" out="00:00:05.280">
   <property name="kdenlive:id">6</property>
  </entry>
  <entry producer="producer20" in="00:00:53.200" out="00:00:59.520">
   <property name="kdenlive:id">6</property>
  </entry>
  <entry producer="chain78" in="00:00:01.880" out="00:00:07.800">
   <property name="kdenlive:id">37</property>
  </entry>
  <entry producer="chain79" in="00:00:00.000" out="00:00:10.600">
   <property name="kdenlive:id">39</property>
  </entry>
  <entry producer="chain80" in="00:00:00.000" out="00:00:05.520">
   <property name="kdenlive:id">38</property>
  </entry>
  <entry producer="chain80" in="00:00:08.680" out="00:00:16.720">
   <property name="kdenlive:id">38</property>
  </entry>
  <entry producer="chain79" in="00:00:31.880" out="00:00:38.960">
   <property name="kdenlive:id">39</property>
  </entry>
  <entry producer="chain81" in="00:00:00.000" out="00:00:05.760">
   <property name="kdenlive:id">40</property>
   <filter id="filter68" in="00:00:03.760" out="00:00:05.760">
    <property name="start">1</property>
    <property name="level">1</property>
    <property name="mlt_service">brightness</property>
    <property name="kdenlive_id">fade_to_black</property>
    <property name="alpha">00:00:00.000=1;00:00:02.000=0</property>
   </filter>
  </entry>
  <blank length="00:00:00.520"/>
  <entry producer="chain82" in="00:00:00.000" out="00:00:05.520">
   <property name="kdenlive:id">8</property>
  </entry>
  <entry producer="chain83" in="00:00:02.720" out="00:00:20.680">
   <property name="kdenlive:id">9</property>
  </entry>
  <entry producer="chain84" in="00:00:00.000" out="00:00:36.040">
   <property name="kdenlive:id">10</property>
   <filter id="filter69" in="00:00:34.040" out="00:00:36.040">
    <property name="start">1</property>
    <property name="level">1</property>
    <property name="mlt_service">brightness</property>
    <property name="kdenlive_id">fade_to_black</property>
    <property name="alpha">00:00:00.000=1;00:00:02.000=0</property>
   </filter>
  </entry>
 </playlist>
 <playlist id="playlist7"/>
 <tractor id="tractor3" in="00:00:00.000" out="00:04:54.640">
  <property name="kdenlive:trackheight">67</property>
  <property name="kdenlive:timeline_active">1</property>
  <property name="kdenlive:collapsed">0</property>
  <property name="kdenlive:thumbs_format"/>
  <property name="kdenlive:audio_rec"/>
  <track hide="audio" producer="playlist6"/>
  <track hide="audio" producer="playlist7"/>
 </tractor>
 <chain id="chain85" out="00:01:05.960">
  <property name="length">1650</property>
  <property name="eof">pause</property>
  <property name="resource">Halloween Pumpkin green screen - free use [meotS5WHfD8].webm</property>
  <property name="mlt_service">avformat-novalidate</property>
  <property name="seekable">1</property>
  <property name="audio_index">1</property>
  <property name="video_index">0</property>
  <property name="kdenlive:clipname"/>
  <property name="kdenlive:clip_type">0</property>
  <property name="kdenlive:folderid">-1</property>
  <property name="kdenlive:id">17</property>
  <property name="kdenlive:file_size">4646169</property>
  <property name="kdenlive:file_hash">568c007e55f6090726143e31f347d1d8</property>
  <property name="kdenlive:audio_max1">197</property>
  <property name="kdenlive:zone_in">209</property>
  <property name="kdenlive:zone_out">1434</property>
  <property name="meta.media.nb_streams">2</property>
  <property name="meta.media.0.stream.type">video</property>
  <property name="meta.media.0.stream.frame_rate">29.97</property>
  <property name="meta.media.0.stream.sample_aspect_ratio">1</property>
  <property name="meta.media.0.codec.width">1920</property>
  <property name="meta.media.0.codec.height">1080</property>
  <property name="meta.media.0.codec.rotate">0</property>
  <property name="meta.media.0.codec.pix_fmt">yuv420p</property>
  <property name="meta.media.0.codec.sample_aspect_ratio">0</property>
  <property name="meta.media.0.codec.colorspace">709</property>
  <property name="meta.media.0.codec.color_trc">1</property>
  <property name="meta.media.0.codec.name">vp9</property>
  <property name="meta.media.0.codec.long_name">Google VP9</property>
  <property name="meta.media.0.codec.bit_rate">0</property>
  <property name="meta.attr.0.stream.language.markup">eng</property>
  <property name="meta.attr.0.stream.DURATION.markup">00:01:05.932000000</property>
  <property name="meta.media.1.stream.type">audio</property>
  <property name="meta.media.1.codec.sample_fmt">fltp</property>
  <property name="meta.media.1.codec.sample_rate">48000</property>
  <property name="meta.media.1.codec.channels">2</property>
  <property name="meta.media.1.codec.name">opus</property>
  <property name="meta.media.1.codec.long_name">Opus</property>
  <property name="meta.media.1.codec.bit_rate">0</property>
  <property name="meta.attr.1.stream.language.markup">eng</property>
  <property name="meta.attr.1.stream.DURATION.markup">00:01:06.008000000</property>
  <property name="meta.attr.ENCODER.markup">Lavf60.9.100</property>
  <property name="meta.media.sample_aspect_num">1</property>
  <property name="meta.media.sample_aspect_den">1</property>
  <property name="meta.media.frame_rate_num">30000</property>
  <property name="meta.media.frame_rate_den">1001</property>
  <property name="meta.media.colorspace">709</property>
  <property name="meta.media.color_trc">1</property>
  <property name="meta.media.has_b_frames">0</property>
  <property name="meta.media.width">1920</property>
  <property name="meta.media.height">1080</property>
  <property name="meta.media.color_range">mpeg</property>
  <property name="xml">was here</property>
  <property name="meta.media.top_field_first">0</property>
  <property name="meta.media.progressive">1</property>
  <property name="set.test_audio">1</property>
  <property name="set.test_image">0</property>
 </chain>
 <producer id="producer21" in="00:00:00.000" out="00:00:01.760">
  <property name="length">45</property>
  <property name="eof">pause</property>
  <property name="resource">3.523200:20191031_204838.mp4</property>
  <property name="aspect_ratio">1</property>
  <property name="meta.media.nb_streams">2</property>
  <property name="meta.media.0.stream.type">video</property>
  <property name="meta.media.0.stream.frame_rate">29.9188</property>
  <property name="meta.media.0.stream.sample_aspect_ratio">1</property>
  <property name="meta.media.0.codec.width">1920</property>
  <property name="meta.media.0.codec.height">1080</property>
  <property name="meta.media.0.codec.rotate">0</property>
  <property name="meta.media.0.codec.pix_fmt">yuv420p</property>
  <property name="meta.media.0.codec.sample_aspect_ratio">0</property>
  <property name="meta.media.0.codec.colorspace">709</property>
  <property name="meta.media.0.codec.color_trc">1</property>
  <property name="meta.media.0.codec.name">h264</property>
  <property name="meta.media.0.codec.long_name">H.264 / AVC / MPEG-4 AVC / MPEG-4 part 10</property>
  <property name="meta.media.0.codec.bit_rate">17043918</property>
  <property name="meta.attr.0.stream.creation_time.markup">2019-10-31T09:48:46.000000Z</property>
  <property name="meta.attr.0.stream.language.markup">eng</property>
  <property name="meta.attr.0.stream.handler_name.markup">VideoHandle</property>
  <property name="meta.attr.0.stream.vendor_id.markup">[0][0][0][0]</property>
  <property name="meta.media.1.stream.type">audio</property>
  <property name="meta.media.1.codec.sample_fmt">fltp</property>
  <property name="meta.media.1.codec.sample_rate">48000</property>
  <property name="meta.media.1.codec.channels">2</property>
  <property name="meta.media.1.codec.name">aac</property>
  <property name="meta.media.1.codec.long_name">AAC (Advanced Audio Coding)</property>
  <property name="meta.media.1.codec.bit_rate">256045</property>
  <property name="meta.attr.1.stream.creation_time.markup">2019-10-31T09:48:46.000000Z</property>
  <property name="meta.attr.1.stream.language.markup">eng</property>
  <property name="meta.attr.1.stream.handler_name.markup">SoundHandle</property>
  <property name="meta.attr.1.stream.vendor_id.markup">[0][0][0][0]</property>
  <property name="meta.attr.major_brand.markup">mp42</property>
  <property name="meta.attr.minor_version.markup">0</property>
  <property name="meta.attr.compatible_brands.markup">isommp42</property>
  <property name="meta.attr.creation_time.markup">2019-10-31T09:48:46.000000Z</property>
  <property name="seekable">1</property>
  <property name="meta.media.sample_aspect_num">1</property>
  <property name="meta.media.sample_aspect_den">1</property>
  <property name="audio_index">1</property>
  <property name="video_index">0</property>
  <property name="warp_speed">3.5232</property>
  <property name="warp_resource">20191031_204838.mp4</property>
  <property name="mlt_service">timewarp</property>
  <property name="set.test_audio">1</property>
  <property name="set.test_image">0</property>
  <property name="kdenlive:id">5</property>
  <property name="warp_pitch">0</property>
  <property name="meta.media.frame_rate_num">4297500</property>
  <property name="meta.media.frame_rate_den">143639</property>
  <property name="meta.media.colorspace">709</property>
  <property name="meta.media.color_trc">1</property>
  <property name="meta.media.has_b_frames">0</property>
  <property name="meta.media.width">1920</property>
  <property name="meta.media.height">1080</property>
  <property name="meta.media.color_range">mpeg</property>
  <property name="meta.media.variable_frame_rate">1</property>
  <property name="meta.media.top_field_first">0</property>
  <property name="meta.media.progressive">1</property>
 </producer>
 <chain id="chain86" out="00:00:04.960">
  <property name="length">125</property>
  <property name="eof">pause</property>
  <property name="resource">Web Element Circle 03.webm</property>
  <property name="mlt_service">avformat-novalidate</property>
  <property name="seekable">1</property>
  <property name="audio_index">-1</property>
  <property name="video_index">0</property>
  <property name="kdenlive:clipname"/>
  <property name="kdenlive:clip_type">2</property>
  <property name="kdenlive:folderid">-1</property>
  <property name="kdenlive:id">41</property>
  <property name="kdenlive:file_size">137116</property>
  <property name="kdenlive:file_hash">bc712ea9a583b1919164c6f62fd36d2f</property>
  <property name="meta.media.nb_streams">1</property>
  <property name="meta.media.0.stream.type">video</property>
  <property name="meta.media.0.stream.frame_rate">25</property>
  <property name="meta.media.0.stream.sample_aspect_ratio">1</property>
  <property name="meta.media.0.codec.width">1000</property>
  <property name="meta.media.0.codec.height">1000</property>
  <property name="meta.media.0.codec.rotate">0</property>
  <property name="meta.media.0.codec.pix_fmt">yuv420p</property>
  <property name="meta.media.0.codec.sample_aspect_ratio">0</property>
  <property name="meta.media.0.codec.colorspace">709</property>
  <property name="meta.media.0.codec.name">vp8</property>
  <property name="meta.media.0.codec.long_name">On2 VP8</property>
  <property name="meta.media.0.codec.bit_rate">0</property>
  <property name="meta.attr.0.stream.language.markup">eng</property>
  <property name="meta.attr.0.stream.alpha_mode.markup">1</property>
  <property name="meta.attr.title.markup">Filmora</property>
  <property name="meta.attr.encoder.markup">Lavf55.36.101</property>
  <property name="meta.media.sample_aspect_num">1</property>
  <property name="meta.media.sample_aspect_den">1</property>
  <property name="meta.media.frame_rate_num">25</property>
  <property name="meta.media.frame_rate_den">1</property>
  <property name="meta.media.colorspace">709</property>
  <property name="meta.media.color_trc">2</property>
  <property name="meta.media.has_b_frames">0</property>
  <property name="meta.media.width">1000</property>
  <property name="meta.media.height">1000</property>
  <property name="meta.media.color_range">mpeg</property>
  <property name="xml">was here</property>
  <property name="meta.media.top_field_first">0</property>
  <property name="meta.media.progressive">1</property>
  <property name="set.test_audio">1</property>
  <property name="set.test_image">0</property>
 </chain>
 <playlist id="playlist8">
  <blank length="00:00:05.000"/>
  <entry producer="producer16" in="00:00:00.000" out="00:00:04.960">
   <property name="kdenlive:id">43</property>
  </entry>
  <blank length="00:00:06.600"/>
  <entry producer="chain85" in="00:00:08.360" out="00:00:20.720">
   <property name="kdenlive:id">17</property>
   <property name="kdenlive:activeeffect">1</property>
   <filter id="filter70">
    <property name="version">0.6</property>
    <property name="mlt_service">frei0r.select0r</property>
    <property name="kdenlive_id">frei0r.select0r</property>
    <property name="Color to select">00:00:08.360=0x00ff00ff</property>
    <property name="Invert selection">1</property>
    <property name="Selection subspace">0</property>
    <property name="Subspace shape">0.5</property>
    <property name="Edge mode">0.9</property>
    <property name="Delta R / A / Hue">00:00:08.360=0.378</property>
    <property name="Delta G / B / Chroma">00:00:08.360=0.73</property>
    <property name="Delta B / I / I">00:00:08.360=0.886</property>
    <property name="Slope">00:00:08.360=0</property>
    <property name="Operation">0.5</property>
    <property name="kdenlive:collapsed">0</property>
   </filter>
   <filter id="filter71">
    <property name="rotate_center">1</property>
    <property name="mlt_service">qtblend</property>
    <property name="kdenlive_id">qtblend</property>
    <property name="rect">00:00:08.360=-95 386 1127 649 1.000000</property>
    <property name="rotation">00:00:08.360=0</property>
    <property name="compositing">0</property>
    <property name="distort">0</property>
    <property name="kdenlive:collapsed">0</property>
   </filter>
  </entry>
  <entry producer="producer9" in="00:00:00.000" out="00:00:00.960">
   <property name="kdenlive:id">48</property>
  </entry>
  <blank length="00:00:01.520"/>
  <entry producer="producer9" in="00:00:00.000" out="00:00:02.440">
   <property name="kdenlive:id">48</property>
   <filter id="filter72" out="00:00:00.120">
    <property name="start">1</property>
    <property name="level">1</property>
    <property name="mlt_service">brightness</property>
    <property name="kdenlive_id">fade_from_black</property>
    <property name="alpha">00:00:00.000=0;00:00:00.120=1</property>
    <property name="kdenlive:collapsed">0</property>
   </filter>
   <filter id="filter73" in="00:00:02.240" out="00:00:02.440">
    <property name="start">1</property>
    <property name="level">1</property>
    <property name="mlt_service">brightness</property>
    <property name="kdenlive_id">fade_to_black</property>
    <property name="alpha">00:00:00.000=1;00:00:00.200=0</property>
    <property name="kdenlive:collapsed">0</property>
   </filter>
  </entry>
  <blank length="00:00:09.840"/>
  <entry producer="producer4" in="00:00:00.000" out="00:00:00.440">
   <property name="kdenlive:id">16</property>
   <property name="kdenlive:activeeffect">1</property>
   <filter id="filter74">
    <property name="version">0.6</property>
    <property name="mlt_service">frei0r.select0r</property>
    <property name="kdenlive_id">frei0r.select0r</property>
    <property name="Color to select">00:00:00.000=0xffffffff</property>
    <property name="Invert selection">1</property>
    <property name="Selection subspace">0</property>
    <property name="Subspace shape">0.5</property>
    <property name="Edge mode">0.9</property>
    <property name="Delta R / A / Hue">00:00:00.000=1</property>
    <property name="Delta G / B / Chroma">00:00:00.000=1</property>
    <property name="Delta B / I / I">00:00:00.000=0.384</property>
    <property name="Slope">00:00:00.000=0</property>
    <property name="Operation">0.5</property>
    <property name="kdenlive:collapsed">0</property>
   </filter>
   <filter id="filter75">
    <property name="rotate_center">1</property>
    <property name="mlt_service">qtblend</property>
    <property name="kdenlive_id">qtblend</property>
    <property name="rect">00:00:00.000=519 289 877 493 1.000000</property>
    <property name="rotation">00:00:00.000=0</property>
    <property name="compositing">0</property>
    <property name="distort">0</property>
    <property name="kdenlive:collapsed">0</property>
   </filter>
  </entry>
  <blank length="00:00:42.480"/>
  <entry producer="producer21" in="00:00:00.000" out="00:00:00.760">
   <property name="kdenlive:id">5</property>
  </entry>
  <blank length="00:00:42.840"/>
  <entry producer="producer22" in="00:00:00.000" out="00:00:02.840">
   <property name="kdenlive:id">54</property>
  </entry>
  <blank length="00:00:31.320"/>
  <entry producer="producer6" in="00:00:00.000" out="00:00:01.360">
   <property name="kdenlive:id">30</property>
   <property name="kdenlive:activeeffect">1</property>
   <filter id="filter76">
    <property name="version">0.6</property>
    <property name="mlt_service">frei0r.select0r</property>
    <property name="kdenlive_id">frei0r.select0r</property>
    <property name="Color to select">00:00:00.000=0xffffffff</property>
    <property name="Invert selection">1</property>
    <property name="Selection subspace">0</property>
    <property name="Subspace shape">0.5</property>
    <property name="Edge mode">0.9</property>
    <property name="Delta R / A / Hue">00:00:00.000=0.574</property>
    <property name="Delta G / B / Chroma">00:00:00.000=0.2</property>
    <property name="Delta B / I / I">00:00:00.000=0.667</property>
    <property name="Slope">00:00:00.000=0</property>
    <property name="Operation">0.5</property>
    <property name="kdenlive:collapsed">0</property>
   </filter>
   <filter id="filter77">
    <property name="rotate_center">1</property>
    <property name="mlt_service">qtblend</property>
    <property name="kdenlive_id">qtblend</property>
    <property name="rect">00:00:00.000=492 -210 1920 1080 1.000000</property>
    <property name="rotation">00:00:00.000=0</property>
    <property name="compositing">0</property>
    <property name="distort">0</property>
    <property name="kdenlive:collapsed">0</property>
   </filter>
  </entry>
  <entry producer="producer23" in="00:00:00.000" out="00:00:02.920">
   <property name="kdenlive:id">52</property>
  </entry>
  <blank length="00:01:43.440"/>
  <entry producer="chain86" in="00:00:00.000" out="00:00:04.960">
   <property name="kdenlive:id">41</property>
   <filter id="filter78">
    <property name="rotate_center">1</property>
    <property name="mlt_service">qtblend</property>
    <property name="kdenlive_id">qtblend</property>
    <property name="rect">00:00:00.000=428 535 1100 559 1.000000</property>
    <property name="rotation">00:00:00.000=0</property>
    <property name="compositing">0</property>
    <property name="distort">0</property>
    <property name="kdenlive:collapsed">0</property>
   </filter>
  </entry>
  <blank length="00:00:17.240"/>
  <entry producer="producer24" in="00:00:00.000" out="00:00:09.960">
   <property name="kdenlive:id">53</property>
  </entry>
 </playlist>
 <playlist id="playlist9"/>
 <tractor id="tractor4" in="00:00:00.000" out="00:05:04.640">
  <property name="kdenlive:trackheight">67</property>
  <property name="kdenlive:timeline_active">0</property>
  <property name="kdenlive:collapsed">0</property>
  <property name="kdenlive:thumbs_format"/>
  <property name="kdenlive:audio_rec"/>
  <track hide="audio" producer="playlist8"/>
  <track hide="audio" producer="playlist9"/>
 </tractor>
 <chain id="chain87" out="00:00:39.760">
  <property name="length">995</property>
  <property name="eof">pause</property>
  <property name="resource">Spooky Scary Skeletons Green Screen with song [9X-fSQJyr4E].webm</property>
  <property name="mlt_service">avformat-novalidate</property>
  <property name="seekable">1</property>
  <property name="audio_index">-1</property>
  <property name="video_index">0</property>
  <property name="kdenlive:clipname"/>
  <property name="kdenlive:clip_type">2</property>
  <property name="kdenlive:folderid">-1</property>
  <property name="kdenlive:id">28</property>
  <property name="kdenlive:file_size">4187134</property>
  <property name="kdenlive:file_hash">752b9895a55acb64d001aad2ceade411</property>
  <property name="meta.media.nb_streams">1</property>
  <property name="meta.media.0.stream.type">video</property>
  <property name="meta.media.0.stream.frame_rate">29.97</property>
  <property name="meta.media.0.stream.sample_aspect_ratio">1</property>
  <property name="meta.media.0.codec.width">1280</property>
  <property name="meta.media.0.codec.height">720</property>
  <property name="meta.media.0.codec.rotate">0</property>
  <property name="meta.media.0.codec.pix_fmt">yuv420p</property>
  <property name="meta.media.0.codec.sample_aspect_ratio">0</property>
  <property name="meta.media.0.codec.colorspace">709</property>
  <property name="meta.media.0.codec.color_trc">1</property>
  <property name="meta.media.0.codec.name">vp9</property>
  <property name="meta.media.0.codec.long_name">Google VP9</property>
  <property name="meta.media.0.codec.bit_rate">0</property>
  <property name="meta.attr.0.stream.language.markup">eng</property>
  <property name="meta.attr.encoder.markup">google/video-file</property>
  <property name="meta.media.sample_aspect_num">1</property>
  <property name="meta.media.sample_aspect_den">1</property>
  <property name="meta.media.frame_rate_num">30000</property>
  <property name="meta.media.frame_rate_den">1001</property>
  <property name="meta.media.colorspace">709</property>
  <property name="meta.media.color_trc">1</property>
  <property name="meta.media.has_b_frames">0</property>
  <property name="meta.media.width">1280</property>
  <property name="meta.media.height">720</property>
  <property name="meta.media.color_range">mpeg</property>
  <property name="xml">was here</property>
  <property name="meta.media.top_field_first">0</property>
  <property name="meta.media.progressive">1</property>
  <property name="set.test_audio">1</property>
  <property name="set.test_image">0</property>
 </chain>
 <playlist id="playlist10">
  <blank length="00:00:16.600"/>
  <entry producer="chain87" in="00:00:00.000" out="00:00:12.360">
   <property name="kdenlive:id">28</property>
   <property name="kdenlive:activeeffect">1</property>
   <filter id="filter79">
    <property name="version">0.6</property>
    <property name="mlt_service">frei0r.select0r</property>
    <property name="kdenlive_id">frei0r.select0r</property>
    <property name="Color to select">00:00:00.000=0x00ff00ff</property>
    <property name="Invert selection">1</property>
    <property name="Selection subspace">0</property>
    <property name="Subspace shape">0.5</property>
    <property name="Edge mode">0.9</property>
    <property name="Delta R / A / Hue">00:00:00.000=0.471</property>
    <property name="Delta G / B / Chroma">00:00:00.000=0.45</property>
    <property name="Delta B / I / I">00:00:00.000=0.61</property>
    <property name="Slope">00:00:00.000=0.532</property>
    <property name="Operation">0.5</property>
    <property name="kdenlive:collapsed">0</property>
   </filter>
   <filter id="filter80">
    <property name="rotate_center">1</property>
    <property name="mlt_service">qtblend</property>
    <property name="kdenlive_id">qtblend</property>
    <property name="rect">00:00:00.000=307 -85 2357 1108 1.000000</property>
    <property name="rotation">00:00:00.000=0</property>
    <property name="compositing">0</property>
    <property name="distort">0</property>
    <property name="kdenlive:collapsed">0</property>
   </filter>
  </entry>
 </playlist>
 <playlist id="playlist11"/>
 <tractor id="tractor5" in="00:00:00.000" out="00:00:28.960">
  <property name="kdenlive:trackheight">67</property>
  <property name="kdenlive:timeline_active">1</property>
  <property name="kdenlive:collapsed">0</property>
  <property name="kdenlive:thumbs_format"/>
  <property name="kdenlive:audio_rec"/>
  <track hide="audio" producer="playlist10"/>
  <track hide="audio" producer="playlist11"/>
 </tractor>
 <tractor id="tractor6" in="00:00:00.000" out="00:25:04.680">
  <property name="kdenlive:duration">00:05:04:17</property>
  <property name="kdenlive:maxduration">7617</property>
  <property name="kdenlive:clipname">Sequence 1</property>
  <property name="kdenlive:description"/>
  <property name="kdenlive:uuid">{829954ca-4588-4a1b-8374-f4ff0aa32179}</property>
  <property name="kdenlive:producer_type">17</property>
  <property name="kdenlive:id">3</property>
  <property name="kdenlive:clip_type">0</property>
  <property name="kdenlive:file_hash">944e42ed2c3bd8307468cf2f8189a491</property>
  <property name="kdenlive:folderid">2</property>
  <property name="kdenlive:sequenceproperties.activeTrack">2</property>
  <property name="kdenlive:sequenceproperties.audioTarget">-1</property>
  <property name="kdenlive:sequenceproperties.disablepreview">0</property>
  <property name="kdenlive:sequenceproperties.documentuuid">{829954ca-4588-4a1b-8374-f4ff0aa32179}</property>
  <property name="kdenlive:sequenceproperties.hasAudio">1</property>
  <property name="kdenlive:sequenceproperties.hasVideo">1</property>
  <property name="kdenlive:sequenceproperties.position">6470</property>
  <property name="kdenlive:sequenceproperties.scrollPos">2813</property>
  <property name="kdenlive:sequenceproperties.tracksCount">6</property>
  <property name="kdenlive:sequenceproperties.verticalzoom">1</property>
  <property name="kdenlive:sequenceproperties.videoTarget">3</property>
  <property name="kdenlive:sequenceproperties.zonein">0</property>
  <property name="kdenlive:sequenceproperties.zoneout">75</property>
  <property name="kdenlive:sequenceproperties.zoom">8</property>
  <property name="kdenlive:sequenceproperties.groups">[
    {
        "children": [
            {
                "data": "3:0",
                "leaf": "clip",
                "type": "Leaf"
            },
            {
                "data": "2:0",
                "leaf": "clip",
                "type": "Leaf"
            }
        ],
        "type": "AVSplit"
    },
    {
        "children": [
            {
                "data": "2:7048",
                "leaf": "clip",
                "type": "Leaf"
            },
            {
                "data": "2:7028",
                "leaf": "clip",
                "type": "Leaf"
            },
            {
                "data": "2:6965",
                "leaf": "clip",
                "type": "Leaf"
            },
            {
                "data": "2:6592",
                "leaf": "clip",
                "type": "Leaf"
            },
            {
                "data": "2:6945",
                "leaf": "clip",
                "type": "Leaf"
            },
            {
                "data": "2:6470",
                "leaf": "clip",
                "type": "Leaf"
            },
            {
                "data": "2:6914",
                "leaf": "clip",
                "type": "Leaf"
            },
            {
                "data": "2:6550",
                "leaf": "clip",
                "type": "Leaf"
            },
            {
                "data": "2:6884",
                "leaf": "clip",
                "type": "Leaf"
            },
            {
                "data": "2:6863",
                "leaf": "clip",
                "type": "Leaf"
            },
            {
                "data": "2:6637",
                "leaf": "clip",
                "type": "Leaf"
            }
        ],
        "type": "Selection"
    }
]
</property>
  <property name="kdenlive:sequenceproperties.guides">[
]
</property>
  <track producer="producer0"/>
  <track producer="tractor0"/>
  <track producer="tractor1"/>
  <track producer="tractor2"/>
  <track producer="tractor3"/>
  <track producer="tractor4"/>
  <track producer="tractor5"/>
  <transition id="transition0" in="00:02:10.440" out="00:02:11.400">
   <property name="a_track">4</property>
   <property name="b_track">5</property>
   <property name="geometry">0=0% 0% 100% 100% 0%;-1=0% 0% 100% 100% 100%</property>
   <property name="factory">loader</property>
   <property name="aligned">0</property>
   <property name="progressive">1</property>
   <property name="mlt_service">composite</property>
   <property name="kdenlive_id">wipe</property>
   <property name="luma">C:/Program Files/kdenlive/bin/data/kdenlive/lumas/HD/linear_x.pgm</property>
   <property name="softness">0</property>
   <property name="luma_invert">0</property>
   <property name="fill">1</property>
  </transition>
  <transition id="transition1" in="00:00:33.320" out="00:00:33.960">
   <property name="a_track">4</property>
   <property name="b_track">5</property>
   <property name="factory">loader</property>
   <property name="resource"/>
   <property name="mlt_service">luma</property>
   <property name="kdenlive_id">dissolve</property>
   <property name="softness">0</property>
   <property name="reverse">0</property>
   <property name="alpha_over">1</property>
   <property name="fix_background_alpha">1</property>
  </transition>
  <transition id="transition2" in="00:00:08.440" out="00:00:09.960">
   <property name="a_track">4</property>
   <property name="b_track">5</property>
   <property name="geometry">0=0% 0% 100% 100% 100%;-1=0% 0% 100% 100% 0%</property>
   <property name="factory">loader</property>
   <property name="aligned">0</property>
   <property name="progressive">1</property>
   <property name="mlt_service">composite</property>
   <property name="kdenlive_id">wipe</property>
   <property name="luma">C:/Users/marti/Videos/luma01.pgm</property>
   <property name="softness">0</property>
   <property name="luma_invert">0</property>
   <property name="fill">1</property>
  </transition>
  <transition id="transition3" in="00:00:04.640" out="00:00:04.960">
   <property name="a_track">0</property>
   <property name="b_track">4</property>
   <property name="geometry">0=0% 0% 100% 100% 100%;-1=0% 0% 100% 100% 0%</property>
   <property name="factory">loader</property>
   <property name="aligned">0</property>
   <property name="progressive">1</property>
   <property name="mlt_service">composite</property>
   <property name="kdenlive_id">wipe</property>
   <property name="force_track">0</property>
   <property name="luma">C:/Program Files/kdenlive/bin/data/kdenlive/lumas/HD/bi-linear_x.pgm</property>
   <property name="softness">0</property>
   <property name="luma_invert">1</property>
   <property name="fill">1</property>
  </transition>
  <transition id="transition4">
   <property name="a_track">0</property>
   <property name="b_track">1</property>
   <property name="mlt_service">mix</property>
   <property name="kdenlive_id">mix</property>
   <property name="internal_added">237</property>
   <property name="always_active">1</property>
   <property name="accepts_blanks">1</property>
   <property name="sum">1</property>
  </transition>
  <transition id="transition5">
   <property name="a_track">0</property>
   <property name="b_track">2</property>
   <property name="mlt_service">mix</property>
   <property name="kdenlive_id">mix</property>
   <property name="internal_added">237</property>
   <property name="always_active">1</property>
   <property name="accepts_blanks">1</property>
   <property name="sum">1</property>
  </transition>
  <transition id="transition6">
   <property name="a_track">0</property>
   <property name="b_track">3</property>
   <property name="mlt_service">mix</property>
   <property name="kdenlive_id">mix</property>
   <property name="internal_added">237</property>
   <property name="always_active">1</property>
   <property name="accepts_blanks">1</property>
   <property name="sum">1</property>
  </transition>
  <transition id="transition7">
   <property name="a_track">0</property>
   <property name="b_track">4</property>
   <property name="compositing">0</property>
   <property name="distort">0</property>
   <property name="rotate_center">0</property>
   <property name="mlt_service">qtblend</property>
   <property name="always_active">1</property>
   <property name="internal_added">237</property>
  </transition>
  <transition id="transition8">
   <property name="a_track">0</property>
   <property name="b_track">5</property>
   <property name="compositing">0</property>
   <property name="distort">0</property>
   <property name="rotate_center">0</property>
   <property name="mlt_service">qtblend</property>
   <property name="always_active">1</property>
   <property name="internal_added">237</property>
  </transition>
  <transition id="transition9">
   <property name="a_track">0</property>
   <property name="b_track">6</property>
   <property name="compositing">0</property>
   <property name="distort">0</property>
   <property name="rotate_center">0</property>
   <property name="mlt_service">qtblend</property>
   <property name="always_active">1</property>
   <property name="internal_added">237</property>
  </transition>
  <filter id="filter81">
   <property name="window">75</property>
   <property name="max_gain">20dB</property>
   <property name="mlt_service">volume</property>
   <property name="internal_added">237</property>
   <property name="disable">1</property>
  </filter>
  <filter id="filter82">
   <property name="channel">-1</property>
   <property name="mlt_service">panner</property>
   <property name="internal_added">237</property>
   <property name="start">0.5</property>
   <property name="disable">1</property>
  </filter>
  <filter id="filter83">
   <property name="window">75</property>
   <property name="max_gain">20dB</property>
   <property name="mlt_service">volume</property>
   <property name="internal_added">237</property>
   <property name="disable">1</property>
  </filter>
  <filter id="filter84">
   <property name="channel">-1</property>
   <property name="mlt_service">panner</property>
   <property name="internal_added">237</property>
   <property name="start">0.5</property>
   <property name="disable">1</property>
  </filter>
  <filter id="filter85">
   <property name="window">75</property>
   <property name="max_gain">20dB</property>
   <property name="mlt_service">volume</property>
   <property name="internal_added">237</property>
   <property name="disable">1</property>
  </filter>
  <filter id="filter86">
   <property name="channel">-1</property>
   <property name="mlt_service">panner</property>
   <property name="internal_added">237</property>
   <property name="start">0.5</property>
   <property name="disable">1</property>
  </filter>
  <filter id="filter87">
   <property name="window">75</property>
   <property name="max_gain">20dB</property>
   <property name="mlt_service">volume</property>
   <property name="internal_added">237</property>
   <property name="disable">1</property>
  </filter>
  <filter id="filter88">
   <property name="channel">-1</property>
   <property name="mlt_service">panner</property>
   <property name="internal_added">237</property>
   <property name="start">0.5</property>
   <property name="disable">1</property>
  </filter>
  <filter id="filter89">
   <property name="window">75</property>
   <property name="max_gain">20dB</property>
   <property name="mlt_service">volume</property>
   <property name="internal_added">237</property>
   <property name="disable">1</property>
  </filter>
  <filter id="filter90">
   <property name="channel">-1</property>
   <property name="mlt_service">panner</property>
   <property name="internal_added">237</property>
   <property name="start">0.5</property>
   <property name="disable">1</property>
  </filter>
  <filter id="filter91">
   <property name="window">75</property>
   <property name="max_gain">20dB</property>
   <property name="mlt_service">volume</property>
   <property name="internal_added">237</property>
   <property name="disable">1</property>
  </filter>
  <filter id="filter92">
   <property name="channel">-1</property>
   <property name="mlt_service">panner</property>
   <property name="internal_added">237</property>
   <property name="start">0.5</property>
   <property name="disable">1</property>
  </filter>
 </tractor>
 <chain id="chain99" out="00:00:38.000">
  <property name="length">951</property>
  <property name="eof">pause</property>
  <property name="resource">EESTIKEELHAALED/Hääl-89.flac</property>
  <property name="mlt_service">avformat</property>
  <property name="meta.media.nb_streams">1</property>
  <property name="meta.media.0.stream.type">audio</property>
  <property name="meta.media.0.codec.sample_fmt">s16</property>
  <property name="meta.media.0.codec.sample_rate">48000</property>
  <property name="meta.media.0.codec.channels">1</property>
  <property name="meta.media.0.codec.name">flac</property>
  <property name="meta.media.0.codec.long_name">FLAC (Free Lossless Audio Codec)</property>
  <property name="meta.media.0.codec.bit_rate">0</property>
  <property name="seekable">1</property>
  <property name="audio_index">0</property>
  <property name="video_index">-1</property>
  <property name="kdenlive:clipname"/>
  <property name="kdenlive:clip_type">1</property>
  <property name="kdenlive:folderid">-1</property>
  <property name="kdenlive:id">67</property>
  <property name="kdenlive:file_size">1284409</property>
  <property name="kdenlive:file_hash">064c0c323336d8811047ee60ebc9b693</property>
  <property name="kdenlive:audio_max0">156</property>
  <property name="kdenlive:zone_in">67</property>
  <property name="kdenlive:zone_out">912</property>
 </chain>
 <chain id="chain100" out="00:00:04.480">
  <property name="length">113</property>
  <property name="eof">pause</property>
  <property name="resource">EESTIKEELHAALED/Hääl-90.flac</property>
  <property name="mlt_service">avformat</property>
  <property name="meta.media.nb_streams">1</property>
  <property name="meta.media.0.stream.type">audio</property>
  <property name="meta.media.0.codec.sample_fmt">s16</property>
  <property name="meta.media.0.codec.sample_rate">48000</property>
  <property name="meta.media.0.codec.channels">1</property>
  <property name="meta.media.0.codec.name">flac</property>
  <property name="meta.media.0.codec.long_name">FLAC (Free Lossless Audio Codec)</property>
  <property name="meta.media.0.codec.bit_rate">0</property>
  <property name="seekable">1</property>
  <property name="audio_index">0</property>
  <property name="video_index">-1</property>
  <property name="kdenlive:clipname"/>
  <property name="kdenlive:clip_type">1</property>
  <property name="kdenlive:folderid">-1</property>
  <property name="kdenlive:id">68</property>
  <property name="kdenlive:file_size">126922</property>
  <property name="kdenlive:file_hash">ab0cb39db3b5ef6fe9ff54e71fa6012c</property>
  <property name="kdenlive:audio_max0">162</property>
 </chain>
 <playlist id="main_bin">
  <property name="kdenlive:folder.-1.2">Sequences</property>
  <property name="kdenlive:docproperties.activetimeline">{829954ca-4588-4a1b-8374-f4ff0aa32179}</property>
  <property name="kdenlive:docproperties.browserurl">C:/Users/marti/Downloads/</property>
  <property name="kdenlive:docproperties.compositing">1</property>
  <property name="kdenlive:docproperties.documentid">1691847840904</property>
  <property name="kdenlive:docproperties.enableTimelineZone">0</property>
  <property name="kdenlive:docproperties.enableexternalproxy">0</property>
  <property name="kdenlive:docproperties.enableproxy">0</property>
  <property name="kdenlive:docproperties.externalproxyparams"/>
  <property name="kdenlive:docproperties.generateimageproxy">0</property>
  <property name="kdenlive:docproperties.generateproxy">0</property>
  <property name="kdenlive:docproperties.guidesCategories">[&#xd;&#xd;&#xd;&#xd;&#xd;&#xd;&#xd;
    {&#xd;&#xd;&#xd;&#xd;&#xd;&#xd;&#xd;
        "color": "#9b59b6",&#xd;&#xd;&#xd;&#xd;&#xd;&#xd;&#xd;
        "comment": "Category 1",&#xd;&#xd;&#xd;&#xd;&#xd;&#xd;&#xd;
        "index": 0&#xd;&#xd;&#xd;&#xd;&#xd;&#xd;&#xd;
    },&#xd;&#xd;&#xd;&#xd;&#xd;&#xd;&#xd;
    {&#xd;&#xd;&#xd;&#xd;&#xd;&#xd;&#xd;
        "color": "#3daee9",&#xd;&#xd;&#xd;&#xd;&#xd;&#xd;&#xd;
        "comment": "Category 2",&#xd;&#xd;&#xd;&#xd;&#xd;&#xd;&#xd;
        "index": 1&#xd;&#xd;&#xd;&#xd;&#xd;&#xd;&#xd;
    },&#xd;&#xd;&#xd;&#xd;&#xd;&#xd;&#xd;
    {&#xd;&#xd;&#xd;&#xd;&#xd;&#xd;&#xd;
        "color": "#1abc9c",&#xd;&#xd;&#xd;&#xd;&#xd;&#xd;&#xd;
        "comment": "Category 3",&#xd;&#xd;&#xd;&#xd;&#xd;&#xd;&#xd;
        "index": 2&#xd;&#xd;&#xd;&#xd;&#xd;&#xd;&#xd;
    },&#xd;&#xd;&#xd;&#xd;&#xd;&#xd;&#xd;
    {&#xd;&#xd;&#xd;&#xd;&#xd;&#xd;&#xd;
        "color": "#1cdc9a",&#xd;&#xd;&#xd;&#xd;&#xd;&#xd;&#xd;
        "comment": "Category 4",&#xd;&#xd;&#xd;&#xd;&#xd;&#xd;&#xd;
        "index": 3&#xd;&#xd;&#xd;&#xd;&#xd;&#xd;&#xd;
    },&#xd;&#xd;&#xd;&#xd;&#xd;&#xd;&#xd;
    {&#xd;&#xd;&#xd;&#xd;&#xd;&#xd;&#xd;
        "color": "#c9ce3b",&#xd;&#xd;&#xd;&#xd;&#xd;&#xd;&#xd;
        "comment": "Category 5",&#xd;&#xd;&#xd;&#xd;&#xd;&#xd;&#xd;
        "index": 4&#xd;&#xd;&#xd;&#xd;&#xd;&#xd;&#xd;
    },&#xd;&#xd;&#xd;&#xd;&#xd;&#xd;&#xd;
    {&#xd;&#xd;&#xd;&#xd;&#xd;&#xd;&#xd;
        "color": "#fdbc4b",&#xd;&#xd;&#xd;&#xd;&#xd;&#xd;&#xd;
        "comment": "Category 6",&#xd;&#xd;&#xd;&#xd;&#xd;&#xd;&#xd;
        "index": 5&#xd;&#xd;&#xd;&#xd;&#xd;&#xd;&#xd;
    },&#xd;&#xd;&#xd;&#xd;&#xd;&#xd;&#xd;
    {&#xd;&#xd;&#xd;&#xd;&#xd;&#xd;&#xd;
        "color": "#f39c1f",&#xd;&#xd;&#xd;&#xd;&#xd;&#xd;&#xd;
        "comment": "Category 7",&#xd;&#xd;&#xd;&#xd;&#xd;&#xd;&#xd;
        "index": 6&#xd;&#xd;&#xd;&#xd;&#xd;&#xd;&#xd;
    },&#xd;&#xd;&#xd;&#xd;&#xd;&#xd;&#xd;
    {&#xd;&#xd;&#xd;&#xd;&#xd;&#xd;&#xd;
        "color": "#f47750",&#xd;&#xd;&#xd;&#xd;&#xd;&#xd;&#xd;
        "comment": "Category 8",&#xd;&#xd;&#xd;&#xd;&#xd;&#xd;&#xd;
        "index": 7&#xd;&#xd;&#xd;&#xd;&#xd;&#xd;&#xd;
    },&#xd;&#xd;&#xd;&#xd;&#xd;&#xd;&#xd;
    {&#xd;&#xd;&#xd;&#xd;&#xd;&#xd;&#xd;
        "color": "#da4453",&#xd;&#xd;&#xd;&#xd;&#xd;&#xd;&#xd;
        "comment": "Category 9",&#xd;&#xd;&#xd;&#xd;&#xd;&#xd;&#xd;
        "index": 8&#xd;&#xd;&#xd;&#xd;&#xd;&#xd;&#xd;
    }&#xd;&#xd;&#xd;&#xd;&#xd;&#xd;&#xd;
]&#xd;&#xd;&#xd;&#xd;&#xd;&#xd;&#xd;
</property>
  <property name="kdenlive:docproperties.kdenliveversion">23.08.0</property>
  <property name="kdenlive:docproperties.opensequences">{829954ca-4588-4a1b-8374-f4ff0aa32179}</property>
  <property name="kdenlive:docproperties.previewextension"/>
  <property name="kdenlive:docproperties.previewparameters"/>
  <property name="kdenlive:docproperties.profile">atsc_1080p_25</property>
  <property name="kdenlive:docproperties.proxyextension"/>
  <property name="kdenlive:docproperties.proxyimageminsize">2000</property>
  <property name="kdenlive:docproperties.proxyimagesize">800</property>
  <property name="kdenlive:docproperties.proxyminsize">1000</property>
  <property name="kdenlive:docproperties.proxyparams"/>
  <property name="kdenlive:docproperties.proxyresize">640</property>
  <property name="kdenlive:docproperties.rendercategory">Audio only</property>
  <property name="kdenlive:docproperties.rendercustomquality">-1</property>
  <property name="kdenlive:docproperties.renderendguide">-1</property>
  <property name="kdenlive:docproperties.renderexportaudio">0</property>
  <property name="kdenlive:docproperties.renderfullcolorrange">0</property>
  <property name="kdenlive:docproperties.rendermode">0</property>
  <property name="kdenlive:docproperties.renderplay">0</property>
  <property name="kdenlive:docproperties.renderpreview">0</property>
  <property name="kdenlive:docproperties.renderprofile">FLAC</property>
  <property name="kdenlive:docproperties.renderratio">1</property>
  <property name="kdenlive:docproperties.renderrescale">0</property>
  <property name="kdenlive:docproperties.renderrescaleheight">540</property>
  <property name="kdenlive:docproperties.renderrescalewidth">960</property>
  <property name="kdenlive:docproperties.renderspeed">1</property>
  <property name="kdenlive:docproperties.renderstartguide">-1</property>
  <property name="kdenlive:docproperties.rendertcoverlay">0</property>
  <property name="kdenlive:docproperties.rendertctype">-1</property>
  <property name="kdenlive:docproperties.rendertwopass">0</property>
  <property name="kdenlive:docproperties.renderurl">C:/Users/marti/Videos/Halloween-Eesti1.mka</property>
  <property name="kdenlive:docproperties.seekOffset">30000</property>
  <property name="kdenlive:docproperties.uuid">{829954ca-4588-4a1b-8374-f4ff0aa32179}</property>
  <property name="kdenlive:docproperties.version">1.1</property>
  <property name="kdenlive:expandedFolders"/>
  <property name="kdenlive:binZoom">4</property>
  <property name="kdenlive:documentnotes"/>
  <property name="xml_retain">1</property>
  <entry producer="chain3" in="00:00:00.000" out="00:00:07.000"/>
  <entry producer="chain4" in="00:00:00.000" out="00:00:06.360"/>
  <entry producer="chain5" in="00:00:00.000" out="00:00:07.840"/>
  <entry producer="chain6" in="00:00:00.000" out="00:00:47.040"/>
  <entry producer="chain11" in="00:00:00.000" out="00:00:05.520"/>
  <entry producer="chain13" in="00:00:00.000" out="00:00:20.960"/>
  <entry producer="chain12" in="00:00:00.000" out="00:00:36.040"/>
  <entry producer="chain7" in="00:00:00.000" out="00:00:46.320"/>
  <entry producer="chain8" in="00:00:00.000" out="00:01:50.880"/>
  <entry producer="chain42" in="00:00:00.000" out="00:00:31.280"/>
  <entry producer="chain10" in="00:00:00.000" out="00:03:58.640"/>
  <entry producer="chain26" in="00:00:00.000" out="00:00:02.920"/>
  <entry producer="producer4" in="00:00:00.000" out="00:00:04.960"/>
  <entry producer="chain15" in="00:00:00.000" out="00:01:05.960"/>
  <entry producer="chain17" in="00:00:00.000" out="00:05:01.960"/>
  <entry producer="chain16" in="00:00:00.000" out="00:00:53.840"/>
  <entry producer="chain18" in="00:00:00.000" out="00:00:27.920"/>
  <entry producer="chain19" in="00:00:00.000" out="00:00:15.280"/>
  <entry producer="chain21" in="00:00:00.000" out="00:00:03.000"/>
  <entry producer="chain22" in="00:00:00.000" out="00:04:22.440"/>
  <entry producer="chain41" in="00:00:00.000" out="00:03:26.920"/>
  <entry producer="producer13" in="00:00:00.000" out="00:00:04.960"/>
  <entry producer="chain24" in="00:00:00.000" out="00:00:14.960"/>
  <entry producer="chain25" in="00:00:00.000" out="00:00:10.480"/>
  <entry producer="chain27" in="00:00:00.000" out="00:00:39.760"/>
  <entry producer="chain28" in="00:00:00.000" out="00:00:07.000"/>
  <entry producer="producer6" in="00:00:00.000" out="00:00:04.960"/>
  <entry producer="chain29" in="00:00:00.000" out="00:00:45.200"/>
  <entry producer="chain30" in="00:00:00.000" out="00:00:09.280"/>
  <entry producer="chain31" in="00:00:00.000" out="00:00:32.000"/>
  <entry producer="chain32" in="00:00:00.000" out="00:00:58.720"/>
  <entry producer="chain33" in="00:00:00.000" out="00:00:07.360"/>
  <entry producer="chain34" in="00:00:00.000" out="00:00:13.880"/>
  <entry producer="chain35" in="00:00:00.000" out="00:00:30.920"/>
  <entry producer="chain36" in="00:00:00.000" out="00:00:18.120"/>
  <entry producer="chain37" in="00:00:00.000" out="00:00:45.400"/>
  <entry producer="chain38" in="00:00:00.000" out="00:00:09.360"/>
  <entry producer="chain39" in="00:00:00.000" out="00:00:04.960"/>
  <entry producer="producer1" in="00:00:00.000" out="00:00:04.960"/>
  <entry producer="producer16" in="00:00:00.000" out="00:00:06.200"/>
  <entry producer="producer2" in="00:00:00.000" out="00:00:04.960"/>
  <entry producer="producer3" in="00:00:00.000" out="00:00:04.960"/>
  <entry producer="producer7" in="00:00:00.000" out="00:00:04.960"/>
  <entry producer="producer8" in="00:00:00.000" out="00:00:04.960"/>
  <entry producer="producer9" in="00:00:00.000" out="00:00:04.960"/>
  <entry producer="producer10" in="00:00:00.000" out="00:00:04.960"/>
  <entry producer="producer11" in="00:00:00.000" out="00:00:07.360"/>
  <entry producer="producer12" in="00:00:00.000" out="00:00:04.960"/>
  <entry producer="producer23" in="00:00:00.000" out="00:00:04.960"/>
  <entry producer="producer24" in="00:00:00.000" out="00:00:09.960"/>
  <entry producer="producer22" in="00:00:00.000" out="00:00:04.960"/>
  <entry producer="chain69" in="00:00:00.000" out="00:00:05.040"/>
  <entry producer="chain94" in="00:00:00.000" out="00:00:07.280"/>
  <entry producer="chain97" in="00:00:00.000" out="00:00:04.360"/>
  <entry producer="chain92" in="00:00:00.000" out="00:00:03.800"/>
  <entry producer="chain88" in="00:00:00.000" out="00:00:09.800"/>
  <entry producer="chain95" in="00:00:00.000" out="00:00:04.320"/>
  <entry producer="chain98" in="00:00:00.000" out="00:00:06.080"/>
  <entry producer="chain96" in="00:00:00.000" out="00:00:04.760"/>
  <entry producer="chain89" in="00:00:00.000" out="00:00:11.560"/>
  <entry producer="chain90" in="00:00:00.000" out="00:00:03.920"/>
  <entry producer="chain91" in="00:00:00.000" out="00:01:14.800"/>
  <entry producer="chain93" in="00:00:00.000" out="00:01:30.960"/>
  <entry producer="tractor6" in="00:00:00.000" out="00:05:04.640"/>
  <entry producer="chain99" in="00:00:00.000" out="00:00:38.000"/>
  <entry producer="chain100" in="00:00:00.000" out="00:00:04.480"/>
 </playlist>
 <tractor id="tractor7" in="00:00:00.000" out="00:05:04.680">
  <property name="kdenlive:projectTractor">1</property>
  <track producer="tractor6" in="00:00:00.000" out="00:05:04.680"/>
 </tractor>
</mlt>
